<?xml version="1.0" standalone="no"?>
<!DOCTYPE svg PUBLIC "-//W3C//DTD SVG 1.1//EN" "http://www.w3.org/Graphics/SVG/1.1/DTD/svg11.dtd" >
<svg>
<metadata>
Created by FontForge 20090914 at Fri Jan  8 16:48:32 2021
 By www-data
Generated in 2013 by FontLab Studio. Copyright info pending.
</metadata>
<defs>
<font id="CircularStd-Book" horiz-adv-x="560" >
  <font-face 
    font-family="Circular Std Book"
    font-weight="450"
    font-stretch="normal"
    units-per-em="1000"
    panose-1="2 11 6 4 2 1 1 2 1 2"
    ascent="809"
    descent="-191"
    x-height="481"
    cap-height="709"
    bbox="-46 -232 1487 958"
    underline-thickness="80"
    underline-position="-115"
    unicode-range="U+000D-U+FEFF"
  />
<missing-glyph horiz-adv-x="562" 
d="M80 0v709h402v-709h-402zM159 79h244v551h-244v-551z" />
    <glyph glyph-name="f_f" unicode="ff" horiz-adv-x="659" 
d="M598 639c-20.667 0 -38.502 -6.16504 -53.502 -18.498s-22.5 -33.5 -22.5 -63.5v-76h116v-85h-116v-396h-97v396h-219v-396h-97v396h-89v85h89v81c0 51.333 15 91.666 45 120.999s67.667 44 113 44c28.667 0 47.334 -3.33301 56.001 -10v-84c-10 4 -23.667 6 -41 6
c-20.667 0 -38.5 -6.16699 -53.5 -18.5s-22.5 -33.5 -22.5 -63.5v-76h219v81c0 51.333 15 91.666 45 120.999s67.667 44 113 44c28.667 0 47.334 -3.33301 56.001 -10v-84c-10 4 -23.667 6 -41 6z" />
    <glyph glyph-name="f_f_i" unicode="ffi" horiz-adv-x="920" 
d="M109 481l-0.00195312 81.002c0 51.333 15 91.666 45 120.999s67.667 44 113 44c28.667 0 47.334 -3.33301 56.001 -10v-84c-10 4 -23.667 6 -41 6c-20.667 0 -38.5 -6.16699 -53.5 -18.5s-22.5 -33.5 -22.5 -63.5v-76h219v81c0 51.333 15 91.666 45 120.999
s67.667 44 113 44c28.667 0 47.334 -3.33301 56.001 -10v-84c-10 4 -23.667 6 -41 6c-20.667 0 -38.5 -6.16699 -53.5 -18.5s-22.5 -33.5 -22.5 -63.5v-76h318v-481h-93v396h-225v-396h-97v396h-219v-396h-97v396h-89v85h89zM725.998 665.002c0 18.667 6.5 34.667 19.5 48
s28.833 20 47.5 20c19.333 0 35.5 -6.5 48.5 -19.5s19.5 -29.167 19.5 -48.5c0 -18.667 -6.66699 -34.5 -20 -47.5s-29.333 -19.5 -48 -19.5s-34.5 6.5 -47.5 19.5s-19.5 28.833 -19.5 47.5z" />
    <glyph glyph-name="f_f_l" unicode="ffl" horiz-adv-x="920" 
d="M109 481l-0.00195312 81.002c0 51.333 15 91.666 45 120.999s67.667 44 113 44c28.667 0 47.334 -3.33301 56.001 -10v-84c-10 4 -23.667 6 -41 6c-20.667 0 -38.5 -6.16699 -53.5 -18.5s-22.5 -33.5 -22.5 -63.5v-76h219v81c0 51.333 15 91.666 45 120.999
s67.667 44 113 44c28.667 0 47.334 -3.33301 56.001 -10v-84c-10 4 -23.667 6 -41 6c-20.667 0 -38.5 -6.16699 -53.5 -18.5s-22.5 -33.5 -22.5 -63.5v-76h225v243h93v-724h-93v396h-225v-396h-97v396h-219v-396h-97v396h-89v85h89z" />
    <glyph glyph-name="f_i" unicode="fi" horiz-adv-x="604" 
d="M267 727c28.667 0 47.333 -3.33203 56 -9.99902v-84c-10 4 -23.667 6 -41 6c-20.667 0 -38.5 -6 -53.5 -18s-22.5 -33 -22.5 -63v-77h318v-481h-93v396h-225v-396h-97v396h-89v85h89v81c0 51.333 15 91.666 45 120.999s67.667 44 113 44zM409.999 665.001
c0 18.667 6.5 34.667 19.5 48s28.833 20 47.5 20c19.333 0 35.5 -6.5 48.5 -19.5s19.5 -29.167 19.5 -48.5c0 -18.667 -6.66699 -34.5 -20 -47.5s-29.333 -19.5 -48 -19.5s-34.5 6.5 -47.5 19.5s-19.5 28.833 -19.5 47.5z" />
    <glyph glyph-name="f_l" unicode="fl" horiz-adv-x="602" 
d="M282 639c-20.667 0 -38.501 -6.16602 -53.501 -18.499s-22.5 -33.5 -22.5 -63.5v-76h222v243h94v-724h-94v396h-222v-396h-97v396h-89v85h89v81c0 51.333 15 91.666 45 120.999s67.667 44 113 44c28.667 0 47.334 -3.33301 56.001 -10v-84c-10 4 -23.667 6 -41 6z" />
    <glyph glyph-name=".notdef" horiz-adv-x="562" 
d="M80 0v709h402v-709h-402zM159 79h244v551h-244v-551z" />
    <glyph glyph-name=".null" horiz-adv-x="0" 
 />
    <glyph glyph-name=".null" horiz-adv-x="0" 
 />
    <glyph glyph-name="uni000D" unicode="&#xd;" horiz-adv-x="250" 
 />
    <glyph glyph-name="space" unicode=" " horiz-adv-x="250" 
 />
    <glyph glyph-name="exclam" unicode="!" horiz-adv-x="311" 
d="M214 709l-25 -506h-67l-26 506h118zM90 60c0 18 6.33301 33.5 19 46.5s28 19.5 46 19.5s33.5 -6.5 46.5 -19.5s19.5 -28.5 19.5 -46.5s-6.5 -33.333 -19.5 -46s-28.5 -19 -46.5 -19s-33.333 6.33301 -46 19s-19 28 -19 46z" />
    <glyph glyph-name="quotedbl" unicode="&#x22;" horiz-adv-x="374" 
d="M40 599c0 18 5.66797 32.667 17.001 44s26 17 44 17c17.333 0 31.666 -5.66699 42.999 -17s17 -26 17 -44c0 -5.33301 -0.666992 -11.333 -2 -18l-42 -188h-34l-41 187c-1.33301 6.66699 -2 13 -2 19zM213.001 599c0 18 5.66797 32.667 17.001 44s26 17 44 17
c17.333 0 31.666 -5.66699 42.999 -17s17 -26 17 -44c0 -5.33301 -0.666992 -11.333 -2 -18l-42 -188h-34l-41 187c-1.33301 6.66699 -2 13 -2 19z" />
    <glyph glyph-name="numbersign" unicode="#" horiz-adv-x="738" 
d="M99 405v76h144l36 167h84l-36 -167h142l36 167h84l-36 -167h135v-76h-151l-34 -160h136v-76h-153l-36 -169h-84l36 169h-142l-36 -169h-84l36 169h-126v76h143l34 160h-128zM311 405l-34 -160h142l34 160h-142z" />
    <glyph glyph-name="dollar" unicode="$" horiz-adv-x="595" 
d="M346 -117h-78v104c-64.667 6.66699 -115.667 29.167 -153 67.5s-59 81.833 -65 130.5l95 30c3.33301 -34.667 15.333 -65 36 -91s49.667 -42.333 87 -49v209l-25 5c-52 10.667 -92.667 31.667 -122 63s-44 71 -44 119s17.833 90 53.5 126s81.5 57.333 137.5 64v105h78
v-106c55.333 -7.33301 97.833 -26.5 127.5 -57.5s49.5 -66.167 59.5 -105.5l-90 -33c-3.33301 22 -13.333 43.333 -30 64s-39 35 -67 43v-205l15 -3c54.667 -10.667 98 -33 130 -67s48 -73.667 48 -119c0 -47.333 -17 -89 -51 -125s-81.333 -57.667 -142 -65v-104zM441 172
c0 22 -8 41.668 -24 59.001s-39.667 29.666 -71 36.999v-193c31.333 6 55 17.667 71 35s24 38 24 62zM176 475.001c0 -48.667 30.667 -79 92 -91v190c-28.667 -5.33301 -51.167 -17 -67.5 -35s-24.5 -39.333 -24.5 -64z" />
    <glyph glyph-name="percent" unicode="%" horiz-adv-x="817" 
d="M138 498c0 -22.667 7.33301 -41.5 22 -56.5s33 -22.5 55 -22.5s40.333 7.5 55 22.5s22 33.833 22 56.5s-7.33301 41.334 -22 56.001s-33 22 -55 22s-40.333 -7.33301 -55 -22s-22 -33.334 -22 -56.001zM55 498c0 43.333 15.833 80.333 47.5 111s69.167 46 112.5 46
s81 -15.333 113 -46s48 -67.667 48 -111c0 -44 -16 -81.333 -48 -112s-69.667 -46 -113 -46s-80.833 15.333 -112.5 46s-47.5 68 -47.5 112zM534 150c0 -22.667 7.33301 -41.5 22 -56.5s33 -22.5 55 -22.5s40.333 7.5 55 22.5s22 33.833 22 56.5s-7.33301 41.334 -22 56.001
s-33 22 -55 22s-40.333 -7.33301 -55 -22s-22 -33.334 -22 -56.001zM451 150c0 43.333 15.833 80.333 47.5 111s69.167 46 112.5 46s81 -15.333 113 -46s48 -67.667 48 -111c0 -44 -16 -81.333 -48 -112s-69.667 -46 -113 -46s-80.833 15.333 -112.5 46s-47.5 68 -47.5 112z
M227 0h-92l466 648h90z" />
    <glyph glyph-name="ampersand" unicode="&#x26;" horiz-adv-x="697" 
d="M564 0l-90.001 93.999c-63.333 -70.667 -129.666 -106 -198.999 -106c-63.333 0 -113.333 18 -150 54s-55 78.333 -55 127c0 42.667 10.167 78.334 30.5 107.001s51.833 59 94.5 91l10 8l-13 14c-16.667 17.333 -29.5 31.5 -38.5 42.5s-19 27.667 -30 50
s-16.5 44.166 -16.5 65.499c0 54 18.5 97 55.5 129s79.5 48 127.5 48c54.667 0 99.667 -15.833 135 -47.5s53 -73.5 53 -125.5c0 -55.333 -33.333 -107.666 -100 -156.999l-36 -27l132 -137l158 176v-129l-96 -111l161 -166h-133zM275.999 77.999
c24.667 0 47.166 6.66797 67.499 20.001s41.833 32.666 64.5 57.999l3 4l-144 151l-36 -27c-40 -30.667 -60 -66.334 -60 -107.001c0 -25.333 9.83301 -48.166 29.5 -68.499s44.834 -30.5 75.501 -30.5zM203.998 553c0 -28.667 18.001 -61.666 54.001 -98.999l22 -24l48 36
c35.333 26 53 55.333 53 88c0 24 -8.5 44.333 -25.5 61s-38.5 25 -64.5 25c-22.667 0 -42.834 -7.83301 -60.501 -23.5s-26.5 -36.834 -26.5 -63.501z" />
    <glyph glyph-name="quotesingle" unicode="'" horiz-adv-x="201" 
d="M40 599c0 18 5.66797 32.667 17.001 44s26 17 44 17c17.333 0 31.666 -5.66699 42.999 -17s17 -26 17 -44c0 -5.33301 -0.666992 -11.333 -2 -18l-42 -188h-34l-41 187c-1.33301 6.66699 -2 13 -2 19z" />
    <glyph glyph-name="parenleft" unicode="(" horiz-adv-x="302" 
d="M55 317c0 188.667 63.333 347.667 190 477l57 -50c-110.667 -124 -166 -266.333 -166 -427s55.333 -303 166 -427l-57 -50c-126.667 129.333 -190 288.333 -190 477z" />
    <glyph glyph-name="parenright" unicode=")" horiz-adv-x="302" 
d="M247 317c0 -188.667 -63.333 -347.667 -190 -477l-57 50c110.667 124 166 266.333 166 427s-55.333 303 -166 427l57 50c126.667 -129.333 190 -288.333 190 -477z" />
    <glyph glyph-name="asterisk" unicode="*" horiz-adv-x="440" 
d="M259 709v-134l123 42l23 -72l-124 -41l82 -105l-61 -46l-83 109l-78 -108l-61 46l79 104l-124 41l23 72l122 -43v135h79z" />
    <glyph glyph-name="plus" unicode="+" horiz-adv-x="567" 
d="M55 327h187v195h82v-195h188v-79h-188v-197h-82v197h-187v79z" />
    <glyph glyph-name="comma" unicode="," horiz-adv-x="294" 
d="M70 64c0 18 6.99902 33.668 20.999 47.001s31.333 20 52 20c22.667 0 41.834 -8.33301 57.501 -25s23.5 -40 23.5 -70c0 -60 -15.333 -106.333 -46 -139s-64.667 -51.334 -102 -56.001v52c24 5.33301 43.667 18.5 59 39.5s23.333 43.833 24 68.5
c-4.66699 -3.33301 -12 -5 -22 -5c-19.333 0 -35.333 6.16699 -48 18.5s-19 28.833 -19 49.5z" />
    <glyph glyph-name="hyphen" unicode="-" horiz-adv-x="361" 
d="M316 246h-271v82h271v-82z" />
    <glyph glyph-name="period" unicode="." horiz-adv-x="279" 
d="M70 64c0 19.333 6.66699 35.833 20 49.5s29.666 20.5 48.999 20.5s35.833 -6.83301 49.5 -20.5s20.5 -30.167 20.5 -49.5s-6.83301 -35.666 -20.5 -48.999s-30.167 -20 -49.5 -20s-35.666 6.66699 -48.999 20s-20 29.666 -20 48.999z" />
    <glyph glyph-name="slash" unicode="/" horiz-adv-x="434" 
d="M434 709l-343 -709h-91l343 709h91z" />
    <glyph glyph-name="zero" unicode="0" horiz-adv-x="614" 
d="M147 324c0 -100 19 -170 57 -210c26.667 -28 61 -42 103 -42s76.333 14 103 42c38 40 57 110 57 210s-19 170 -57 210c-26.667 28 -61 42 -103 42s-76.333 -14 -103 -42c-38 -40 -57 -110 -57 -210zM50 324c0 99.333 19.333 177.666 58 234.999
c46 69.333 112.333 104 199 104s153 -34.667 199 -104c38.667 -57.333 58 -135.666 58 -234.999s-19.333 -177.666 -58 -234.999c-46 -69.333 -112.333 -104 -199 -104s-153 34.667 -199 104c-38.667 57.333 -58 135.666 -58 234.999z" />
    <glyph glyph-name="one" unicode="1" horiz-adv-x="353" 
d="M278 0h-96v457h-157v69c44 0.666992 81 12.167 111 34.5s48.667 51.5 56 87.5h86v-648z" />
    <glyph glyph-name="two" unicode="2" horiz-adv-x="529" 
d="M141 415l-97.999 11.999c-0.666992 6 -1 14.667 -1 26c0 58 20.333 107.5 61 148.5s95 61.5 163 61.5c67.333 0 120.666 -19.167 159.999 -57.5s59 -85.5 59 -141.5c0 -82 -40.667 -148.667 -122 -200l-128 -82c-46 -29.333 -72.333 -59.666 -79 -90.999h333v-91h-454
c1.33301 54.667 13.833 102.667 37.5 144s62.5 79.333 116.5 114l108 70c59.333 38 89 83 89 135c0 32 -10.667 59 -32 81s-51.333 33 -90 33c-40.667 0 -71.667 -12.333 -93 -37s-32 -56.667 -32 -96c0 -6 0.666992 -15.667 2 -29z" />
    <glyph glyph-name="three" unicode="3" horiz-adv-x="553" 
d="M225 301l-48 80.999l191 176h-310v90h440v-88l-185 -171c52.667 0 99.167 -17.333 139.5 -52s60.5 -83 60.5 -145c0 -57.333 -21 -106.333 -63 -147s-99.333 -61 -172 -61c-71.333 0 -128.5 19.833 -171.5 59.5s-66.167 87.834 -69.5 144.501l96 22
c2 -42 16.5 -75.833 43.5 -101.5s60.5 -38.5 100.5 -38.5c42.667 0 76.167 11.5 100.5 34.5s36.5 51.5 36.5 85.5c0 39.333 -13 69.333 -39 90s-57 31 -93 31c-19.333 0 -38.333 -3.33301 -57 -10z" />
    <glyph glyph-name="four" unicode="4" horiz-adv-x="574" 
d="M35 146v113l278 389h135v-411h111v-91h-111v-146h-95v146h-318zM353 237v317l-228 -317h228z" />
    <glyph glyph-name="five" unicode="5" horiz-adv-x="548" 
d="M35 176l93.999 28.001c2.66699 -40 17.5 -72.333 44.5 -97s60.833 -37 101.5 -37c39.333 0 72.333 12 99 36s40 55.667 40 95c0 42.667 -13.333 75.667 -40 99s-60 35 -100 35c-48.667 0 -88 -15.667 -118 -47c-9.33301 3.33301 -24.666 9.33301 -45.999 18l-50 20
l84 322h342v-90h-277l-48 -186c28.667 32 72.667 48 132 48c64.667 0 117.5 -19.333 158.5 -58s61.5 -91 61.5 -157c0 -62.667 -22 -115.167 -66 -157.5s-101.333 -63.5 -172 -63.5c-66.667 0 -122.167 18.667 -166.5 56s-68.833 82.666 -73.5 135.999z" />
    <glyph glyph-name="six" unicode="6" horiz-adv-x="580" 
d="M525 627l-30 -79.998c-32 18.667 -70.667 28 -116 28c-66 0 -119.5 -21.667 -160.5 -65s-63.5 -99 -67.5 -167c14.667 24 36.834 44 66.501 60s64.5 24 104.5 24c66 0 119.5 -19.667 160.5 -59s61.5 -93.333 61.5 -162c0 -67.333 -23.333 -121 -70 -161
s-103.334 -60 -170.001 -60c-69.333 0 -128.833 25.167 -178.5 75.5s-74.5 125.166 -74.5 224.499c0 117.333 31.333 209.666 94 276.999s142.667 101 240 101c59.333 0 106 -12 140 -36zM165 206.002c0 -40.667 14 -73.5 42 -98.5s60.667 -37.5 98 -37.5
c39.333 0 72.5 12.333 99.5 37s40.5 57.667 40.5 99c0 42 -13.5 75.333 -40.5 100s-60.167 37 -99.5 37s-72.5 -12.333 -99.5 -37s-40.5 -58 -40.5 -100z" />
    <glyph glyph-name="seven" unicode="7" horiz-adv-x="483" 
d="M478 648v-94c-16.667 -13.333 -33 -27.666 -49 -42.999s-37.167 -40 -63.5 -74s-49.5 -70 -69.5 -108s-38.833 -86.167 -56.5 -144.5s-29.5 -119.833 -35.5 -184.5h-101c4 51.333 12 101.166 24 149.499s26 90.5 42 126.5s33.167 69.833 51.5 101.5
s36.333 58.334 54 80.001s33.667 40.167 48 55.5s25.833 26.666 34.5 33.999l13 11h-365v90h473z" />
    <glyph glyph-name="eight" unicode="8" 
d="M280 372c34.667 0.666992 63.332 10.667 85.999 30s34 44.666 34 75.999c0 29.333 -11 54 -33 74s-51 30 -87 30s-65 -10 -87 -30s-33 -44.667 -33 -74c0 -31.333 11.333 -56.666 34 -75.999s51.334 -29.333 86.001 -30zM279.998 70c42 0 75.167 10.333 99.5 31
s36.5 46.667 36.5 78c0 32 -12.167 58.5 -36.5 79.5s-57.5 31.5 -99.5 31.5s-75.167 -10.5 -99.5 -31.5s-36.5 -47.5 -36.5 -79.5c0 -31.333 12.167 -57.333 36.5 -78s57.5 -31 99.5 -31zM279.998 -15c-72.667 0 -130 17.499 -172 52.499s-63 79.5 -63 133.5
c0 38 11.5 71.167 34.5 99.5s52.5 48.5 88.5 60.5c-30.667 11.333 -56 30.833 -76 58.5s-30 58.834 -30 93.501c0 52.667 20.667 95.834 62 129.501s93.333 50.5 156 50.5s114.667 -16.833 156 -50.5s62 -76.834 62 -129.501c0 -34 -10 -65 -30 -93s-45.333 -47.667 -76 -59
c36 -11.333 65.5 -31.333 88.5 -60s34.5 -62 34.5 -100c0 -54 -21 -98.5 -63 -133.5s-99.333 -52.5 -172 -52.5z" />
    <glyph glyph-name="nine" unicode="9" horiz-adv-x="581" 
d="M57 23l31.999 81c34 -20.667 73.333 -31 118 -31c74 0 129.5 21.167 166.5 63.5s56.5 97.833 58.5 166.5c-12.667 -23.333 -33.5 -43 -62.5 -59s-64.167 -24 -105.5 -24c-60 0 -112.333 19.5 -157 58.5s-67 92.5 -67 160.5c0 65.333 23.5 119 70.5 161
s103.167 63 168.5 63c69.333 0 128.666 -25.333 177.999 -76s74 -124.667 74 -222c0 -121.333 -27.167 -215 -81.5 -281s-135.166 -99 -242.499 -99c-25.333 0 -52.666 3.66699 -81.999 11s-52 16.333 -68 27zM418.999 441c0 40 -14 72.667 -42 98s-60.667 38 -98 38
c-38 0 -70.833 -12.5 -98.5 -37.5s-41.5 -57.833 -41.5 -98.5c0 -42 13.667 -75.333 41 -100s60.333 -37 99 -37c38 0 70.833 12.5 98.5 37.5s41.5 58.167 41.5 99.5z" />
    <glyph glyph-name="colon" unicode=":" horiz-adv-x="290" 
d="M76 64c0 19.333 6.66699 35.833 20 49.5s29.666 20.5 48.999 20.5s35.833 -6.83301 49.5 -20.5s20.5 -30.167 20.5 -49.5s-6.83301 -35.666 -20.5 -48.999s-30.167 -20 -49.5 -20s-35.666 6.66699 -48.999 20s-20 29.666 -20 48.999zM75 416
c0 19.333 6.66699 35.833 20 49.5s29.666 20.5 48.999 20.5s35.833 -6.83301 49.5 -20.5s20.5 -30.167 20.5 -49.5s-6.83301 -35.666 -20.5 -48.999s-30.167 -20 -49.5 -20s-35.666 6.66699 -48.999 20s-20 29.666 -20 48.999z" />
    <glyph glyph-name="semicolon" unicode=";" horiz-adv-x="297" 
d="M75 62c0 17.333 6.66504 32.168 19.998 44.501s30 18.5 50 18.5c22 0 40.333 -7.83301 55 -23.5s22 -37.834 22 -66.501c0 -56.667 -14.5 -100.5 -43.5 -131.5s-61.5 -48.833 -97.5 -53.5v49c22.667 5.33301 41.334 17.833 56.001 37.5s22.334 41.5 23.001 65.5
c-5.33301 -3.33301 -12.333 -5 -21 -5c-18 0 -33.167 5.83301 -45.5 17.5s-18.5 27.5 -18.5 47.5zM75.998 416.002c0 19.333 6.66699 35.833 20 49.5s29.666 20.5 48.999 20.5s35.833 -6.83301 49.5 -20.5s20.5 -30.167 20.5 -49.5s-6.83301 -35.666 -20.5 -48.999
s-30.167 -20 -49.5 -20s-35.666 6.66699 -48.999 20s-20 29.666 -20 48.999z" />
    <glyph glyph-name="less" unicode="&#x3c;" horiz-adv-x="482" 
d="M35 244v85l412 206v-95l-310 -153l310 -153v-95z" />
    <glyph glyph-name="equal" unicode="=" horiz-adv-x="593" 
d="M528 346h-463v77h463v-77zM528 151h-463v79h463v-79z" />
    <glyph glyph-name="greater" unicode="&#x3e;" horiz-adv-x="482" 
d="M447 329v-85l-412 -205v95l312 153l-312 153v95z" />
    <glyph glyph-name="question" unicode="?" horiz-adv-x="510" 
d="M284 203h-88.0029c-0.666992 8 -1 19.667 -1 35c0 66.667 27.667 118.667 83 156l44 30c35.333 24 53 56.667 53 98c0 32 -10.333 59 -31 81s-50 33 -88 33c-40.667 0 -71.667 -12.667 -93 -38s-32 -55.333 -32 -90c0 -20 2.33301 -36.333 7 -49l-97 12
c-4 14 -6 30 -6 48c0 32.667 7.33301 64 22 94s39.334 56 74.001 78s76.334 33 125.001 33c66.667 0 119.834 -20 159.501 -60s59.5 -87 59.5 -141c0 -70 -34 -128 -102 -174l-46 -31c-29.333 -20 -44 -52 -44 -96c0 -6 0.333008 -12.333 1 -19zM173.997 60
c0 18 6.33301 33.5 19 46.5s28 19.5 46 19.5s33.5 -6.5 46.5 -19.5s19.5 -28.5 19.5 -46.5s-6.5 -33.333 -19.5 -46s-28.5 -19 -46.5 -19s-33.333 6.33301 -46 19s-19 28 -19 46z" />
    <glyph glyph-name="at" unicode="@" horiz-adv-x="826" 
d="M601 137c-24.667 0 -45.9971 5.33105 -63.9971 15.998s-29.667 26.667 -35 48c-30.667 -44 -70.334 -66 -119.001 -66c-45.333 0 -82.166 15.667 -110.499 47s-42.5 72.666 -42.5 123.999c0 66 19.667 121.333 59 166s86.333 67 141 67
c23.333 0 45.166 -5.66699 65.499 -17s34.166 -27.666 41.499 -48.999l9 53h79l-54 -251c-2 -10 -3 -19.333 -3 -28c0 -27.333 12.667 -41 38 -41c28 0 53 19.167 75 57.5s33 82.5 33 132.5c0 74 -25.833 135 -77.5 183s-119.167 72 -202.5 72
c-88.667 0 -162 -29.5 -220 -88.5s-87 -135.833 -87 -230.5c0 -89.333 28.5 -162.666 85.5 -219.999s134.5 -86 232.5 -86c78 0 146.333 23.333 205 70l41 -54c-28.667 -26.667 -65.834 -48.167 -111.501 -64.5s-90.5 -24.5 -134.5 -24.5
c-117.333 0 -213.333 35.167 -288 105.5s-112 161.833 -112 274.5c0 114 37.667 207.667 113 281s167 110 275 110c102 0 187.167 -31.167 255.5 -93.5s102.5 -140.166 102.5 -233.499c0 -74 -18.5 -135.833 -55.5 -185.5s-81.833 -74.5 -134.5 -74.5zM515.003 369.998
c0 30 -7.33203 53.1689 -21.999 69.502s-35.334 24.5 -62.001 24.5c-34.667 0 -63.167 -14.833 -85.5 -44.5s-33.5 -63.834 -33.5 -102.501c0 -72.667 28.333 -109 85 -109c34 0 61.833 15.167 83.5 45.5s33.167 69.166 34.5 116.499z" />
    <glyph glyph-name="A" unicode="A" horiz-adv-x="697" 
d="M581 0l-77 198h-314l-75 -198h-105l282 709h113l282 -709h-106zM346 607l-121 -318h244z" />
    <glyph glyph-name="B" unicode="B" horiz-adv-x="602" 
d="M90 709l231.001 0.000976562c66 0 118.167 -17.667 156.5 -53s57.5 -81.666 57.5 -138.999c0 -36.667 -9.66699 -68.334 -29 -95.001s-45 -46 -77 -58c39.333 -10 70.5 -30.833 93.5 -62.5s34.5 -67.834 34.5 -108.501c0 -56 -20.333 -102.167 -61 -138.5
s-93.334 -54.5 -158.001 -54.5h-248v709zM188.001 399.001h121.999c38.667 0 69.334 10.5 92.001 31.5s34 48.167 34 81.5c0 34 -11.667 61 -35 81s-55 30 -95 30h-118v-224zM188 86.001h136c40 0 72.167 10.333 96.5 31s36.5 48 36.5 82c0 35.333 -11 63.5 -33 84.5
s-54 31.5 -96 31.5h-140v-229z" />
    <glyph glyph-name="C" unicode="C" horiz-adv-x="750" 
d="M397 -15c-96.667 0 -179.501 33.333 -248.501 100s-103.5 156.667 -103.5 270c0 76 17.333 142.667 52 200s78.334 99.833 131.001 127.5s109 41.5 169 41.5c80 0 147.5 -20.167 202.5 -60.5s91.5 -95.166 109.5 -164.499l-91 -32c-13.333 53.333 -39 94.5 -77 123.5
s-86 43.5 -144 43.5c-69.333 0 -128.666 -24.5 -177.999 -73.5s-74 -117.5 -74 -205.5s24.667 -156.667 74 -206s108.666 -74 177.999 -74c58 0 106.333 15.5 145 46.5s65.667 72.167 81 123.5l87 -32c-19.333 -68.667 -56.5 -123.834 -111.5 -165.501
s-122.167 -62.5 -201.5 -62.5z" />
    <glyph glyph-name="D" unicode="D" horiz-adv-x="720" 
d="M188 87h145c69.333 0 126.833 23 172.5 69s68.5 111.667 68.5 197c0 86 -22.5 152.333 -67.5 199s-102.167 70 -171.5 70h-147v-535zM336 0h-246.001v709h248c95.333 0 175.333 -31.5 240 -94.5s97 -150.167 97 -261.5c0 -110.667 -32.667 -197.167 -98 -259.5
s-145.666 -93.5 -240.999 -93.5z" />
    <glyph glyph-name="E" unicode="E" horiz-adv-x="581" 
d="M521 0h-431v709h431v-91h-333v-218h302v-92h-302v-217h333v-91z" />
    <glyph glyph-name="F" unicode="F" horiz-adv-x="551" 
d="M188 0h-98v709h431v-91h-333v-228h302v-92h-302v-298z" />
    <glyph glyph-name="G" unicode="G" horiz-adv-x="765" 
d="M704 0l-78.999 0.00292969l-9 100c-17.333 -31.333 -45.666 -58.333 -84.999 -81s-86.666 -34 -141.999 -34c-60.667 0 -116.667 13.833 -168 41.5s-93.5 70.167 -126.5 127.5s-49.5 124.333 -49.5 201s17.333 143.667 52 201s78.167 99.666 130.5 126.999
s108.5 41 168.5 41c76 0 142.167 -19.5 198.5 -58.5s94.833 -90.833 115.5 -155.5l-89 -38c-16 51.333 -43.833 91.166 -83.5 119.499s-86.834 42.5 -141.501 42.5c-68.667 0 -127.667 -24.333 -177 -73s-74 -117.334 -74 -206.001c0 -89.333 24.167 -158.5 72.5 -207.5
s106.5 -73.5 174.5 -73.5c37.333 0 70.5 6 99.5 18s51.667 27.833 68 47.5s28.666 39.5 36.999 59.5s13.166 40 14.499 60h-246v88h339v-347z" />
    <glyph glyph-name="H" unicode="H" horiz-adv-x="738" 
d="M648 0h-98v315h-362v-315h-98v709h98v-303h362v303h98v-709z" />
    <glyph glyph-name="I" unicode="I" horiz-adv-x="280" 
d="M190 0h-100v709h100v-709z" />
    <glyph glyph-name="J" unicode="J" horiz-adv-x="534" 
d="M20 211v45.999l98 22v-67c0 -45.333 11 -79.333 33 -102s51.667 -34 89 -34c36 0 64.333 11.333 85 34s31 54.334 31 95.001v504h98v-497c0 -64 -19.5 -117.833 -58.5 -161.5s-90.5 -65.5 -154.5 -65.5c-68.667 0 -122.667 20.5 -162 61.5s-59 95.833 -59 164.5z" />
    <glyph glyph-name="K" unicode="K" horiz-adv-x="668" 
d="M529 0l-240 322l-101 -108v-214h-98v709h98v-365l332 365h129l-295 -316l299 -393h-124z" />
    <glyph glyph-name="L" unicode="L" horiz-adv-x="548" 
d="M523 0h-433v709h98v-617h335v-92z" />
    <glyph glyph-name="M" unicode="M" horiz-adv-x="946" 
d="M856 0h-97v552l-242 -552h-90l-240 552v-552h-97v709h133l250 -577l252 577h131v-709z" />
    <glyph glyph-name="N" unicode="N" horiz-adv-x="763" 
d="M673 0h-102l-383 578v-578h-98v709h131l354 -544v544h98v-709z" />
    <glyph glyph-name="O" unicode="O" horiz-adv-x="802" 
d="M145 355c0 -88 25 -156.667 75 -206s110.333 -74 181 -74s131 24.667 181 74s75 118 75 206s-25 156.5 -75 205.5s-110.333 73.5 -181 73.5s-131 -24.5 -181 -73.5s-75 -117.5 -75 -205.5zM45 355c0 57.333 10.167 109.666 30.5 156.999s47.333 86.166 81 116.499
s71.5 53.833 113.5 70.5s85.667 25 131 25s89 -8.33301 131 -25s79.833 -40.167 113.5 -70.5s60.667 -69.166 81 -116.499s30.5 -99.666 30.5 -156.999c0 -76 -17.5 -142.667 -52.5 -200s-79.167 -100 -132.5 -128s-110.333 -42 -171 -42s-117.667 14 -171 42
s-97.5 70.667 -132.5 128s-52.5 124 -52.5 200z" />
    <glyph glyph-name="P" unicode="P" horiz-adv-x="597" 
d="M188 378h142c42 0 75.333 10.833 100 32.5s37 50.834 37 87.501c0 37.333 -12.333 67.166 -37 89.499s-58 33.5 -100 33.5h-142v-243zM348 290h-160v-290h-98v709h258c64.667 0 117.334 -20 158.001 -60s61 -90 61 -150c0 -60.667 -20.333 -110.667 -61 -150
s-93.334 -59 -158.001 -59z" />
    <glyph glyph-name="Q" unicode="Q" horiz-adv-x="802" 
d="M45 355c0 57.333 10.167 109.666 30.5 156.999s47.333 86.166 81 116.499s71.5 53.833 113.5 70.5s85.667 25 131 25s89 -8.33301 131 -25s79.833 -40.167 113.5 -70.5s60.667 -69.166 81 -116.499s30.5 -99.666 30.5 -156.999c0 -106 -33.333 -193.333 -100 -262l83 -93
l-67 -59l-86 95c-56 -34 -118 -51 -186 -51c-60.667 0 -117.667 14 -171 42s-97.5 70.667 -132.5 128s-52.5 124 -52.5 200zM145 355c0 -88 25.001 -156.667 75.001 -206s110.333 -74 181 -74c45.333 0 86.666 10.333 123.999 31l-123 138l68 59l124 -140
c42 50.667 63 114.667 63 192c0 88 -25 156.5 -75 205.5s-110.333 73.5 -181 73.5s-131 -24.5 -181 -73.5s-75 -117.5 -75 -205.5z" />
    <glyph glyph-name="R" unicode="R" horiz-adv-x="619" 
d="M457 0l-162 289.999h-106v-290h-99v709h267c65.333 0 117.833 -20.167 157.5 -60.5s59.5 -90.5 59.5 -150.5c0 -51.333 -15.333 -95.166 -46 -131.499s-72.667 -59.5 -126 -69.5l169 -297h-114zM189 377.999h150c40 0 72.333 10.833 97 32.5s37 50.834 37 87.501
c0 37.333 -12.333 67.166 -37 89.499s-57 33.5 -97 33.5h-150v-243z" />
    <glyph glyph-name="S" unicode="S" horiz-adv-x="593" 
d="M542 548l-88.002 -31c-4.66699 30.667 -19.667 58.5 -45 83.5s-60.333 37.5 -105 37.5c-39.333 0 -72 -11.333 -98 -34s-39 -50.667 -39 -84c0 -26 7.83301 -48 23.5 -66s38.167 -30.333 67.5 -37l106 -23c58.667 -12.667 104 -36.5 136 -71.5s48 -77.5 48 -127.5
c0 -57.333 -22.667 -106.666 -68 -147.999s-104.333 -62 -177 -62c-79.333 0 -141.5 20.833 -186.5 62.5s-71.167 91.167 -78.5 148.5l94 30c4 -42.667 20.667 -78.667 50 -108s69.333 -44 120 -44c46.667 0 82.667 10.667 108 32s38 48.333 38 81
c0 26.667 -9 49.834 -27 69.501s-44.333 33.167 -79 40.5l-101 22c-52.667 11.333 -94.667 33.666 -126 66.999s-47 75.666 -47 126.999c0 56 22.833 105.167 68.5 147.5s100.834 63.5 165.501 63.5c72.667 0 128.334 -17.667 167.001 -53s63 -76.333 73 -123z" />
    <glyph glyph-name="T" unicode="T" horiz-adv-x="592" 
d="M582 618h-237v-618h-98v618h-237v91h572v-91z" />
    <glyph glyph-name="U" unicode="U" horiz-adv-x="670" 
d="M335 -15c-74.667 0 -135.832 22.667 -183.499 68s-71.5 108.333 -71.5 189v467h97v-464c0 -54 13.833 -95.667 41.5 -125s66.5 -44 116.5 -44s88.667 14.667 116 44s41 71 41 125v464h98v-467c0 -80.667 -23.833 -143.667 -71.5 -189s-108.834 -68 -183.501 -68z" />
    <glyph glyph-name="V" unicode="V" horiz-adv-x="657" 
d="M328 126l216 583h103l-273 -709h-97l-267 709h104z" />
    <glyph glyph-name="W" unicode="W" horiz-adv-x="1004" 
d="M735 148l153 561h101l-202 -709h-101l-185 575l-183 -575h-98l-205 709h101l156 -555l178 555h103z" />
    <glyph glyph-name="X" unicode="X" horiz-adv-x="617" 
d="M607 709l-241 -354l238 -355h-117l-179 277l-183 -277h-115l242 355l-240 354h118l179 -278l182 278h116z" />
    <glyph glyph-name="Y" unicode="Y" horiz-adv-x="618" 
d="M260 303l-250 406h118l184 -316l184 316h112l-250 -406v-303h-98v303z" />
    <glyph glyph-name="Z" unicode="Z" horiz-adv-x="632" 
d="M592 0h-547v98l423 520h-413v91h532v-95l-425 -522h430v-92z" />
    <glyph glyph-name="bracketleft" unicode="[" horiz-adv-x="288" 
d="M283 -148h-193v933h193v-76h-111v-782h111v-75z" />
    <glyph glyph-name="backslash" unicode="\" horiz-adv-x="434" 
d="M341 0l-341 709h93l341 -709h-93z" />
    <glyph glyph-name="bracketright" unicode="]" horiz-adv-x="288" 
d="M198 -148h-193v75h111v782h-111v76h193v-933z" />
    <glyph glyph-name="asciicircum" unicode="^" horiz-adv-x="521" 
d="M496 354h-99l-136 258l-137 -258h-99l194 356h83z" />
    <glyph glyph-name="underscore" unicode="_" horiz-adv-x="542" 
d="M527 -79h-512v79h512v-79z" />
    <glyph glyph-name="grave" unicode="`" horiz-adv-x="272" 
d="M160 543l-126 146h118l86 -146h-78z" />
    <glyph glyph-name="a" unicode="a" horiz-adv-x="523" 
d="M50 129c0 41.333 13.334 74.501 40.001 99.501s62 40.5 106 46.5l130 19c24.667 3.33301 37 15.333 37 36c0 25.333 -8.66699 46 -26 62s-43.333 24 -78 24c-32 0 -57.333 -8.83301 -76 -26.5s-29.667 -41.167 -33 -70.5l-90 21c4.66699 46 25.667 83.5 63 112.5
s82 43.5 134 43.5c68 0 118.333 -16.5 151 -49.5s49 -75.167 49 -126.5v-241c0 -28.667 2 -55 6 -79h-92c-3.33301 20 -5 41.667 -5 65c-13.333 -21.333 -32.833 -40 -58.5 -56s-57.834 -24 -96.501 -24c-47.333 0 -86 14.167 -116 42.5s-45 62.166 -45 101.499z
M224.001 64.001c42 0 75.668 11.333 101.001 34s38 58.667 38 108v22l-147 -22c-21.333 -3.33301 -38.333 -11 -51 -23s-19 -28.333 -19 -49c0 -18.667 7.16699 -35 21.5 -49s33.166 -21 56.499 -21z" />
    <glyph glyph-name="b" unicode="b" horiz-adv-x="593" 
d="M173 0l-93.001 -0.000976562v724h93v-311c12.667 23.333 32.834 42.833 60.501 58.5s60.5 23.5 98.5 23.5c70 0 124.333 -23.667 163 -71s58 -107.666 58 -180.999c0 -74 -20 -135.167 -60 -183.5s-94.667 -72.5 -164 -72.5c-72 0 -124 27.667 -156 83v-70z
M456.999 242.999c0 52 -12.833 93.167 -38.5 123.5s-60.167 45.5 -103.5 45.5c-42 0 -76.333 -15.333 -103 -46s-40 -71.667 -40 -123s13.333 -92.833 40 -124.5s61 -47.5 103 -47.5c42.667 0 77 15.667 103 47s39 73 39 125z" />
    <glyph glyph-name="c" unicode="c" horiz-adv-x="530" 
d="M282 409c-40.667 0 -75.165 -14.6689 -103.498 -44.002s-42.5 -70.666 -42.5 -123.999c0 -52.667 14.167 -94 42.5 -124s63.166 -45 104.499 -45c40 0 70.5 10 91.5 30s35.167 43 42.5 69l83 -36c-13.333 -40 -38.5 -75 -75.5 -105s-84.167 -45 -141.5 -45
c-70 0 -128 24.333 -174 73s-69 109.667 -69 183c0 74.667 23 135.834 69 183.501s103.667 71.5 173 71.5c58.667 0 106.167 -15 142.5 -45s60.166 -66 71.499 -108l-85 -36c-7.33301 28 -21.333 52 -42 72s-49.667 30 -87 30z" />
    <glyph glyph-name="d" unicode="d" horiz-adv-x="588" 
d="M136 242c0 -50.667 12.501 -92.001 37.501 -124.001s59.5 -48 103.5 -48c42 0 75.667 16.333 101 49s38 74.334 38 125.001c0 50 -12.333 90.333 -37 121s-58.334 46 -101.001 46s-77 -15.667 -103 -47s-39 -72 -39 -122zM417.001 64.999l0.000976562 8.00195
c-12.667 -24.667 -31.834 -45.167 -57.501 -61.5s-56.167 -24.5 -91.5 -24.5c-68.667 0 -123.834 24.167 -165.501 72.5s-62.5 109.166 -62.5 182.499c0 70 21.333 129.5 64 178.5s97.334 73.5 164.001 73.5c39.333 0 71.333 -7.83301 96 -23.5s41.667 -34.834 51 -57.501
v311h93v-635c0 -32.667 1.66699 -62.334 5 -89.001h-91c-3.33301 18.667 -5 40.334 -5 65.001z" />
    <glyph glyph-name="e" unicode="e" horiz-adv-x="542" 
d="M141 290l263 -0.000976562c-1.33301 36 -13.333 65.5 -36 88.5s-54.667 34.5 -96 34.5c-37.333 0 -68 -12.167 -92 -36.5s-37 -53.166 -39 -86.499zM418 164.999l80.9971 -27.999c-14 -44.667 -40 -81.167 -78 -109.5s-84 -42.5 -138 -42.5
c-67.333 0 -124.5 23.167 -171.5 69.5s-70.5 108.833 -70.5 187.5c0 73.333 22.667 134 68 182s99.333 72 162 72c72.667 0 129.334 -22.833 170.001 -68.5s61 -106.834 61 -183.501c0 -12 -0.666992 -22 -2 -30h-362c0.666992 -42.667 14.834 -77.667 42.501 -105
s61.834 -41 102.501 -41c68.667 0 113.667 32.333 135 97z" />
    <glyph glyph-name="f" unicode="f" horiz-adv-x="343" 
d="M322 396l-116.001 0.000976562v-396h-97v396h-89v85h89v81c0 51.333 15 91.666 45 120.999s67.667 44 113 44c28.667 0 47.334 -3.33301 56.001 -10v-84c-10 4 -23.667 6 -41 6c-20.667 0 -38.5 -6.16699 -53.5 -18.5s-22.5 -33.5 -22.5 -63.5v-76h116v-85z" />
    <glyph glyph-name="g" unicode="g" horiz-adv-x="578" 
d="M45 -26l91 20.999c3.33301 -34 17 -62.167 41 -84.5s54 -33.5 90 -33.5c98 0 147 52 147 156v69c-12 -23.333 -30.833 -42.333 -56.5 -57s-55.834 -22 -90.501 -22c-64 0 -116.833 21.833 -158.5 65.5s-62.5 99.5 -62.5 167.5c0 66 20.667 121.5 62 166.5
s94.333 67.5 159 67.5c73.333 0 122.666 -25.333 147.999 -76v67h93v-445c0 -32 -4.16699 -61.833 -12.5 -89.5s-21.5 -53.167 -39.5 -76.5s-43.167 -41.666 -75.5 -54.999s-70.166 -20 -113.499 -20c-59.333 0 -109.666 16.833 -150.999 50.5s-65 76.5 -71 128.5z
M281 101.999c40.667 0 73.667 14.167 99 42.5s38 65.5 38 111.5s-12.667 83.167 -38 111.5s-58.333 42.5 -99 42.5c-41.333 0 -74.833 -14 -100.5 -42s-38.5 -65.333 -38.5 -112c0 -47.333 12.5 -84.833 37.5 -112.5s58.833 -41.5 101.5 -41.5z" />
    <glyph glyph-name="h" unicode="h" horiz-adv-x="562" 
d="M174 283l-0.000976562 -283h-94v724h94v-299c32 46.667 80.667 70 146 70c55.333 0 97.833 -17.667 127.5 -53s44.5 -81 44.5 -137v-305h-94v289c0 80.667 -37.333 121 -112 121c-34.667 0 -61.667 -11.833 -81 -35.5s-29.666 -54.167 -30.999 -91.5z" />
    <glyph glyph-name="i" unicode="i" horiz-adv-x="253" 
d="M173 0h-93v481h93v-481zM59 663c0 18.667 6.5 34.667 19.5 48s28.833 20 47.5 20s34.667 -6.5 48 -19.5s20 -29.167 20 -48.5c0 -18.667 -6.66699 -34.5 -20 -47.5s-29.333 -19.5 -48 -19.5s-34.5 6.5 -47.5 19.5s-19.5 28.833 -19.5 47.5z" />
    <glyph glyph-name="j" unicode="j" horiz-adv-x="254" 
d="M80 -52v533h94v-537c0 -44 -12 -79.833 -36 -107.5s-56.333 -41.5 -97 -41.5c-23.333 0 -42 2.33301 -56 7v79c10 -2 20 -3 30 -3c43.333 0 65 23.333 65 70zM59 665c0 18.667 6.5 34.667 19.5 48s28.833 20 47.5 20s34.667 -6.5 48 -19.5s20 -29.167 20 -48.5
c0 -18.667 -6.66699 -34.5 -20 -47.5s-29.333 -19.5 -48 -19.5s-34.5 6.5 -47.5 19.5s-19.5 28.833 -19.5 47.5z" />
    <glyph glyph-name="k" unicode="k" horiz-adv-x="525" 
d="M511 481l-205 -203l209 -278h-118l-157 212l-67 -67v-145h-93v724h93v-456l208 213h130z" />
    <glyph glyph-name="l" unicode="l" horiz-adv-x="254" 
d="M174 0h-94v724h94v-724z" />
    <glyph glyph-name="m" unicode="m" horiz-adv-x="857" 
d="M173 0h-93v481h90v-64c14.667 25.333 35.334 44.666 62.001 57.999s54.667 20 84 20c31.333 0 60 -7.66699 86 -23s45.333 -38 58 -68c33.333 60.667 87 91 161 91c46 0 85.167 -15.667 117.5 -47s48.5 -76.666 48.5 -135.999v-312h-93v302c0 33.333 -8.5 60 -25.5 80
s-42.5 30 -76.5 30c-32.667 0 -59.334 -11.5 -80.001 -34.5s-31 -51.833 -31 -86.5v-291h-94v302c0 33.333 -8.5 60 -25.5 80s-42.5 30 -76.5 30c-33.333 0 -60.333 -11.333 -81 -34s-31 -52 -31 -88v-290z" />
    <glyph glyph-name="n" unicode="n" horiz-adv-x="562" 
d="M174 278v-278h-94v481h92v-69c32 55.333 81.333 83 148 83c55.333 0 97.833 -17.667 127.5 -53s44.5 -81 44.5 -137v-305h-94v289c0 80.667 -37.333 121 -112 121c-35.333 0 -62.833 -12.5 -82.5 -37.5s-29.5 -56.5 -29.5 -94.5z" />
    <glyph glyph-name="o" unicode="o" horiz-adv-x="572" 
d="M286 69c42 0 77.5 15.167 106.5 45.5s43.5 72.5 43.5 126.5c0 53.333 -14.5 95.166 -43.5 125.499s-64.5 45.5 -106.5 45.5s-77.5 -15.167 -106.5 -45.5s-43.5 -72.166 -43.5 -125.499c0 -54 14.5 -96.167 43.5 -126.5s64.5 -45.5 106.5 -45.5zM286 496
c71.333 0 130.168 -24.167 176.501 -72.5s69.5 -109.166 69.5 -182.499c0 -74 -23 -135.167 -69 -183.5s-105 -72.5 -177 -72.5s-131 24.167 -177 72.5s-69 109.5 -69 183.5c0 73.333 23.167 134.166 69.5 182.499s105.166 72.5 176.499 72.5z" />
    <glyph glyph-name="p" unicode="p" horiz-adv-x="593" 
d="M173 -190l-93.001 -0.000976562v671h91v-75c14 25.333 35 46 63 62s60.667 24 98 24c69.333 0 123.5 -23.667 162.5 -71s58.5 -107.333 58.5 -180c0 -73.333 -20.167 -134 -60.5 -182s-94.833 -72 -163.5 -72c-35.333 0 -66.666 7.33301 -93.999 22
s-48 33.334 -62 56.001v-255zM456.999 240.999c0 48.667 -12.833 88.834 -38.5 120.501s-60.167 47.5 -103.5 47.5c-42.667 0 -77.167 -15.833 -103.5 -47.5s-39.5 -71.834 -39.5 -120.501c0 -50 13.167 -90.833 39.5 -122.5s60.833 -47.5 103.5 -47.5s77 15.833 103 47.5
s39 72.5 39 122.5z" />
    <glyph glyph-name="q" unicode="q" horiz-adv-x="581" 
d="M511 -190l-93 0.000976562v258c-12.667 -24.667 -32.167 -44.334 -58.5 -59.001s-56.833 -22 -91.5 -22c-67.333 0 -122.166 24.5 -164.499 73.5s-63.5 109.5 -63.5 181.5c0 70.667 20.5 130.167 61.5 178.5s95.833 72.5 164.5 72.5c38.667 0 71.167 -8.33301 97.5 -25
s45.166 -37 56.499 -61v74h91v-671zM136 242.001c0 -50 12.8311 -91.167 38.498 -123.5s59.834 -48.5 102.501 -48.5c42 0 76.167 16.167 102.5 48.5s39.5 73.5 39.5 123.5s-13 90.5 -39 121.5s-60.333 46.5 -103 46.5c-43.333 0 -77.666 -15.5 -102.999 -46.5
s-38 -71.5 -38 -121.5z" />
    <glyph glyph-name="r" unicode="r" horiz-adv-x="367" 
d="M347 486v-100c-14 2 -27.667 3 -41 3c-88 0 -132 -49.333 -132 -148v-241h-94v481h92v-84c29.333 61.333 77.333 92 144 92c10.667 0 21 -1 31 -3z" />
    <glyph glyph-name="s" unicode="s" horiz-adv-x="452" 
d="M35 125l84.9971 30.001c3.33301 -26 14.666 -47.5 33.999 -64.5s45.333 -25.5 78 -25.5c25.333 0 45.333 6.16699 60 18.5s22 27.5 22 45.5c0 32 -20.667 52.667 -62 62l-82 18c-37.333 8 -66.666 24 -87.999 48s-32 53 -32 87c0 41.333 16.833 77 50.5 107
s73.834 45 120.501 45c30.667 0 58 -4.5 82 -13.5s42.667 -20.833 56 -35.5s23.333 -28.334 30 -41.001s11.667 -25.667 15 -39l-83 -31c-1.33301 8 -3.66602 15.833 -6.99902 23.5s-8.5 16.167 -15.5 25.5s-17.167 16.833 -30.5 22.5s-29 8.5 -47 8.5
c-23.333 0 -42.5 -6.33301 -57.5 -19s-22.5 -27.667 -22.5 -45c0 -30.667 18.333 -50 55 -58l78 -17c42.667 -9.33301 75.5 -26.5 98.5 -51.5s34.5 -55.5 34.5 -91.5c0 -38 -15.5 -72.333 -46.5 -103s-74.167 -46 -129.5 -46c-59.333 0 -105.666 14.833 -138.999 44.5
s-52.333 61.5 -57 95.5z" />
    <glyph glyph-name="t" unicode="t" horiz-adv-x="355" 
d="M206 633v-151.999h104v-85h-104v-250c0 -22.667 5.16699 -39.334 15.5 -50.001s27.5 -16 51.5 -16c14 0 26.333 1.33301 37 4v-80c-16 -6 -37.333 -9 -64 -9c-41.333 0 -74 12 -98 36s-36 57.667 -36 101v264h-92v85h26c24.667 0 43.167 6.83301 55.5 20.5
s18.5 31.5 18.5 53.5v78h86z" />
    <glyph glyph-name="u" unicode="u" horiz-adv-x="566" 
d="M397 58c-12.667 -24 -31.998 -42.166 -57.998 -54.499s-54 -18.5 -84 -18.5c-54.667 0 -98.334 18.167 -131.001 54.5s-49 82.5 -49 138.5v303h94v-289c0 -36 8.83301 -65.667 26.5 -89s45.167 -35 82.5 -35s65.666 11.167 84.999 33.5s29 52.166 29 89.499v290h94v-392
c0 -31.333 1.66699 -61 5 -89h-90c-2.66699 14.667 -4 34 -4 58z" />
    <glyph glyph-name="v" unicode="v" horiz-adv-x="502" 
d="M492 481l-192 -481h-95l-195 481h106l137 -371l138 371h101z" />
    <glyph glyph-name="w" unicode="w" horiz-adv-x="793" 
d="M351 481h97l125 -362l106 362h99l-156 -481h-97l-128 366l-125 -366h-99l-158 481h103l108 -362z" />
    <glyph glyph-name="x" unicode="x" horiz-adv-x="491" 
d="M10 0l179 245l-173 236h114l118 -169l116 169h111l-171 -236c10 -12.667 39.667 -53.5 89 -122.5l88 -122.5h-113l-124 177l-122 -177h-112z" />
    <glyph glyph-name="y" unicode="y" horiz-adv-x="523" 
d="M200 -201h-103l120 254l-207 428h108l150 -332l144 332h101z" />
    <glyph glyph-name="z" unicode="z" horiz-adv-x="466" 
d="M426 0h-386v82l264 314h-260v85h377v-82l-264 -314h269v-85z" />
    <glyph glyph-name="braceleft" unicode="{" horiz-adv-x="353" 
d="M45 275v85.9961c32 0 58.333 8.16699 79 24.5s31 41.833 31 76.5v137c0 124 60 186 180 186h13v-75h-13c-36 0 -61.333 -8.16699 -76 -24.5s-22 -43.166 -22 -80.499v-164c0 -33.333 -9.16699 -60.666 -27.5 -81.999s-43.833 -35 -76.5 -41
c32.667 -6 58.167 -19.667 76.5 -41s27.5 -48.666 27.5 -81.999v-163c0 -37.333 7.33301 -64.166 22 -80.499s40 -24.5 76 -24.5h13v-75h-13c-120 0 -180 62 -180 186v136c0 34.667 -10.333 60.167 -31 76.5s-47 24.5 -79 24.5z" />
    <glyph glyph-name="bar" unicode="|" horiz-adv-x="262" 
d="M172 -148h-82v933h82v-933z" />
    <glyph glyph-name="braceright" unicode="}" horiz-adv-x="353" 
d="M308 361v-85.9961c-32 0 -58.333 -8.16699 -79 -24.5s-31 -41.833 -31 -76.5v-136c0 -124 -60 -186 -180 -186h-13v75h13c36 0 61.333 8.16699 76 24.5s22 43.166 22 80.499v163c0 33.333 9.16699 60.666 27.5 81.999s43.833 35 76.5 41
c-32.667 6 -58.167 19.667 -76.5 41s-27.5 48.666 -27.5 81.999v164c0 37.333 -7.33301 64.166 -22 80.499s-40 24.5 -76 24.5h-13v75h13c120 0 180 -62 180 -186v-137c0 -34.667 10.333 -60.167 31 -76.5s47 -24.5 79 -24.5z" />
    <glyph glyph-name="asciitilde" unicode="~" horiz-adv-x="570" 
d="M288 239l-46.0029 25c-18.667 10 -36.667 15 -54 15c-36 0 -68 -19 -96 -57l-57 46c38.667 63.333 89.334 95 152.001 95c32.667 0 64.334 -8.66699 95.001 -26l46 -25c18.667 -10.667 37.667 -16 57 -16c38.667 0 69.667 18.333 93 55l57 -46
c-37.333 -62 -87.333 -93 -150 -93c-31.333 0 -63.666 9 -96.999 27z" />
    <glyph glyph-name="uni00A0" unicode="&#xa0;" horiz-adv-x="250" 
 />
    <glyph glyph-name="exclamdown" unicode="&#xa1;" horiz-adv-x="277" 
d="M172 288l25 -505h-118l26 505h67zM73 430c0 18 6.33301 33.5 19 46.5s28 19.5 46 19.5s33.5 -6.5 46.5 -19.5s19.5 -28.5 19.5 -46.5s-6.5 -33.333 -19.5 -46s-28.5 -19 -46.5 -19s-33.333 6.33301 -46 19s-19 28 -19 46z" />
    <glyph glyph-name="cent" unicode="&#xa2;" horiz-adv-x="542" 
d="M315 0l-76.001 -0.00195312v94c-56 10 -101.5 36.667 -136.5 80s-52.5 94.666 -52.5 153.999c0 60.667 17.5 112.167 52.5 154.5s80.5 68.5 136.5 78.5v88h76v-86c47.333 -5.33301 85.5 -21.166 114.5 -47.499s48.5 -57.166 58.5 -92.499l-81 -33
c-6 21.333 -16.5 40.5 -31.5 57.5s-35.167 28.167 -60.5 33.5v-307c50 10 82.333 39.667 97 89l80 -33c-11.333 -34 -32.166 -64.167 -62.499 -90.5s-68.5 -42.166 -114.5 -47.499v-92zM142.999 327.998c0 -38.667 8.83301 -70.999 26.5 -96.999s40.834 -43.667 69.501 -53
v299c-28.667 -9.33301 -51.834 -26.833 -69.501 -52.5s-26.5 -57.834 -26.5 -96.501z" />
    <glyph glyph-name="sterling" unicode="&#xa3;" horiz-adv-x="593" 
d="M71 359l70 0.000976562c-20 45.333 -30 84.666 -30 117.999c0 53.333 19 97.666 57 132.999s85 53 141 53c70 0 121.167 -17.667 153.5 -53s49.833 -77 52.5 -125l-98 -17c-0.666992 36 -10.5 63.167 -29.5 81.5s-44.5 27.5 -76.5 27.5c-28 0 -52 -8.83301 -72 -26.5
s-30 -42.167 -30 -73.5c0 -28 11 -67.333 33 -118h194v-86h-168c1.33301 -12 2 -21 2 -27c0 -34.667 -8.33301 -66 -25 -94s-40 -49.667 -70 -65h203c32 0 56 10.167 72 30.5s24 45.5 24 75.5l94 -14c0 -52.667 -14.833 -95.667 -44.5 -129s-70.167 -50 -121.5 -50h-337v95
c33.333 14 60 33.833 80 59.5s30 52.5 30 80.5c0 14.667 -1.33301 27.334 -4 38.001h-100v86z" />
    <glyph glyph-name="currency" unicode="&#xa4;" horiz-adv-x="582" 
d="M82 239c0 44 12.334 84.333 37.001 121l-75 77l60 59l75 -78c36 23.333 74.667 35 116 35c40 0 77 -10.333 111 -31l72 74l60 -59l-70 -73c27.333 -38 41 -79.667 41 -125c0 -46.667 -13.333 -87.667 -40 -123l69 -71l-59 -59l-70 72c-34.667 -22 -72.667 -33 -114 -33
c-42.667 0 -82.334 12.333 -119.001 37l-73 -76l-59 59l73 76c-23.333 36 -35 75.333 -35 118zM165.001 239c0 -38.667 12.5 -70.334 37.5 -95.001s55.833 -37 92.5 -37s67.167 12.333 91.5 37s36.5 56.334 36.5 95.001c0 38 -12.167 69.333 -36.5 94s-54.833 37 -91.5 37
s-67.5 -12.333 -92.5 -37s-37.5 -56 -37.5 -94z" />
    <glyph glyph-name="yen" unicode="&#xa5;" horiz-adv-x="582" 
d="M513 155h-168v-155h-97v155h-169v72h169v80h-169v71h117l-171 270h114l157 -261l149 261h112l-163 -270h119v-71h-168v-80h168v-72z" />
    <glyph glyph-name="brokenbar" unicode="&#xa6;" horiz-adv-x="262" 
d="M90 785h82v-399h-82v399zM90 251h82v-399h-82v399z" />
    <glyph glyph-name="section" unicode="&#xa7;" horiz-adv-x="573" 
d="M484 239c0 -28 -8.66699 -53.5 -26 -76.5s-36.666 -39.167 -57.999 -48.5c27.333 -17.333 48.833 -39 64.5 -65s23.5 -52.667 23.5 -80c0 -54.667 -20 -99 -60 -133s-88.333 -51 -145 -51c-62.667 0 -110.834 16.833 -144.501 50.5s-51.167 78.834 -52.5 135.501l89 18
c0 -38 9.33301 -68.333 28 -91s46 -34 82 -34c32 0 57.667 8.33301 77 25s29 40 29 70c0 37.333 -19.667 66.333 -59 87l-104 54c-44.667 23.333 -79 47.5 -103 72.5s-36 57.833 -36 98.5c0 28.667 8.83301 54.5 26.5 77.5s37.167 38.5 58.5 46.5
c-28 17.333 -49.833 39 -65.5 65s-23.5 53 -23.5 81c0 54 20 98 60 132s88.333 51 145 51c62 0 110.333 -17.5 145 -52.5s52 -79.167 52 -132.5l-90 -18c0 38 -9.33301 68.167 -28 90.5s-45.667 33.5 -81 33.5c-31.333 0 -57 -8.66699 -77 -26s-30 -40.333 -30 -69
c0 -36.667 20 -65.334 60 -86.001l103 -54c45.333 -24 80 -48.5 104 -73.5s36 -57.5 36 -97.5zM328 312l-99.999 53.998c-12.667 -5.33301 -23.834 -15.666 -33.501 -30.999s-14.5 -31.666 -14.5 -48.999c0 -36.667 21.333 -66 64 -88l100 -54c12 5.33301 23 15.5 33 30.5
s15 31.5 15 49.5c0 36.667 -21.333 66 -64 88z" />
    <glyph glyph-name="dieresis" unicode="&#xa8;" horiz-adv-x="379" 
d="M38 621c0 16 5.5 29.667 16.5 41s24.5 17 40.5 17c16.667 0 30.667 -5.66699 42 -17s17 -25 17 -41c0 -16.667 -5.66699 -30.5 -17 -41.5s-25.333 -16.5 -42 -16.5c-16 0 -29.5 5.5 -40.5 16.5s-16.5 24.833 -16.5 41.5zM225 621c0 16 5.5 29.667 16.5 41
s24.833 17 41.5 17c16 0 29.667 -5.66699 41 -17s17 -25 17 -41c0 -16.667 -5.66699 -30.5 -17 -41.5s-25 -16.5 -41 -16.5c-16.667 0 -30.5 5.5 -41.5 16.5s-16.5 24.833 -16.5 41.5z" />
    <glyph glyph-name="copyright" unicode="&#xa9;" horiz-adv-x="821" 
d="M123 355c0 -84 27.667 -154.5 83 -211.5s123 -85.5 203 -85.5s147.667 28.5 203 85.5s83 127.5 83 211.5s-27.667 154.333 -83 211s-123 85 -203 85s-147.667 -28.333 -203 -85s-83 -127 -83 -211zM45 355c0 102 35.5 188.999 106.5 260.999s156.833 108 257.5 108
c101.333 0 187.833 -36.167 259.5 -108.5s107.5 -159.166 107.5 -260.499c0 -102 -35.833 -189.167 -107.5 -261.5s-158.167 -108.5 -259.5 -108.5c-100.667 0 -186.5 36.167 -257.5 108.5s-106.5 159.5 -106.5 261.5zM411 493.999
c-33.333 0 -61.499 -12.001 -84.499 -36.001s-34.5 -57.667 -34.5 -101s11.5 -77.166 34.5 -101.499s51.5 -36.5 85.5 -36.5c56.667 0 93 27 109 81l68 -30c-11.333 -32.667 -32 -61.167 -62 -85.5s-68.333 -36.5 -115 -36.5c-56.667 0 -103.834 20 -141.501 60
s-56.5 89.667 -56.5 149c0 60.667 18.667 110.5 56 149.5s84.333 58.5 141 58.5c48 0 86.833 -12.333 116.5 -37s49.167 -54 58.5 -88l-70 -29c-5.33301 22.667 -16.5 42.167 -33.5 58.5s-40.833 24.5 -71.5 24.5z" />
    <glyph glyph-name="ordfeminine" unicode="&#xaa;" horiz-adv-x="428" 
d="M66 401c0 28.667 9.66699 52.001 29 70.001s44 29 74 33l88 12c17.333 2.66699 26 11 26 25c0 16 -5.66699 29.333 -17 40s-28.333 16 -51 16c-21.333 0 -38.333 -6 -51 -18s-20 -27.667 -22 -47l-69 16c3.33301 31.333 17.833 57.666 43.5 78.999s58.167 32 97.5 32
c48.667 0 84.667 -11.833 108 -35.5s35 -53.834 35 -90.501v-169c0 -26 1.33301 -44.333 4 -55h-71c-2.66699 10.667 -4 25.334 -4 44.001c-21.333 -36 -56.333 -54 -105 -54c-34.667 0 -62.5 10 -83.5 30s-31.5 44 -31.5 72zM193 359.001c60 0 90 31.001 90 93.001v15
l-95 -15c-31.333 -4.66699 -47 -20.334 -47 -47.001c0 -12.667 4.66699 -23.5 14 -32.5s22 -13.5 38 -13.5z" />
    <glyph glyph-name="guillemotleft" unicode="&#xab;" horiz-adv-x="471" 
d="M256 99h-93l-133 191l133 191h93l-131 -191zM451 99h-93l-133 191l133 191h93l-131 -191z" />
    <glyph glyph-name="logicalnot" unicode="&#xac;" horiz-adv-x="573" 
d="M508 149h-84v195h-379v82h463v-277z" />
    <glyph glyph-name="uni00AD" unicode="&#xad;" horiz-adv-x="361" 
d="M316 246h-271v82h271v-82z" />
    <glyph glyph-name="registered" unicode="&#xae;" horiz-adv-x="821" 
d="M45 355c0 102 35.5 188.999 106.5 260.999s156.833 108 257.5 108c101.333 0 187.833 -36.167 259.5 -108.5s107.5 -159.166 107.5 -260.499c0 -102 -35.833 -189.167 -107.5 -261.5s-158.167 -108.5 -259.5 -108.5c-100.667 0 -186.5 36.167 -257.5 108.5
s-106.5 159.5 -106.5 261.5zM123 354.999c0 -84 27.667 -154.5 83 -211.5s123 -85.5 203 -85.5s147.667 28.5 203 85.5s83 127.5 83 211.5s-27.667 154.333 -83 211s-123 85 -203 85s-147.667 -28.333 -203 -85s-83 -127 -83 -211zM363 372.999h52
c22.667 0 40 5.16699 52 15.5s18 24.833 18 43.5c0 40.667 -23.333 61 -70 61h-52v-120zM363 306.999v-150.001h-76v402h139c38.667 0 71 -12.167 97 -36.5s39 -54.166 39 -89.499c0 -28 -8.16699 -52.667 -24.5 -74s-37.5 -36.333 -63.5 -45l90 -157h-87l-84 150h-30z" />
    <glyph glyph-name="macron" unicode="&#xaf;" horiz-adv-x="343" 
d="M308 577h-273v81h273v-81z" />
    <glyph glyph-name="degree" unicode="&#xb0;" horiz-adv-x="371" 
d="M108 502c0 -22.667 7.33301 -41.5 22 -56.5s33 -22.5 55 -22.5s40.333 7.5 55 22.5s22 33.833 22 56.5s-7.33301 41.334 -22 56.001s-33 22 -55 22s-40.333 -7.33301 -55 -22s-22 -33.334 -22 -56.001zM25 502c0 43.333 15.833 80.333 47.5 111s69.167 46 112.5 46
s81 -15.333 113 -46s48 -67.667 48 -111c0 -44 -16 -81.333 -48 -112s-69.667 -46 -113 -46s-80.833 15.333 -112.5 46s-47.5 68 -47.5 112z" />
    <glyph glyph-name="plusminus" unicode="&#xb1;" horiz-adv-x="567" 
d="M65 386h177v136h82v-136h178v-77h-178v-134h-82v134h-177v77zM65 130h437v-79h-437v79z" />
    <glyph glyph-name="twosuperior" unicode="&#xb2;" horiz-adv-x="389" 
d="M141 568l-74 -0.000976562c-2 10 -3 20.333 -3 31c0 32.667 12 60.334 36 83.001s56 34 96 34c39.333 0 71 -11.167 95 -33.5s36 -49.5 36 -81.5c0 -44 -23.333 -80.667 -70 -110l-72 -45c-18 -12 -28.333 -24.333 -31 -37h175v-65h-268v13c0 62 28.333 110.333 85 145
l60 37c28.667 17.333 43 38.333 43 63c0 14 -4.83301 25.833 -14.5 35.5s-22.834 14.5 -39.501 14.5c-17.333 0 -31.166 -5.33301 -41.499 -16s-15.5 -24.667 -15.5 -42c0 -8 1 -16.667 3 -26z" />
    <glyph glyph-name="threesuperior" unicode="&#xb3;" horiz-adv-x="412" 
d="M178 509l-29.001 56l95 79h-171v65h271v-63l-100 -80c30.667 -2.66699 56.334 -13.5 77.001 -32.5s31 -44.5 31 -76.5c0 -34 -13.5 -62.667 -40.5 -86s-61.833 -35 -104.5 -35c-40.667 0 -73.667 10 -99 30s-41.333 44.333 -48 73l67 27
c3.33301 -19.333 12.166 -34.833 26.499 -46.5s31.833 -17.5 52.5 -17.5c20 0 36.333 5.16699 49 15.5s19 23.5 19 39.5c0 19.333 -6.66699 33.5 -20 42.5s-29.333 13.5 -48 13.5c-9.33301 0 -18.666 -1.33301 -27.999 -4z" />
    <glyph glyph-name="acute" unicode="&#xb4;" horiz-adv-x="274" 
d="M240 689l-126 -146h-79l87 146h118z" />
    <glyph glyph-name="mu" unicode="&#xb5;" horiz-adv-x="571" 
d="M402 58c-12.667 -24 -31.998 -42.166 -57.998 -54.499s-54 -18.5 -84 -18.5c-30.667 0 -59.334 6.66699 -86.001 20v-195h-94v671h94v-289c0 -36 8.83301 -65.667 26.5 -89s45.167 -35 82.5 -35s65.666 11.167 84.999 33.5s29 52.166 29 89.499v290h94v-392
c0 -38 1.66699 -67.667 5 -89h-90c-2.66699 14.667 -4 34 -4 58z" />
    <glyph glyph-name="paragraph" unicode="&#xb6;" horiz-adv-x="626" 
d="M328 628v-829h-83v522h-16c-52.667 0 -98.167 18.333 -136.5 55s-57.5 81.667 -57.5 135c0 62 21.5 110.5 64.5 145.5s96.833 52.5 161.5 52.5h340v-81h-97v-829h-83v829h-93z" />
    <glyph glyph-name="periodcentered" unicode="&#xb7;" horiz-adv-x="279" 
d="M70 284c0 19.333 6.66699 35.833 20 49.5s29.666 20.5 48.999 20.5s35.833 -6.83301 49.5 -20.5s20.5 -30.167 20.5 -49.5s-6.83301 -35.666 -20.5 -48.999s-30.167 -20 -49.5 -20s-35.666 6.66699 -48.999 20s-20 29.666 -20 48.999z" />
    <glyph glyph-name="cedilla" unicode="&#xb8;" horiz-adv-x="294" 
d="M115 -101l-32.999 38.998l48 76h71l-39 -60c28.667 0 52 -7.5 70 -22.5s27 -34.833 27 -59.5c0 -25.333 -10 -46.666 -30 -63.999s-49 -26 -87 -26c-48 0 -84.667 15.333 -110 46l37 45c20.667 -22.667 44.667 -34 72 -34c13.333 0 24.5 2.83301 33.5 8.5
s13.5 13.834 13.5 24.501c0 9.33301 -4 17 -12 23s-18.667 9 -32 9c-10.667 0 -20.334 -1.66699 -29.001 -5z" />
    <glyph glyph-name="onesuperior" unicode="&#xb9;" horiz-adv-x="293" 
d="M213 344h-77v245h-86v52c24 0.666992 44.5 7.5 61.5 20.5s27.167 28.833 30.5 47.5h71v-365z" />
    <glyph glyph-name="ordmasculine" unicode="&#xba;" horiz-adv-x="484" 
d="M242 366c27.333 0 50.667 10 70 30s29 47.667 29 83s-9.5 62.833 -28.5 82.5s-42.5 29.5 -70.5 29.5s-51.667 -9.83301 -71 -29.5s-29 -47.167 -29 -82.5s9.66699 -63 29 -83s43 -30 71 -30zM242.001 659c50.667 0 92.5 -17 125.5 -51s49.5 -77 49.5 -129
s-16.5 -95 -49.5 -129s-74.833 -51 -125.5 -51s-92.5 17 -125.5 51s-49.5 77 -49.5 129s16.5 95 49.5 129s74.833 51 125.5 51z" />
    <glyph glyph-name="guillemotright" unicode="&#xbb;" horiz-adv-x="471" 
d="M308 99h-93l131 191l-131 191h93l133 -191zM113 99h-93l131 191l-131 191h93l133 -191z" />
    <glyph glyph-name="onequarter" unicode="&#xbc;" horiz-adv-x="780" 
d="M218 283h-77v245h-86v52c24 0.666992 44.5 7.5 61.5 20.5s27.167 28.833 30.5 47.5h71v-365zM173 0h-92l466 648h90zM404 72v73l177 220h85v-228h64v-65h-64v-72h-77v72h-185zM589 137v139l-111 -139h111z" />
    <glyph glyph-name="onehalf" unicode="&#xbd;" horiz-adv-x="779" 
d="M172 0h-92l466 648h90zM218 283h-77v245h-86v52c24 0.666992 44.5 7.5 61.5 20.5s27.167 28.833 30.5 47.5h71v-365zM543 224l-74 -0.000976562c-2 10 -3 20.333 -3 31c0 32.667 12 60.334 36 83.001s56 34 96 34c39.333 0 71 -11.167 95 -33.5s36 -49.5 36 -81.5
c0 -44 -23.333 -80.667 -70 -110l-72 -45c-18 -12 -28.333 -24.333 -31 -37h175v-65h-268v13c0 62 28.333 110.333 85 145l60 37c28.667 17.333 43 38.333 43 63c0 14 -4.83301 25.833 -14.5 35.5s-22.834 14.5 -39.501 14.5c-17.333 0 -31.166 -5.33301 -41.499 -16
s-15.5 -24.667 -15.5 -42c0 -8 1 -16.667 3 -26z" />
    <glyph glyph-name="threequarters" unicode="&#xbe;" horiz-adv-x="850" 
d="M261 0h-92l466 648h90zM173 448l-29.001 56l95 79h-171v65h271v-63l-100 -80c30.667 -2.66699 56.334 -13.5 77.001 -32.5s31 -44.5 31 -76.5c0 -34 -13.5 -62.667 -40.5 -86s-61.833 -35 -104.5 -35c-40.667 0 -73.667 10 -99 30s-41.333 44.333 -48 73l67 27
c3.33301 -19.333 12.166 -34.833 26.499 -46.5s31.833 -17.5 52.5 -17.5c20 0 36.333 5.16699 49 15.5s19 23.5 19 39.5c0 19.333 -6.66699 33.5 -20 42.5s-29.333 13.5 -48 13.5c-9.33301 0 -18.666 -1.33301 -27.999 -4zM473.999 72v73l177 220h85v-228h64v-65h-64v-72
h-77v72h-185zM658.999 137v139l-111 -139h111z" />
    <glyph glyph-name="questiondown" unicode="&#xbf;" horiz-adv-x="510" 
d="M211 289h88.0029c0.666992 -8 1 -19.667 1 -35c0 -66.667 -27.667 -118.667 -83 -156l-44 -30c-35.333 -24 -53 -56.667 -53 -98c0 -32 10.333 -59 31 -81s50 -33 88 -33c40.667 0 71.667 12.667 93 38s32 55.333 32 90c0 20 -2.33301 36.333 -7 49l97 -12
c4 -14 6 -30 6 -48c0 -32.667 -7.33301 -64 -22 -94s-39.334 -56 -74.001 -78s-76.334 -33 -125.001 -33c-66.667 0 -119.834 20 -159.501 60s-59.5 87 -59.5 141c0 70 34 128 102 174l46 31c29.333 20 44 52 44 96c0 8 -0.333008 14.333 -1 19zM320.003 431
c0 -18 -6.33301 -33.5 -19 -46.5s-28 -19.5 -46 -19.5s-33.5 6.5 -46.5 19.5s-19.5 28.5 -19.5 46.5s6.5 33.333 19.5 46s28.5 19 46.5 19s33.333 -6.33301 46 -19s19 -28 19 -46z" />
    <glyph glyph-name="Agrave" unicode="&#xc0;" horiz-adv-x="697" 
d="M581 0l-77 198h-314l-75 -198h-105l282 709h113l282 -709h-106zM346 607l-121 -318h244zM301 759l-138 119h129l102 -119h-93z" />
    <glyph glyph-name="Aacute" unicode="&#xc1;" horiz-adv-x="697" 
d="M581 0l-77 198h-314l-75 -198h-105l282 709h113l282 -709h-106zM346 607l-121 -318h244zM531 878l-137 -119h-94l101 119h130z" />
    <glyph glyph-name="Acircumflex" unicode="&#xc2;" horiz-adv-x="697" 
d="M581 0l-77 198h-314l-75 -198h-105l282 709h113l282 -709h-106zM346 607l-121 -318h244zM263 759h-91l112 119h120l117 -119h-92l-85 64z" />
    <glyph glyph-name="Atilde" unicode="&#xc3;" horiz-adv-x="697" 
d="M581 0l-77 198h-314l-75 -198h-105l282 709h113l282 -709h-106zM346 607l-121 -318h244zM506 881v-16c0 -36 -8.83301 -63.5 -26.5 -82.5s-40.834 -28.5 -69.501 -28.5c-25.333 0 -49 7.66699 -71 23l-15 10c-15.333 9.33301 -27.666 14 -36.999 14
c-23.333 0 -35 -14.667 -35 -44h-68v16c0 36 9 63.5 27 82.5s41.333 28.5 70 28.5c23.333 0 47.666 -7.66699 72.999 -23l15 -9c16.667 -9.33301 29.334 -14 38.001 -14c21.333 0 32 11.667 32 35v8h67z" />
    <glyph glyph-name="Adieresis" unicode="&#xc4;" horiz-adv-x="697" 
d="M142 819c0 16.667 5.66699 30.667 17 42s25.333 17 42 17s30.667 -5.66699 42 -17s17 -25.333 17 -42s-5.66699 -30.667 -17 -42s-25.333 -17 -42 -17s-30.667 5.66699 -42 17s-17 25.333 -17 42zM433 819c0 16.667 5.66699 30.667 17 42s25.333 17 42 17
s30.667 -5.66699 42 -17s17 -25.333 17 -42s-5.66699 -30.667 -17 -42s-25.333 -17 -42 -17s-30.667 5.66699 -42 17s-17 25.333 -17 42zM581 0l-77 198h-314l-75 -198h-105l282 709h113l282 -709h-106zM346 607l-121 -318h244z" />
    <glyph glyph-name="Aring" unicode="&#xc5;" horiz-adv-x="697" 
d="M346 607l-121 -318h244zM397 760c0 14 -5.16699 26.167 -15.5 36.5s-22.833 15.5 -37.5 15.5c-14 0 -25.833 -5.16699 -35.5 -15.5s-14.5 -22.5 -14.5 -36.5c0 -14.667 4.83301 -26.834 14.5 -36.501s21.5 -14.5 35.5 -14.5c15.333 0 28 4.83301 38 14.5
s15 21.834 15 36.501zM469 760c0 -38 -15.667 -69.333 -47 -94l265 -666h-106l-77 198h-314l-75 -198h-105l264 664c-33.333 24.667 -50 56.667 -50 96c0 33.333 12.167 61.833 36.5 85.5s52.833 35.5 85.5 35.5c34 0 63 -11.667 87 -35s36 -52 36 -86z" />
    <glyph glyph-name="AE" unicode="&#xc6;" horiz-adv-x="1026" 
d="M966 0h-431v196h-278l-126 -196h-126l472 709h489v-91h-333v-218h302v-92h-302v-217h333v-91zM313 284h222v344z" />
    <glyph glyph-name="Ccedilla" unicode="&#xc7;" horiz-adv-x="750" 
d="M371 -101l-32.999 38.9971l30 48c-90.667 6.66699 -167.167 43 -229.5 109s-93.5 152.667 -93.5 260c0 76 17.333 142.667 52 200s78.334 99.833 131.001 127.5s109 41.5 169 41.5c80 0 147.5 -20.167 202.5 -60.5s91.5 -95.166 109.5 -164.499l-91 -32
c-13.333 53.333 -39 94.5 -77 123.5s-86 43.5 -144 43.5c-69.333 0 -128.666 -24.5 -177.999 -73.5s-74 -117.5 -74 -205.5s24.667 -156.667 74 -206s108.666 -74 177.999 -74c56.667 0 104.667 15.667 144 47s66.666 72.333 81.999 123l87 -32
c-18 -62 -50.833 -113.333 -98.5 -154s-105.167 -64.667 -172.5 -72l-21 -33c28.667 0 52 -7.5 70 -22.5s27 -34.833 27 -59.5c0 -25.333 -10 -46.666 -30 -63.999s-49 -26 -87 -26c-48 0 -84.667 15.333 -110 46l37 45c20.667 -22.667 44.667 -34 72 -34
c13.333 0 24.5 2.83301 33.5 8.5s13.5 13.834 13.5 24.501c0 9.33301 -4 17 -12 23s-18.667 9 -32 9c-10.667 0 -20.334 -1.66699 -29.001 -5z" />
    <glyph glyph-name="Egrave" unicode="&#xc8;" horiz-adv-x="581" 
d="M521 0h-431v709h431v-91h-333v-218h302v-92h-302v-217h333v-91zM287 759l-138 119h129l102 -119h-93z" />
    <glyph glyph-name="Eacute" unicode="&#xc9;" horiz-adv-x="581" 
d="M521 0h-431v709h431v-91h-333v-218h302v-92h-302v-217h333v-91zM465 878l-137 -119h-94l101 119h130z" />
    <glyph glyph-name="Ecircumflex" unicode="&#xca;" horiz-adv-x="581" 
d="M521 0h-431v709h431v-91h-333v-218h302v-92h-302v-217h333v-91zM222 759h-91l112 119h120l117 -119h-92l-85 64z" />
    <glyph glyph-name="Edieresis" unicode="&#xcb;" horiz-adv-x="581" 
d="M133 819c0 16.667 5.66699 30.667 17 42s25.333 17 42 17s30.667 -5.66699 42 -17s17 -25.333 17 -42s-5.66699 -30.667 -17 -42s-25.333 -17 -42 -17s-30.667 5.66699 -42 17s-17 25.333 -17 42zM364 819c0 16.667 5.66699 30.667 17 42s25.333 17 42 17
s30.667 -5.66699 42 -17s17 -25.333 17 -42s-5.66699 -30.667 -17 -42s-25.333 -17 -42 -17s-30.667 5.66699 -42 17s-17 25.333 -17 42zM521 0h-431v709h431v-91h-333v-218h302v-92h-302v-217h333v-91z" />
    <glyph glyph-name="Igrave" unicode="&#xcc;" horiz-adv-x="280" 
d="M190 0h-100v709h100v-709zM93 759l-138 119h129l102 -119h-93z" />
    <glyph glyph-name="Iacute" unicode="&#xcd;" horiz-adv-x="280" 
d="M190 0h-100v709h100v-709zM325 878l-137 -119h-94l101 119h130z" />
    <glyph glyph-name="Icircumflex" unicode="&#xce;" horiz-adv-x="280" 
d="M190 0h-100v709h100v-709zM63 759h-91l112 119h120l117 -119h-92l-85 64z" />
    <glyph glyph-name="Idieresis" unicode="&#xcf;" horiz-adv-x="280" 
d="M11 819c0 15.333 5.16895 28 15.502 38s22.833 15 37.5 15c15.333 0 28.166 -5.16699 38.499 -15.5s15.5 -22.833 15.5 -37.5c0 -15.333 -5.33301 -28.166 -16 -38.499s-23.334 -15.5 -38.001 -15.5s-27.167 5.16699 -37.5 15.5s-15.5 23.166 -15.5 38.499zM164.002 819
c0 14.667 5.16895 27.167 15.502 37.5s23.166 15.5 38.499 15.5c14.667 0 27.167 -5 37.5 -15s15.5 -22.667 15.5 -38s-5.16699 -28.166 -15.5 -38.499s-22.833 -15.5 -37.5 -15.5s-27.334 5.16699 -38.001 15.5s-16 23.166 -16 38.499zM190.004 0h-100v709h100v-709z" />
    <glyph glyph-name="Eth" unicode="&#xd0;" horiz-adv-x="724" 
d="M340 0h-246.001v325h-76v82h76v302h248c95.333 0 175.333 -31.5 240 -94.5s97 -150.167 97 -261.5c0 -110.667 -32.667 -197.167 -98 -259.5s-145.666 -93.5 -240.999 -93.5zM191.999 87h145c69.333 0 126.833 23 172.5 69s68.5 111.667 68.5 197
c0 86 -22.5 152.333 -67.5 199s-102.167 70 -171.5 70h-147v-215h122v-82h-122v-238z" />
    <glyph glyph-name="Ntilde" unicode="&#xd1;" horiz-adv-x="763" 
d="M673 0h-102l-383 578v-578h-98v709h131l354 -544v544h98v-709zM543 881l0.000976562 -16c0 -36 -8.83301 -63.5 -26.5 -82.5s-40.834 -28.5 -69.501 -28.5c-25.333 0 -49 7.66699 -71 23l-15 10c-15.333 9.33301 -27.666 14 -36.999 14c-23.333 0 -35 -14.667 -35 -44
h-68v16c0 36 9 63.5 27 82.5s41.333 28.5 70 28.5c23.333 0 47.666 -7.66699 72.999 -23l15 -9c16 -9.33301 28.667 -14 38 -14c21.333 0 32 11.667 32 35v8h67z" />
    <glyph glyph-name="Ograve" unicode="&#xd2;" horiz-adv-x="802" 
d="M145 355c0 -88 25 -156.667 75 -206s110.333 -74 181 -74s131 24.667 181 74s75 118 75 206s-25 156.5 -75 205.5s-110.333 73.5 -181 73.5s-131 -24.5 -181 -73.5s-75 -117.5 -75 -205.5zM45 355c0 57.333 10.167 109.666 30.5 156.999s47.333 86.166 81 116.499
s71.5 53.833 113.5 70.5s85.667 25 131 25s89 -8.33301 131 -25s79.833 -40.167 113.5 -70.5s60.667 -69.166 81 -116.499s30.5 -99.666 30.5 -156.999c0 -76 -17.5 -142.667 -52.5 -200s-79.167 -100 -132.5 -128s-110.333 -42 -171 -42s-117.667 14 -171 42
s-97.5 70.667 -132.5 128s-52.5 124 -52.5 200zM361 759l-138 119h129l102 -119h-93z" />
    <glyph glyph-name="Oacute" unicode="&#xd3;" horiz-adv-x="802" 
d="M145 355c0 -88 25 -156.667 75 -206s110.333 -74 181 -74s131 24.667 181 74s75 118 75 206s-25 156.5 -75 205.5s-110.333 73.5 -181 73.5s-131 -24.5 -181 -73.5s-75 -117.5 -75 -205.5zM45 355c0 57.333 10.167 109.666 30.5 156.999s47.333 86.166 81 116.499
s71.5 53.833 113.5 70.5s85.667 25 131 25s89 -8.33301 131 -25s79.833 -40.167 113.5 -70.5s60.667 -69.166 81 -116.499s30.5 -99.666 30.5 -156.999c0 -76 -17.5 -142.667 -52.5 -200s-79.167 -100 -132.5 -128s-110.333 -42 -171 -42s-117.667 14 -171 42
s-97.5 70.667 -132.5 128s-52.5 124 -52.5 200zM577 878l-137 -119h-94l101 119h130z" />
    <glyph glyph-name="Ocircumflex" unicode="&#xd4;" horiz-adv-x="802" 
d="M145 355c0 -88 25 -156.667 75 -206s110.333 -74 181 -74s131 24.667 181 74s75 118 75 206s-25 156.5 -75 205.5s-110.333 73.5 -181 73.5s-131 -24.5 -181 -73.5s-75 -117.5 -75 -205.5zM45 355c0 57.333 10.167 109.666 30.5 156.999s47.333 86.166 81 116.499
s71.5 53.833 113.5 70.5s85.667 25 131 25s89 -8.33301 131 -25s79.833 -40.167 113.5 -70.5s60.667 -69.166 81 -116.499s30.5 -99.666 30.5 -156.999c0 -76 -17.5 -142.667 -52.5 -200s-79.167 -100 -132.5 -128s-110.333 -42 -171 -42s-117.667 14 -171 42
s-97.5 70.667 -132.5 128s-52.5 124 -52.5 200zM318 759h-91l112 119h120l117 -119h-92l-85 64z" />
    <glyph glyph-name="Otilde" unicode="&#xd5;" horiz-adv-x="802" 
d="M145 355c0 -88 25 -156.667 75 -206s110.333 -74 181 -74s131 24.667 181 74s75 118 75 206s-25 156.5 -75 205.5s-110.333 73.5 -181 73.5s-131 -24.5 -181 -73.5s-75 -117.5 -75 -205.5zM45 355c0 57.333 10.167 109.666 30.5 156.999s47.333 86.166 81 116.499
s71.5 53.833 113.5 70.5s85.667 25 131 25s89 -8.33301 131 -25s79.833 -40.167 113.5 -70.5s60.667 -69.166 81 -116.499s30.5 -99.666 30.5 -156.999c0 -76 -17.5 -142.667 -52.5 -200s-79.167 -100 -132.5 -128s-110.333 -42 -171 -42s-117.667 14 -171 42
s-97.5 70.667 -132.5 128s-52.5 124 -52.5 200zM566 882l0.000976562 -16c0 -36 -8.83301 -63.5 -26.5 -82.5s-40.834 -28.5 -69.501 -28.5c-25.333 0 -49 7.66699 -71 23l-15 10c-15.333 9.33301 -27.666 14 -36.999 14c-23.333 0 -35 -14.667 -35 -44h-68v16
c0 36 9 63.5 27 82.5s41.333 28.5 70 28.5c23.333 0 47.666 -7.66699 72.999 -23l15 -9c16 -9.33301 28.667 -14 38 -14c21.333 0 32 11.667 32 35v8h67z" />
    <glyph glyph-name="Odieresis" unicode="&#xd6;" horiz-adv-x="802" 
d="M187 819c0 16.667 5.66699 30.667 17 42s25.333 17 42 17s30.667 -5.66699 42 -17s17 -25.333 17 -42s-5.66699 -30.667 -17 -42s-25.333 -17 -42 -17s-30.667 5.66699 -42 17s-17 25.333 -17 42zM498 819c0 16.667 5.66699 30.667 17 42s25.333 17 42 17
s30.667 -5.66699 42 -17s17 -25.333 17 -42s-5.66699 -30.667 -17 -42s-25.333 -17 -42 -17s-30.667 5.66699 -42 17s-17 25.333 -17 42zM145 355c0 -88 25 -156.667 75 -206s110.333 -74 181 -74s131 24.667 181 74s75 118 75 206s-25 156.5 -75 205.5
s-110.333 73.5 -181 73.5s-131 -24.5 -181 -73.5s-75 -117.5 -75 -205.5zM45 355c0 57.333 10.167 109.666 30.5 156.999s47.333 86.166 81 116.499s71.5 53.833 113.5 70.5s85.667 25 131 25s89 -8.33301 131 -25s79.833 -40.167 113.5 -70.5s60.667 -69.166 81 -116.499
s30.5 -99.666 30.5 -156.999c0 -76 -17.5 -142.667 -52.5 -200s-79.167 -100 -132.5 -128s-110.333 -42 -171 -42s-117.667 14 -171 42s-97.5 70.667 -132.5 128s-52.5 124 -52.5 200z" />
    <glyph glyph-name="multiply" unicode="&#xd7;" horiz-adv-x="530" 
d="M434 55l-170 175l-168 -174l-56 56l169 176l-168 174l57 57l167 -174l167 174l57 -56l-169 -175l170 -176z" />
    <glyph glyph-name="Oslash" unicode="&#xd8;" horiz-adv-x="802" 
d="M45 355c0 57.333 10.167 109.668 30.5 157.001s47.333 86.166 81 116.499s71.5 53.833 113.5 70.5s85.667 25 131 25c69.333 0 133 -18.333 191 -55l72 92l68 -52l-73 -94c65.333 -68.667 98 -155.334 98 -260.001c0 -76 -17.5 -142.667 -52.5 -200
s-79.167 -100 -132.5 -128s-110.333 -42 -171 -42c-68.667 0 -131.667 17.667 -189 53l-68 -89l-70 51l71 92c-66.667 68.667 -100 156.334 -100 263.001zM145 355.002c0 -76.667 19.667 -139.333 59 -188l332 429c-40.667 25.333 -85.667 38 -135 38
c-70.667 0 -131 -24.5 -181 -73.5s-75 -117.5 -75 -205.5zM657 355.003c0 72.667 -19 134 -57 184l-332 -429c38.667 -23.333 83 -35 133 -35c70.667 0 131 24.667 181 74s75 118 75 206z" />
    <glyph glyph-name="Ugrave" unicode="&#xd9;" horiz-adv-x="670" 
d="M335 -15c-74.667 0 -135.832 22.667 -183.499 68s-71.5 108.333 -71.5 189v467h97v-464c0 -54 13.833 -95.667 41.5 -125s66.5 -44 116.5 -44s88.667 14.667 116 44s41 71 41 125v464h98v-467c0 -80.667 -23.833 -143.667 -71.5 -189s-108.834 -68 -183.501 -68z
M311.002 759l-138 119h129l102 -119h-93z" />
    <glyph glyph-name="Uacute" unicode="&#xda;" horiz-adv-x="670" 
d="M335 -15c-74.667 0 -135.832 22.667 -183.499 68s-71.5 108.333 -71.5 189v467h97v-464c0 -54 13.833 -95.667 41.5 -125s66.5 -44 116.5 -44s88.667 14.667 116 44s41 71 41 125v464h98v-467c0 -80.667 -23.833 -143.667 -71.5 -189s-108.834 -68 -183.501 -68z
M494.002 878l-137 -119h-94l101 119h130z" />
    <glyph glyph-name="Ucircumflex" unicode="&#xdb;" horiz-adv-x="670" 
d="M335 -15c-74.667 0 -135.832 22.667 -183.499 68s-71.5 108.333 -71.5 189v467h97v-464c0 -54 13.833 -95.667 41.5 -125s66.5 -44 116.5 -44s88.667 14.667 116 44s41 71 41 125v464h98v-467c0 -80.667 -23.833 -143.667 -71.5 -189s-108.834 -68 -183.501 -68z
M252.002 759h-91l112 119h120l117 -119h-92l-85 64z" />
    <glyph glyph-name="Udieresis" unicode="&#xdc;" horiz-adv-x="670" 
d="M166 819c0 16.667 5.66699 30.667 17 42s25.333 17 42 17s30.667 -5.66699 42 -17s17 -25.333 17 -42s-5.66699 -30.667 -17 -42s-25.333 -17 -42 -17s-30.667 5.66699 -42 17s-17 25.333 -17 42zM387 819c0 16.667 5.66699 30.667 17 42s25.333 17 42 17
s30.667 -5.66699 42 -17s17 -25.333 17 -42s-5.66699 -30.667 -17 -42s-25.333 -17 -42 -17s-30.667 5.66699 -42 17s-17 25.333 -17 42zM335 -15c-74.667 0 -135.832 22.667 -183.499 68s-71.5 108.333 -71.5 189v467h97v-464c0 -54 13.833 -95.667 41.5 -125
s66.5 -44 116.5 -44s88.667 14.667 116 44s41 71 41 125v464h98v-467c0 -80.667 -23.833 -143.667 -71.5 -189s-108.834 -68 -183.501 -68z" />
    <glyph glyph-name="Yacute" unicode="&#xdd;" horiz-adv-x="618" 
d="M260 303l-250 406h118l184 -316l184 316h112l-250 -406v-303h-98v303zM467 878l-137 -119h-94l101 119h130z" />
    <glyph glyph-name="Thorn" unicode="&#xde;" horiz-adv-x="592" 
d="M188 244h144c42 0 75 10.667 99 32s36 50.333 36 87c0 38 -12 67.833 -36 89.5s-57 32.5 -99 32.5h-144v-241zM344 157h-156v-157h-98v709h98v-137h155c65.333 0 119 -19.667 161 -59s63 -89 63 -149s-20.833 -109.5 -62.5 -148.5s-95.167 -58.5 -160.5 -58.5z" />
    <glyph glyph-name="germandbls" unicode="&#xdf;" horiz-adv-x="567" 
d="M357 343c0 -12 3.50098 -21 10.501 -27s18.833 -13 35.5 -21l35 -17c30.667 -14.667 55.667 -34.667 75 -60s29 -54.666 29 -87.999c0 -37.333 -14.167 -70.833 -42.5 -100.5s-68.5 -44.5 -120.5 -44.5c-54.667 0 -95.667 14.833 -123 44.5s-41 61.834 -41 96.501l83 22
c0 -20.667 6.5 -40 19.5 -58s33.5 -27 61.5 -27c22 0 39.167 6.16699 51.5 18.5s18.5 25.833 18.5 40.5c0 32 -17.333 56.333 -52 73l-34 16c-14.667 6.66699 -26.834 13 -36.501 19s-20.5 14 -32.5 24s-21 22 -27 36s-9 30 -9 48c0 44.667 21 80.667 63 108l32 21
c38 24 57 52.333 57 85c0 25.333 -9.83301 46.5 -29.5 63.5s-46.5 25.5 -80.5 25.5c-36 0 -66 -13.333 -90 -40s-36 -64.334 -36 -113.001v-488h-94v493c0 71.333 20.833 127.666 62.5 168.999s94.167 62 157.5 62c60 0 109.167 -16.167 147.5 -48.5s57.5 -72.5 57.5 -120.5
c0 -62 -29.333 -111.333 -88 -148l-29 -18c-20.667 -12.667 -31 -28 -31 -46z" />
    <glyph glyph-name="agrave" unicode="&#xe0;" horiz-adv-x="523" 
d="M50 129c0 41.333 13.334 74.501 40.001 99.501s62 40.5 106 46.5l130 19c24.667 3.33301 37 15.333 37 36c0 25.333 -8.66699 46 -26 62s-43.333 24 -78 24c-32 0 -57.333 -8.83301 -76 -26.5s-29.667 -41.167 -33 -70.5l-90 21c4.66699 46 25.667 83.5 63 112.5
s82 43.5 134 43.5c68 0 118.333 -16.5 151 -49.5s49 -75.167 49 -126.5v-241c0 -28.667 2 -55 6 -79h-92c-3.33301 20 -5 41.667 -5 65c-13.333 -21.333 -32.833 -40 -58.5 -56s-57.834 -24 -96.501 -24c-47.333 0 -86 14.167 -116 42.5s-45 62.166 -45 101.499z
M224.001 64.001c42 0 75.668 11.333 101.001 34s38 58.667 38 108v22l-147 -22c-21.333 -3.33301 -38.333 -11 -51 -23s-19 -28.333 -19 -49c0 -18.667 7.16699 -35 21.5 -49s33.166 -21 56.499 -21zM235.002 543.001l-126 146h118l86 -146h-78z" />
    <glyph glyph-name="aacute" unicode="&#xe1;" horiz-adv-x="523" 
d="M50 129c0 41.333 13.334 74.501 40.001 99.501s62 40.5 106 46.5l130 19c24.667 3.33301 37 15.333 37 36c0 25.333 -8.66699 46 -26 62s-43.333 24 -78 24c-32 0 -57.333 -8.83301 -76 -26.5s-29.667 -41.167 -33 -70.5l-90 21c4.66699 46 25.667 83.5 63 112.5
s82 43.5 134 43.5c68 0 118.333 -16.5 151 -49.5s49 -75.167 49 -126.5v-241c0 -28.667 2 -55 6 -79h-92c-3.33301 20 -5 41.667 -5 65c-13.333 -21.333 -32.833 -40 -58.5 -56s-57.834 -24 -96.501 -24c-47.333 0 -86 14.167 -116 42.5s-45 62.166 -45 101.499z
M224.001 64.001c42 0 75.668 11.333 101.001 34s38 58.667 38 108v22l-147 -22c-21.333 -3.33301 -38.333 -11 -51 -23s-19 -28.333 -19 -49c0 -18.667 7.16699 -35 21.5 -49s33.166 -21 56.499 -21zM425.002 689.001l-126 -146h-79l87 146h118z" />
    <glyph glyph-name="acircumflex" unicode="&#xe2;" horiz-adv-x="523" 
d="M50 129c0 41.333 13.334 74.501 40.001 99.501s62 40.5 106 46.5l130 19c24.667 3.33301 37 15.333 37 36c0 25.333 -8.66699 46 -26 62s-43.333 24 -78 24c-32 0 -57.333 -8.83301 -76 -26.5s-29.667 -41.167 -33 -70.5l-90 21c4.66699 46 25.667 83.5 63 112.5
s82 43.5 134 43.5c68 0 118.333 -16.5 151 -49.5s49 -75.167 49 -126.5v-241c0 -28.667 2 -55 6 -79h-92c-3.33301 20 -5 41.667 -5 65c-13.333 -21.333 -32.833 -40 -58.5 -56s-57.834 -24 -96.501 -24c-47.333 0 -86 14.167 -116 42.5s-45 62.166 -45 101.499z
M224.001 64.001c42 0 75.668 11.333 101.001 34s38 58.667 38 108v22l-147 -22c-21.333 -3.33301 -38.333 -11 -51 -23s-19 -28.333 -19 -49c0 -18.667 7.16699 -35 21.5 -49s33.166 -21 56.499 -21zM195.002 545.001h-87l104 139h107l104 -139h-88l-70 81z" />
    <glyph glyph-name="atilde" unicode="&#xe3;" horiz-adv-x="523" 
d="M50 129c0 41.333 13.334 74.501 40.001 99.501s62 40.5 106 46.5l130 19c24.667 3.33301 37 15.333 37 36c0 25.333 -8.66699 46 -26 62s-43.333 24 -78 24c-32 0 -57.333 -8.83301 -76 -26.5s-29.667 -41.167 -33 -70.5l-90 21c4.66699 46 25.667 83.5 63 112.5
s82 43.5 134 43.5c68 0 118.333 -16.5 151 -49.5s49 -75.167 49 -126.5v-241c0 -28.667 2 -55 6 -79h-92c-3.33301 20 -5 41.667 -5 65c-13.333 -21.333 -32.833 -40 -58.5 -56s-57.834 -24 -96.501 -24c-47.333 0 -86 14.167 -116 42.5s-45 62.166 -45 101.499z
M224.001 64.001c42 0 75.668 11.333 101.001 34s38 58.667 38 108v22l-147 -22c-21.333 -3.33301 -38.333 -11 -51 -23s-19 -28.333 -19 -49c0 -18.667 7.16699 -35 21.5 -49s33.166 -21 56.499 -21zM422.002 677.001v-15c0 -35.333 -9 -62.333 -27 -81s-41.333 -28 -70 -28
c-20.667 0 -42.667 7.33301 -66 22l-14 9c-15.333 9.33301 -27.666 14 -36.999 14c-19.333 0 -29 -14.333 -29 -43h-72v15c0 35.333 9.16699 62.333 27.5 81s41.833 28 70.5 28c21.333 0 43.666 -7.33301 66.999 -22l14 -9c15.333 -9.33301 27.333 -14 36 -14
c19.333 0 29 14.333 29 43h71z" />
    <glyph glyph-name="adieresis" unicode="&#xe4;" horiz-adv-x="523" 
d="M50 129c0 41.333 13.334 74.501 40.001 99.501s62 40.5 106 46.5l130 19c24.667 3.33301 37 15.333 37 36c0 25.333 -8.66699 46 -26 62s-43.333 24 -78 24c-32 0 -57.333 -8.83301 -76 -26.5s-29.667 -41.167 -33 -70.5l-90 21c4.66699 46 25.667 83.5 63 112.5
s82 43.5 134 43.5c68 0 118.333 -16.5 151 -49.5s49 -75.167 49 -126.5v-241c0 -28.667 2 -55 6 -79h-92c-3.33301 20 -5 41.667 -5 65c-13.333 -21.333 -32.833 -40 -58.5 -56s-57.834 -24 -96.501 -24c-47.333 0 -86 14.167 -116 42.5s-45 62.166 -45 101.499z
M224.001 64.001c42 0 75.668 11.333 101.001 34s38 58.667 38 108v22l-147 -22c-21.333 -3.33301 -38.333 -11 -51 -23s-19 -28.333 -19 -49c0 -18.667 7.16699 -35 21.5 -49s33.166 -21 56.499 -21zM110.002 621.001c0 16 5.5 29.667 16.5 41s24.5 17 40.5 17
c16.667 0 30.667 -5.66699 42 -17s17 -25 17 -41c0 -16.667 -5.66699 -30.5 -17 -41.5s-25.333 -16.5 -42 -16.5c-16 0 -29.5 5.5 -40.5 16.5s-16.5 24.833 -16.5 41.5zM297.002 621.001c0 16 5.5 29.667 16.5 41s24.833 17 41.5 17c16 0 29.667 -5.66699 41 -17
s17 -25 17 -41c0 -16.667 -5.66699 -30.5 -17 -41.5s-25 -16.5 -41 -16.5c-16.667 0 -30.5 5.5 -41.5 16.5s-16.5 24.833 -16.5 41.5z" />
    <glyph glyph-name="aring" unicode="&#xe5;" horiz-adv-x="523" 
d="M50 129c0 41.333 13.334 74.501 40.001 99.501s62 40.5 106 46.5l130 19c24.667 3.33301 37 15.333 37 36c0 25.333 -8.66699 46 -26 62s-43.333 24 -78 24c-32 0 -57.333 -8.83301 -76 -26.5s-29.667 -41.167 -33 -70.5l-90 21c4.66699 46 25.667 83.5 63 112.5
s82 43.5 134 43.5c68 0 118.333 -16.5 151 -49.5s49 -75.167 49 -126.5v-241c0 -28.667 2 -55 6 -79h-92c-3.33301 20 -5 41.667 -5 65c-13.333 -21.333 -32.833 -40 -58.5 -56s-57.834 -24 -96.501 -24c-47.333 0 -86 14.167 -116 42.5s-45 62.166 -45 101.499z
M224.001 64.001c42 0 75.668 11.333 101.001 34s38 58.667 38 108v22l-147 -22c-21.333 -3.33301 -38.333 -11 -51 -23s-19 -28.333 -19 -49c0 -18.667 7.16699 -35 21.5 -49s33.166 -21 56.499 -21zM373.002 641.001c0 -30 -11 -55.667 -33 -77s-48.333 -32 -79 -32
c-30 0 -56 10.667 -78 32s-33 47 -33 77c0 30.667 11 56.667 33 78s48 32 78 32c30.667 0 57 -10.667 79 -32s33 -47.333 33 -78zM309.002 641.001c0 13.333 -4.66699 24.833 -14 34.5s-21 14.5 -35 14.5c-13.333 0 -24.5 -4.83301 -33.5 -14.5s-13.5 -21.167 -13.5 -34.5
s4.5 -24.666 13.5 -33.999s20.167 -14 33.5 -14c14 0 25.667 4.66699 35 14s14 20.666 14 33.999z" />
    <glyph glyph-name="ae" unicode="&#xe6;" horiz-adv-x="874" 
d="M749 165l81.9971 -28c-14 -44 -40.667 -80.333 -80 -109s-84.666 -43 -135.999 -43c-41.333 0 -79.5 9 -114.5 27s-63.5 43.667 -85.5 77c-38 -69.333 -102.333 -104 -193 -104c-52.667 0 -94.5 14 -125.5 42s-46.5 62 -46.5 102c0 41.333 13.333 74.5 40 99.5
s62 40.5 106 46.5l139 19c25.333 4 38 16 38 36c0 24.667 -9.66699 45.334 -29 62.001s-46.333 25 -81 25c-32.667 0 -59.167 -9 -79.5 -27s-32.166 -40.333 -35.499 -67l-88 17c4 46 26.5 83.5 67.5 112.5s86.167 43.5 135.5 43.5c79.333 0 136.333 -26.667 171 -80
c46 53.333 102.333 80 169 80c72.667 0 129.334 -22.833 170.001 -68.5s61 -106.834 61 -183.501c0 -13.333 -0.666992 -23.333 -2 -30h-362c0.666992 -42 15 -76.833 43 -104.5s62 -41.5 102 -41.5c68 0 112.667 32.333 134 97zM228.997 64
c38.667 0 72.333 11.501 101 34.501s43 58.5 43 106.5v23l-157 -22c-46.667 -6.66699 -70 -31.334 -70 -74.001c0 -18.667 7.5 -34.667 22.5 -48s35.167 -20 60.5 -20zM472.996 290.001l263 -0.000976562c-1.33301 36 -13.5 65.5 -36.5 88.5s-54.833 34.5 -95.5 34.5
c-37.333 0 -68 -12.167 -92 -36.5s-37 -53.166 -39 -86.499z" />
    <glyph glyph-name="ccedilla" unicode="&#xe7;" horiz-adv-x="530" 
d="M253 -102l-32.9951 39l32 50c-62 7.33301 -112.833 34.833 -152.5 82.5s-59.5 104.834 -59.5 171.501c0 73.333 23.167 134.166 69.5 182.499s103.833 72.5 172.5 72.5c58.667 0 106.167 -15 142.5 -45s60.166 -66 71.499 -108l-85 -36c-7.33301 28 -21.333 52 -42 72
s-49.667 30 -87 30c-40 0 -74.333 -15 -103 -45s-43 -71 -43 -123s14.167 -93.167 42.5 -123.5s63.166 -45.5 104.499 -45.5c38.667 0 68.834 10.167 90.501 30.5s36.167 43.166 43.5 68.499l83 -36c-12 -35.333 -32.833 -67 -62.5 -95s-67.834 -45.333 -114.501 -52
l-23 -35c28.667 0 52 -7.5 70 -22.5s27 -34.833 27 -59.5c0 -25.333 -9.83301 -46.333 -29.5 -63s-48.834 -25 -87.501 -25c-48.667 0 -85.334 14.667 -110.001 44l37 45c20.667 -22.667 44.667 -34 72 -34c13.333 0 24.5 2.83301 33.5 8.5s13.5 13.834 13.5 24.501
c0 9.33301 -4 17 -12 23s-18.667 9 -32 9c-10.667 0 -20.334 -1.66699 -29.001 -5z" />
    <glyph glyph-name="egrave" unicode="&#xe8;" horiz-adv-x="542" 
d="M141 290l263 -0.000976562c-1.33301 36 -13.333 65.5 -36 88.5s-54.667 34.5 -96 34.5c-37.333 0 -68 -12.167 -92 -36.5s-37 -53.166 -39 -86.499zM418 164.999l80.9971 -27.999c-14 -44.667 -40 -81.167 -78 -109.5s-84 -42.5 -138 -42.5
c-67.333 0 -124.5 23.167 -171.5 69.5s-70.5 108.833 -70.5 187.5c0 73.333 22.667 134 68 182s99.333 72 162 72c72.667 0 129.334 -22.833 170.001 -68.5s61 -106.834 61 -183.501c0 -12 -0.666992 -22 -2 -30h-362c0.666992 -42.667 14.834 -77.667 42.501 -105
s61.834 -41 102.501 -41c68.667 0 113.667 32.333 135 97zM249.997 543l-126 146h118l86 -146h-78z" />
    <glyph glyph-name="eacute" unicode="&#xe9;" horiz-adv-x="542" 
d="M141 290l263 -0.000976562c-1.33301 36 -13.333 65.5 -36 88.5s-54.667 34.5 -96 34.5c-37.333 0 -68 -12.167 -92 -36.5s-37 -53.166 -39 -86.499zM418 164.999l80.9971 -27.999c-14 -44.667 -40 -81.167 -78 -109.5s-84 -42.5 -138 -42.5
c-67.333 0 -124.5 23.167 -171.5 69.5s-70.5 108.833 -70.5 187.5c0 73.333 22.667 134 68 182s99.333 72 162 72c72.667 0 129.334 -22.833 170.001 -68.5s61 -106.834 61 -183.501c0 -12 -0.666992 -22 -2 -30h-362c0.666992 -42.667 14.834 -77.667 42.501 -105
s61.834 -41 102.501 -41c68.667 0 113.667 32.333 135 97zM434.997 689l-126 -146h-79l87 146h118z" />
    <glyph glyph-name="ecircumflex" unicode="&#xea;" horiz-adv-x="542" 
d="M141 290l263 -0.000976562c-1.33301 36 -13.333 65.5 -36 88.5s-54.667 34.5 -96 34.5c-37.333 0 -68 -12.167 -92 -36.5s-37 -53.166 -39 -86.499zM418 164.999l80.9971 -27.999c-14 -44.667 -40 -81.167 -78 -109.5s-84 -42.5 -138 -42.5
c-67.333 0 -124.5 23.167 -171.5 69.5s-70.5 108.833 -70.5 187.5c0 73.333 22.667 134 68 182s99.333 72 162 72c72.667 0 129.334 -22.833 170.001 -68.5s61 -106.834 61 -183.501c0 -12 -0.666992 -22 -2 -30h-362c0.666992 -42.667 14.834 -77.667 42.501 -105
s61.834 -41 102.501 -41c68.667 0 113.667 32.333 135 97zM208.997 545h-87l104 139h107l104 -139h-88l-70 81z" />
    <glyph glyph-name="edieresis" unicode="&#xeb;" horiz-adv-x="542" 
d="M141 290l263 -0.000976562c-1.33301 36 -13.333 65.5 -36 88.5s-54.667 34.5 -96 34.5c-37.333 0 -68 -12.167 -92 -36.5s-37 -53.166 -39 -86.499zM418 164.999l80.9971 -27.999c-14 -44.667 -40 -81.167 -78 -109.5s-84 -42.5 -138 -42.5
c-67.333 0 -124.5 23.167 -171.5 69.5s-70.5 108.833 -70.5 187.5c0 73.333 22.667 134 68 182s99.333 72 162 72c72.667 0 129.334 -22.833 170.001 -68.5s61 -106.834 61 -183.501c0 -12 -0.666992 -22 -2 -30h-362c0.666992 -42.667 14.834 -77.667 42.501 -105
s61.834 -41 102.501 -41c68.667 0 113.667 32.333 135 97zM125.997 621c0 16 5.5 29.667 16.5 41s24.5 17 40.5 17c16.667 0 30.667 -5.66699 42 -17s17 -25 17 -41c0 -16.667 -5.66699 -30.5 -17 -41.5s-25.333 -16.5 -42 -16.5c-16 0 -29.5 5.5 -40.5 16.5
s-16.5 24.833 -16.5 41.5zM312.997 621c0 16 5.5 29.667 16.5 41s24.833 17 41.5 17c16 0 29.667 -5.66699 41 -17s17 -25 17 -41c0 -16.667 -5.66699 -30.5 -17 -41.5s-25 -16.5 -41 -16.5c-16.667 0 -30.5 5.5 -41.5 16.5s-16.5 24.833 -16.5 41.5z" />
    <glyph glyph-name="igrave" unicode="&#xec;" horiz-adv-x="253" 
d="M93 543l-126 146h118l86 -146h-78zM173 0h-93v481h93v-481z" />
    <glyph glyph-name="iacute" unicode="&#xed;" horiz-adv-x="253" 
d="M290 689l-126 -146h-79l87 146h118zM173 0h-93v481h93v-481z" />
    <glyph glyph-name="icircumflex" unicode="&#xee;" horiz-adv-x="253" 
d="M173 0h-93v481h93v-481zM57 545h-87l104 139h107l104 -139h-88l-70 81z" />
    <glyph glyph-name="idieresis" unicode="&#xef;" horiz-adv-x="253" 
d="M3 621c0 15.333 5.16504 28.166 15.498 38.499s22.833 15.5 37.5 15.5s27.334 -5.16699 38.001 -15.5s16 -23.166 16 -38.499c0 -14.667 -5.16699 -27.167 -15.5 -37.5s-23.166 -15.5 -38.499 -15.5c-14.667 0 -27.167 5 -37.5 15s-15.5 22.667 -15.5 38zM143.998 621
c0 15.333 5.16699 28.166 15.5 38.499s22.833 15.5 37.5 15.5c15.333 0 28.166 -5.16699 38.499 -15.5s15.5 -23.166 15.5 -38.499c0 -14.667 -5.16699 -27.167 -15.5 -37.5s-23.166 -15.5 -38.499 -15.5s-28 5 -38 15s-15 22.667 -15 38zM172.998 0h-93v481h93v-481z" />
    <glyph glyph-name="eth" unicode="&#xf0;" horiz-adv-x="570" 
d="M475 639l-81 -40.001c91.333 -85.333 137 -198 137 -338c0 -80 -22.167 -145.833 -66.5 -197.5s-104.166 -77.5 -179.499 -77.5c-71.333 0 -130 22.833 -176 68.5s-69 103.167 -69 172.5c0 70.667 23.167 127.834 69.5 171.501s100.166 65.5 161.499 65.5
c64 0 110.667 -16.667 140 -50c-20.667 55.333 -54.334 103 -101.001 143l-131 -65l-29 63l94 47c-31.333 18 -68.666 33.333 -111.999 46l29 76c61.333 -14 119.333 -39.667 174 -77l109 55zM285 69.999c42 0 77.333 14 106 42s43 66.333 43 115
c0 49.333 -14.333 87.833 -43 115.5s-64 41.5 -106 41.5s-77.5 -14 -106.5 -42s-43.5 -66.333 -43.5 -115s14.5 -87 43.5 -115s64.5 -42 106.5 -42z" />
    <glyph glyph-name="ntilde" unicode="&#xf1;" horiz-adv-x="562" 
d="M174 278v-278h-94v481h92v-69c32 55.333 81.333 83 148 83c55.333 0 97.833 -17.667 127.5 -53s44.5 -81 44.5 -137v-305h-94v289c0 80.667 -37.333 121 -112 121c-35.333 0 -62.833 -12.5 -82.5 -37.5s-29.5 -56.5 -29.5 -94.5zM452 677v-15
c0 -35.333 -9 -62.333 -27 -81s-41.333 -28 -70 -28c-20.667 0 -42.667 7.33301 -66 22l-14 9c-15.333 9.33301 -27.666 14 -36.999 14c-19.333 0 -29 -14.333 -29 -43h-72v15c0 35.333 9.16699 62.333 27.5 81s41.833 28 70.5 28c21.333 0 43.666 -7.33301 66.999 -22
l14 -9c15.333 -9.33301 27.333 -14 36 -14c19.333 0 29 14.333 29 43h71z" />
    <glyph glyph-name="ograve" unicode="&#xf2;" horiz-adv-x="572" 
d="M286 69c42 0 77.5 15.167 106.5 45.5s43.5 72.5 43.5 126.5c0 53.333 -14.5 95.166 -43.5 125.499s-64.5 45.5 -106.5 45.5s-77.5 -15.167 -106.5 -45.5s-43.5 -72.166 -43.5 -125.499c0 -54 14.5 -96.167 43.5 -126.5s64.5 -45.5 106.5 -45.5zM286 496
c71.333 0 130.168 -24.167 176.501 -72.5s69.5 -109.166 69.5 -182.499c0 -74 -23 -135.167 -69 -183.5s-105 -72.5 -177 -72.5s-131 24.167 -177 72.5s-69 109.5 -69 183.5c0 73.333 23.167 134.166 69.5 182.499s105.166 72.5 176.499 72.5zM251.002 543l-126 146h118
l86 -146h-78z" />
    <glyph glyph-name="oacute" unicode="&#xf3;" horiz-adv-x="572" 
d="M286 69c42 0 77.5 15.167 106.5 45.5s43.5 72.5 43.5 126.5c0 53.333 -14.5 95.166 -43.5 125.499s-64.5 45.5 -106.5 45.5s-77.5 -15.167 -106.5 -45.5s-43.5 -72.166 -43.5 -125.499c0 -54 14.5 -96.167 43.5 -126.5s64.5 -45.5 106.5 -45.5zM286 496
c71.333 0 130.168 -24.167 176.501 -72.5s69.5 -109.166 69.5 -182.499c0 -74 -23 -135.167 -69 -183.5s-105 -72.5 -177 -72.5s-131 24.167 -177 72.5s-69 109.5 -69 183.5c0 73.333 23.167 134.166 69.5 182.499s105.166 72.5 176.499 72.5zM435.002 689l-126 -146h-79
l87 146h118z" />
    <glyph glyph-name="ocircumflex" unicode="&#xf4;" horiz-adv-x="572" 
d="M286 69c42 0 77.5 15.167 106.5 45.5s43.5 72.5 43.5 126.5c0 53.333 -14.5 95.166 -43.5 125.499s-64.5 45.5 -106.5 45.5s-77.5 -15.167 -106.5 -45.5s-43.5 -72.166 -43.5 -125.499c0 -54 14.5 -96.167 43.5 -126.5s64.5 -45.5 106.5 -45.5zM286 496
c71.333 0 130.168 -24.167 176.501 -72.5s69.5 -109.166 69.5 -182.499c0 -74 -23 -135.167 -69 -183.5s-105 -72.5 -177 -72.5s-131 24.167 -177 72.5s-69 109.5 -69 183.5c0 73.333 23.167 134.166 69.5 182.499s105.166 72.5 176.499 72.5zM216.002 545h-87l104 139h107
l104 -139h-88l-70 81z" />
    <glyph glyph-name="otilde" unicode="&#xf5;" horiz-adv-x="572" 
d="M286 69c42 0 77.5 15.167 106.5 45.5s43.5 72.5 43.5 126.5c0 53.333 -14.5 95.166 -43.5 125.499s-64.5 45.5 -106.5 45.5s-77.5 -15.167 -106.5 -45.5s-43.5 -72.166 -43.5 -125.499c0 -54 14.5 -96.167 43.5 -126.5s64.5 -45.5 106.5 -45.5zM286 496
c71.333 0 130.168 -24.167 176.501 -72.5s69.5 -109.166 69.5 -182.499c0 -74 -23 -135.167 -69 -183.5s-105 -72.5 -177 -72.5s-131 24.167 -177 72.5s-69 109.5 -69 183.5c0 73.333 23.167 134.166 69.5 182.499s105.166 72.5 176.499 72.5zM445.002 677v-15
c0 -35.333 -9 -62.333 -27 -81s-41.333 -28 -70 -28c-20.667 0 -42.667 7.33301 -66 22l-14 9c-15.333 9.33301 -27.666 14 -36.999 14c-19.333 0 -29 -14.333 -29 -43h-72v15c0 35.333 9.16699 62.333 27.5 81s41.833 28 70.5 28c21.333 0 43.666 -7.33301 66.999 -22
l14 -9c15.333 -9.33301 27.333 -14 36 -14c19.333 0 29 14.333 29 43h71z" />
    <glyph glyph-name="odieresis" unicode="&#xf6;" horiz-adv-x="572" 
d="M286 69c42 0 77.5 15.167 106.5 45.5s43.5 72.5 43.5 126.5c0 53.333 -14.5 95.166 -43.5 125.499s-64.5 45.5 -106.5 45.5s-77.5 -15.167 -106.5 -45.5s-43.5 -72.166 -43.5 -125.499c0 -54 14.5 -96.167 43.5 -126.5s64.5 -45.5 106.5 -45.5zM286 496
c71.333 0 130.168 -24.167 176.501 -72.5s69.5 -109.166 69.5 -182.499c0 -74 -23 -135.167 -69 -183.5s-105 -72.5 -177 -72.5s-131 24.167 -177 72.5s-69 109.5 -69 183.5c0 73.333 23.167 134.166 69.5 182.499s105.166 72.5 176.499 72.5zM134.002 621
c0 16 5.5 29.667 16.5 41s24.5 17 40.5 17c16.667 0 30.667 -5.66699 42 -17s17 -25 17 -41c0 -16.667 -5.66699 -30.5 -17 -41.5s-25.333 -16.5 -42 -16.5c-16 0 -29.5 5.5 -40.5 16.5s-16.5 24.833 -16.5 41.5zM321.002 621c0 16 5.5 29.667 16.5 41s24.833 17 41.5 17
c16 0 29.667 -5.66699 41 -17s17 -25 17 -41c0 -16.667 -5.66699 -30.5 -17 -41.5s-25 -16.5 -41 -16.5c-16.667 0 -30.5 5.5 -41.5 16.5s-16.5 24.833 -16.5 41.5z" />
    <glyph glyph-name="divide" unicode="&#xf7;" horiz-adv-x="567" 
d="M218 110c0 17.333 6.5 32.333 19.5 45s28.167 19 45.5 19s32.333 -6.33301 45 -19s19 -27.667 19 -45s-6.33301 -32.5 -19 -45.5s-27.667 -19.5 -45 -19.5s-32.5 6.5 -45.5 19.5s-19.5 28.167 -19.5 45.5zM218 465c0 17.333 6.5 32.333 19.5 45s28.167 19 45.5 19
s32.333 -6.33301 45 -19s19 -27.667 19 -45s-6.33301 -32.5 -19 -45.5s-27.667 -19.5 -45 -19.5s-32.5 6.5 -45.5 19.5s-19.5 28.167 -19.5 45.5zM55 246v83h457v-83h-457z" />
    <glyph glyph-name="oslash" unicode="&#xf8;" horiz-adv-x="572" 
d="M286 496c44.667 0 86.334 -10.666 125.001 -31.999l50 65l60 -48l-51 -66c41.333 -48 62 -106 62 -174c0 -74 -23 -135.167 -69 -183.5s-105 -72.5 -177 -72.5c-44.667 0 -86 10.333 -124 31l-49 -63l-60 48l49 64c-41.333 48 -62 106.667 -62 176
c0 73.333 23.167 134.166 69.5 182.499s105.166 72.5 176.499 72.5zM136 241.001c0 -37.333 8.33301 -71.001 25 -101.001l196 254c-22 12 -45.667 18 -71 18c-42 0 -77.5 -15.167 -106.5 -45.5s-43.5 -72.166 -43.5 -125.499zM286 69c42 0 77.5 15.167 106.5 45.5
s43.5 72.5 43.5 126.5c0 38 -8 71 -24 99l-196 -254c20 -11.333 43.333 -17 70 -17z" />
    <glyph glyph-name="ugrave" unicode="&#xf9;" horiz-adv-x="566" 
d="M397 58c-12.667 -24 -31.998 -42.166 -57.998 -54.499s-54 -18.5 -84 -18.5c-54.667 0 -98.334 18.167 -131.001 54.5s-49 82.5 -49 138.5v303h94v-289c0 -36 8.83301 -65.667 26.5 -89s45.167 -35 82.5 -35s65.666 11.167 84.999 33.5s29 52.166 29 89.499v290h94v-392
c0 -31.333 1.66699 -61 5 -89h-90c-2.66699 14.667 -4 34 -4 58zM256.002 543.001l-126 146h118l86 -146h-78z" />
    <glyph glyph-name="uacute" unicode="&#xfa;" horiz-adv-x="566" 
d="M397 58c-12.667 -24 -31.998 -42.166 -57.998 -54.499s-54 -18.5 -84 -18.5c-54.667 0 -98.334 18.167 -131.001 54.5s-49 82.5 -49 138.5v303h94v-289c0 -36 8.83301 -65.667 26.5 -89s45.167 -35 82.5 -35s65.666 11.167 84.999 33.5s29 52.166 29 89.499v290h94v-392
c0 -31.333 1.66699 -61 5 -89h-90c-2.66699 14.667 -4 34 -4 58zM423.002 689.001l-126 -146h-79l87 146h118z" />
    <glyph glyph-name="ucircumflex" unicode="&#xfb;" horiz-adv-x="566" 
d="M397 58c-12.667 -24 -31.998 -42.166 -57.998 -54.499s-54 -18.5 -84 -18.5c-54.667 0 -98.334 18.167 -131.001 54.5s-49 82.5 -49 138.5v303h94v-289c0 -36 8.83301 -65.667 26.5 -89s45.167 -35 82.5 -35s65.666 11.167 84.999 33.5s29 52.166 29 89.499v290h94v-392
c0 -31.333 1.66699 -61 5 -89h-90c-2.66699 14.667 -4 34 -4 58zM210.002 545.001h-87l104 139h107l104 -139h-88l-70 81z" />
    <glyph glyph-name="udieresis" unicode="&#xfc;" horiz-adv-x="566" 
d="M397 58c-12.667 -24 -31.998 -42.166 -57.998 -54.499s-54 -18.5 -84 -18.5c-54.667 0 -98.334 18.167 -131.001 54.5s-49 82.5 -49 138.5v303h94v-289c0 -36 8.83301 -65.667 26.5 -89s45.167 -35 82.5 -35s65.666 11.167 84.999 33.5s29 52.166 29 89.499v290h94v-392
c0 -31.333 1.66699 -61 5 -89h-90c-2.66699 14.667 -4 34 -4 58zM128.002 621.001c0 16 5.5 29.667 16.5 41s24.5 17 40.5 17c16.667 0 30.667 -5.66699 42 -17s17 -25 17 -41c0 -16.667 -5.66699 -30.5 -17 -41.5s-25.333 -16.5 -42 -16.5c-16 0 -29.5 5.5 -40.5 16.5
s-16.5 24.833 -16.5 41.5zM315.002 621.001c0 16 5.5 29.667 16.5 41s24.833 17 41.5 17c16 0 29.667 -5.66699 41 -17s17 -25 17 -41c0 -16.667 -5.66699 -30.5 -17 -41.5s-25 -16.5 -41 -16.5c-16.667 0 -30.5 5.5 -41.5 16.5s-16.5 24.833 -16.5 41.5z" />
    <glyph glyph-name="yacute" unicode="&#xfd;" horiz-adv-x="523" 
d="M200 -201h-103l120 254l-207 428h108l150 -332l144 332h101zM409 689l-126 -146h-79l87 146h118z" />
    <glyph glyph-name="thorn" unicode="&#xfe;" horiz-adv-x="593" 
d="M173 -190l-93.001 -0.000976562v914h94v-313c14 24 34.833 43.5 62.5 58.5s59.5 22.5 95.5 22.5c69.333 0 123.5 -23.667 162.5 -71s58.5 -107.333 58.5 -180c0 -73.333 -20.167 -134 -60.5 -182s-94.833 -72 -163.5 -72c-35.333 0 -66.666 7.33301 -93.999 22
s-48 33.334 -62 56.001v-255zM456.999 240.999c0 48.667 -12.833 88.834 -38.5 120.501s-60.167 47.5 -103.5 47.5c-42.667 0 -77.167 -15.833 -103.5 -47.5s-39.5 -71.834 -39.5 -120.501c0 -50 13.167 -90.833 39.5 -122.5s60.833 -47.5 103.5 -47.5s77 15.833 103 47.5
s39 72.5 39 122.5z" />
    <glyph glyph-name="ydieresis" unicode="&#xff;" horiz-adv-x="523" 
d="M200 -201h-103l120 254l-207 428h108l150 -332l144 332h101zM110 621c0 16 5.5 29.667 16.5 41s24.5 17 40.5 17c16.667 0 30.667 -5.66699 42 -17s17 -25 17 -41c0 -16.667 -5.66699 -30.5 -17 -41.5s-25.333 -16.5 -42 -16.5c-16 0 -29.5 5.5 -40.5 16.5
s-16.5 24.833 -16.5 41.5zM297 621c0 16 5.5 29.667 16.5 41s24.833 17 41.5 17c16 0 29.667 -5.66699 41 -17s17 -25 17 -41c0 -16.667 -5.66699 -30.5 -17 -41.5s-25 -16.5 -41 -16.5c-16.667 0 -30.5 5.5 -41.5 16.5s-16.5 24.833 -16.5 41.5z" />
    <glyph glyph-name="dotlessi" unicode="&#x131;" horiz-adv-x="253" 
d="M173 0h-93v481h93v-481z" />
    <glyph glyph-name="Lslash" unicode="&#x141;" horiz-adv-x="559" 
d="M534 0h-433v289l-96 -42v87l96 42v333h98v-289l157 69v-87l-157 -70v-240h335v-92z" />
    <glyph glyph-name="lslash" unicode="&#x142;" horiz-adv-x="288" 
d="M188 0h-94v272l-89 -39v87l89 39v365h94v-323l95 42v-87l-95 -42v-314z" />
    <glyph glyph-name="OE" unicode="&#x152;" horiz-adv-x="1148" 
d="M145 355c0 -88 25 -156.667 75 -206s110.333 -74 181 -74s131 24.667 181 74s75 118 75 206s-25 156.5 -75 205.5s-110.333 73.5 -181 73.5s-131 -24.5 -181 -73.5s-75 -117.5 -75 -205.5zM1088 0l-431 0.00195312v93c-68 -72 -153.333 -108 -256 -108
c-60.667 0 -117.667 14 -171 42s-97.5 70.667 -132.5 128s-52.5 124 -52.5 200c0 57.333 10.167 109.666 30.5 156.999s47.333 86.166 81 116.499s71.5 53.833 113.5 70.5s85.667 25 131 25c102.667 0 188 -36 256 -108v93h431v-91h-333v-218h302v-92h-302v-217h333v-91z
" />
    <glyph glyph-name="oe" unicode="&#x153;" horiz-adv-x="937" 
d="M286 69c42 0 77.5 15.167 106.5 45.5s43.5 72.5 43.5 126.5c0 53.333 -14.5 95.166 -43.5 125.499s-64.5 45.5 -106.5 45.5s-77.5 -15.167 -106.5 -45.5s-43.5 -72.166 -43.5 -125.499c0 -54 14.5 -96.167 43.5 -126.5s64.5 -45.5 106.5 -45.5zM536 290l263 -0.000976562
c-1.33301 36 -13.5 65.5 -36.5 88.5s-54.833 34.5 -95.5 34.5c-37.333 0 -68 -12.167 -92 -36.5s-37 -53.166 -39 -86.499zM813 164.999l81 -27.998c-14 -44.667 -40 -81.167 -78 -109.5s-84 -42.5 -138 -42.5c-39.333 0 -76.166 8.33301 -110.499 25s-62.5 40.667 -84.5 72
c-46.667 -64.667 -112.334 -97 -197.001 -97c-72 0 -131 24.167 -177 72.5s-69 109.5 -69 183.5c0 73.333 23.167 134.166 69.5 182.499s105.166 72.5 176.499 72.5c84.667 0 150.334 -32.667 197.001 -98c21.333 30.667 48.166 54.667 80.499 72s66.5 26 102.5 26
c72.667 0 129.334 -22.833 170.001 -68.5s61 -106.834 61 -183.501c0 -12 -0.666992 -22 -2 -30h-362c0.666992 -42 15 -76.833 43 -104.5s62 -41.5 102 -41.5c68.667 0 113.667 32.333 135 97z" />
    <glyph glyph-name="Scaron" unicode="&#x160;" horiz-adv-x="593" 
d="M542 548l-88.002 -31c-4.66699 30.667 -19.667 58.5 -45 83.5s-60.333 37.5 -105 37.5c-39.333 0 -72 -11.333 -98 -34s-39 -50.667 -39 -84c0 -26 7.83301 -48 23.5 -66s38.167 -30.333 67.5 -37l106 -23c58.667 -12.667 104 -36.5 136 -71.5s48 -77.5 48 -127.5
c0 -57.333 -22.667 -106.666 -68 -147.999s-104.333 -62 -177 -62c-79.333 0 -141.5 20.833 -186.5 62.5s-71.167 91.167 -78.5 148.5l94 30c4 -42.667 20.667 -78.667 50 -108s69.333 -44 120 -44c46.667 0 82.667 10.667 108 32s38 48.333 38 81
c0 26.667 -9 49.834 -27 69.501s-44.333 33.167 -79 40.5l-101 22c-52.667 11.333 -94.667 33.666 -126 66.999s-47 75.666 -47 126.999c0 56 22.833 105.167 68.5 147.5s100.834 63.5 165.501 63.5c72.667 0 128.334 -17.667 167.001 -53s63 -76.333 73 -123zM132.998 878
h91l81 -64l85 64h92l-117 -119h-120z" />
    <glyph glyph-name="scaron" unicode="&#x161;" horiz-adv-x="452" 
d="M35 125l84.9971 30.001c3.33301 -26 14.666 -47.5 33.999 -64.5s45.333 -25.5 78 -25.5c25.333 0 45.333 6.16699 60 18.5s22 27.5 22 45.5c0 32 -20.667 52.667 -62 62l-82 18c-37.333 8 -66.666 24 -87.999 48s-32 53 -32 87c0 41.333 16.833 77 50.5 107
s73.834 45 120.501 45c30.667 0 58 -4.5 82 -13.5s42.667 -20.833 56 -35.5s23.333 -28.334 30 -41.001s11.667 -25.667 15 -39l-83 -31c-1.33301 8 -3.66602 15.833 -6.99902 23.5s-8.5 16.167 -15.5 25.5s-17.167 16.833 -30.5 22.5s-29 8.5 -47 8.5
c-23.333 0 -42.5 -6.33301 -57.5 -19s-22.5 -27.667 -22.5 -45c0 -30.667 18.333 -50 55 -58l78 -17c42.667 -9.33301 75.5 -26.5 98.5 -51.5s34.5 -55.5 34.5 -91.5c0 -38 -15.5 -72.333 -46.5 -103s-74.167 -46 -129.5 -46c-59.333 0 -105.666 14.833 -138.999 44.5
s-52.333 61.5 -57 95.5zM68.9971 687.001h87l70 -81l70 81h88l-102 -142h-111z" />
    <glyph glyph-name="Ydieresis" unicode="&#x178;" horiz-adv-x="618" 
d="M135 819c0 16.667 5.66699 30.667 17 42s25.333 17 42 17s30.667 -5.66699 42 -17s17 -25.333 17 -42s-5.66699 -30.667 -17 -42s-25.333 -17 -42 -17s-30.667 5.66699 -42 17s-17 25.333 -17 42zM366 819c0 16.667 5.66699 30.667 17 42s25.333 17 42 17
s30.667 -5.66699 42 -17s17 -25.333 17 -42s-5.66699 -30.667 -17 -42s-25.333 -17 -42 -17s-30.667 5.66699 -42 17s-17 25.333 -17 42zM260 303l-250 406h118l184 -316l184 316h112l-250 -406v-303h-98v303z" />
    <glyph glyph-name="Zcaron" unicode="&#x17d;" horiz-adv-x="632" 
d="M592 0h-547v98l423 520h-413v91h532v-95l-425 -522h430v-92zM149 878h91l81 -64l85 64h92l-117 -119h-120z" />
    <glyph glyph-name="zcaron" unicode="&#x17e;" horiz-adv-x="466" 
d="M78 687h87l70 -81l70 81h88l-102 -142h-111zM426 0h-386v82l264 314h-260v85h377v-82l-264 -314h269v-85z" />
    <glyph glyph-name="florin" unicode="&#x192;" horiz-adv-x="481" 
d="M122 20l75 378h-110v83h127l23 113c9.33301 48 29.333 84.167 60 108.5s65.667 36.5 105 36.5c28 0 52.667 -3.33301 74 -10v-83c-16.667 4.66699 -34.334 7 -53.001 7c-22.667 0 -42.5 -6 -59.5 -18s-29.167 -36.667 -36.5 -74l-16 -80h129v-83h-146l-82 -411
c-9.33301 -48 -29.333 -84.167 -60 -108.5s-65.667 -36.5 -105 -36.5c-30 0 -55.667 3.33301 -77 10v83c16.667 -4.66699 35.334 -7 56.001 -7c52 0 84 30.667 96 92z" />
    <glyph glyph-name="circumflex" unicode="&#x2c6;" horiz-adv-x="385" 
d="M122 545h-87l104 139h107l104 -139h-88l-70 81z" />
    <glyph glyph-name="caron" unicode="&#x2c7;" horiz-adv-x="385" 
d="M35 687h87l70 -81l70 81h88l-102 -142h-111z" />
    <glyph glyph-name="uni02C9" unicode="&#x2c9;" horiz-adv-x="343" 
d="M308 577h-273v81h273v-81z" />
    <glyph glyph-name="breve" unicode="&#x2d8;" horiz-adv-x="362" 
d="M181 545c-44.667 0 -80 14.167 -106 42.5s-39.333 61.5 -40 99.5h73c1.33301 -18 8 -33.333 20 -46s29.667 -19 53 -19s41 6.5 53 19.5s18.667 28.167 20 45.5h73c-0.666992 -38.667 -13.667 -72 -39 -100s-61 -42 -107 -42z" />
    <glyph glyph-name="dotaccent" unicode="&#x2d9;" horiz-adv-x="174" 
d="M25 616c0 17.333 6.16699 32 18.5 44s26.833 18 43.5 18s31.167 -6 43.5 -18s18.5 -26.667 18.5 -44s-6.16699 -32 -18.5 -44s-26.833 -18 -43.5 -18s-31.167 6 -43.5 18s-18.5 26.667 -18.5 44z" />
    <glyph glyph-name="ring" unicode="&#x2da;" horiz-adv-x="293" 
d="M258 641c0 -30 -11 -55.667 -33 -77s-48.333 -32 -79 -32c-30 0 -56 10.667 -78 32s-33 47 -33 77c0 30.667 11 56.667 33 78s48 32 78 32c30.667 0 57 -10.667 79 -32s33 -47.333 33 -78zM194 641c0 13.333 -4.66699 24.833 -14 34.5s-21 14.5 -35 14.5
c-13.333 0 -24.5 -4.83301 -33.5 -14.5s-13.5 -21.167 -13.5 -34.5s4.5 -24.666 13.5 -33.999s20.167 -14 33.5 -14c14 0 25.667 4.66699 35 14s14 20.666 14 33.999z" />
    <glyph glyph-name="ogonek" unicode="&#x2db;" horiz-adv-x="233" 
d="M33 -115c0 57.333 33.999 101 101.999 131l63 -16c-56.667 -26.667 -85 -59 -85 -97c0 -16 5.16699 -27.833 15.5 -35.5s22.833 -11.5 37.5 -11.5c10.667 0 21.334 1.33301 32.001 4v-68c-14 -5.33301 -30.667 -8 -50 -8c-32 0 -59.167 9.16699 -81.5 27.5
s-33.5 42.833 -33.5 73.5z" />
    <glyph glyph-name="tilde" unicode="&#x2dc;" horiz-adv-x="377" 
d="M346 677v-15c0 -35.333 -9 -62.333 -27 -81s-41.333 -28 -70 -28c-20.667 0 -42.667 7.33301 -66 22l-14 9c-15.333 9.33301 -27.666 14 -36.999 14c-19.333 0 -29 -14.333 -29 -43h-72v15c0 35.333 9.16699 62.333 27.5 81s41.833 28 70.5 28
c21.333 0 43.666 -7.33301 66.999 -22l14 -9c15.333 -9.33301 27.333 -14 36 -14c19.333 0 29 14.333 29 43h71z" />
    <glyph glyph-name="hungarumlaut" unicode="&#x2dd;" horiz-adv-x="367" 
d="M191 689l-90 -146h-66l51 146h105zM332 689l-100 -146h-66l61 146h105z" />
    <glyph glyph-name="uni0394" unicode="&#x394;" horiz-adv-x="662" 
d="M0 0l278 709h105l279 -709h-662zM329 597l-190 -507h383z" />
    <glyph glyph-name="uni03A9" unicode="&#x3a9;" horiz-adv-x="796" 
d="M398 636c-66.667 0 -125.498 -22.167 -176.498 -66.5s-76.5 -104.833 -76.5 -181.5c0 -67.333 21.167 -123.833 63.5 -169.5s91.166 -74.5 146.499 -86.5v-132h-305v88h202c-56 20.667 -104.5 57.667 -145.5 111s-61.5 116 -61.5 188c0 102 34.667 183.667 104 245
s152.333 92 249 92s179.667 -30.667 249 -92s104 -143 104 -245c0 -72 -20.5 -134.833 -61.5 -188.5s-89.833 -90.5 -146.5 -110.5h203v-88h-305v132c55.333 12 104.166 40.833 146.499 86.5s63.5 102.167 63.5 169.5c0 76.667 -25.5 137.167 -76.5 181.5
s-109.833 66.5 -176.5 66.5z" />
    <glyph glyph-name="uni03BC" unicode="&#x3bc;" horiz-adv-x="571" 
d="M402 58c-12.667 -24 -31.998 -42.166 -57.998 -54.499s-54 -18.5 -84 -18.5c-30.667 0 -59.334 6.66699 -86.001 20v-195h-94v671h94v-289c0 -36 8.83301 -65.667 26.5 -89s45.167 -35 82.5 -35s65.666 11.167 84.999 33.5s29 52.166 29 89.499v290h94v-392
c0 -38 1.66699 -67.667 5 -89h-90c-2.66699 14.667 -4 34 -4 58z" />
    <glyph glyph-name="pi" unicode="&#x3c0;" horiz-adv-x="615" 
d="M565 5c-19.333 -8 -39.667 -12 -61 -12c-38.667 0 -68 11.5 -88 34.5s-30 51.167 -30 84.5v287h-165v-399h-94v399h-82v82h518v-82h-83v-277c0 -32.667 18 -49 54 -49c12 0 22.333 1.33301 31 4v-72z" />
    <glyph glyph-name="uni2007" unicode="&#x2007;" horiz-adv-x="614" 
 />
    <glyph glyph-name="uni2008" unicode="&#x2008;" horiz-adv-x="279" 
 />
    <glyph glyph-name="uni200B" unicode="&#x200b;" horiz-adv-x="0" 
 />
    <glyph glyph-name="endash" unicode="&#x2013;" horiz-adv-x="642" 
d="M577 246h-512v82h512v-82z" />
    <glyph glyph-name="emdash" unicode="&#x2014;" horiz-adv-x="1103" 
d="M1028 246h-953v82h953v-82z" />
    <glyph glyph-name="quoteleft" unicode="&#x2018;" horiz-adv-x="218" 
d="M178 515c0 -16.667 -6.16602 -30.834 -18.499 -42.501s-27.833 -17.5 -46.5 -17.5c-20.667 0 -38 7.33301 -52 22s-21 35.667 -21 63c0 54 13.833 95.833 41.5 125.5s58.167 46.167 91.5 49.5v-47c-21.333 -4.66699 -39 -16.667 -53 -36s-21.333 -39.666 -22 -60.999
c5.33301 3.33301 12 5 20 5c17.333 0 31.666 -5.5 42.999 -16.5s17 -25.833 17 -44.5z" />
    <glyph glyph-name="quoteright" unicode="&#x2019;" horiz-adv-x="224" 
d="M40 656c0 16.667 6.5 31.166 19.5 43.499s29.167 18.5 48.5 18.5c21.333 0 39.333 -7.66699 54 -23s22 -37 22 -65c0 -56 -14.167 -99.333 -42.5 -130s-60.166 -48 -95.499 -52v48c22 4.66699 40.167 16.834 54.5 36.501s21.833 41.167 22.5 64.5
c-4.66699 -3.33301 -11.334 -5 -20.001 -5c-18 0 -33 5.83301 -45 17.5s-18 27.167 -18 46.5z" />
    <glyph glyph-name="quotesinglbase" unicode="&#x201a;" horiz-adv-x="224" 
d="M40 61c0 16.667 6.5 31.166 19.5 43.499s29.167 18.5 48.5 18.5c21.333 0 39.333 -7.66699 54 -23s22 -37 22 -65c0 -56 -14.167 -99.333 -42.5 -130s-60.166 -48 -95.499 -52v48c22 4.66699 40.167 16.834 54.5 36.501s21.833 41.167 22.5 64.5
c-4.66699 -3.33301 -11.334 -5 -20.001 -5c-18 0 -33 5.83301 -45 17.5s-18 27.167 -18 46.5z" />
    <glyph glyph-name="quotedblleft" unicode="&#x201c;" horiz-adv-x="389" 
d="M349 520c0 -16.667 -6.16699 -30.834 -18.5 -42.501s-27.833 -17.5 -46.5 -17.5c-20.667 0 -38 7.33301 -52 22s-21 35.667 -21 63c0 54 13.833 95.833 41.5 125.5s58.167 46.167 91.5 49.5v-47c-21.333 -4.66699 -39 -16.667 -53 -36s-21.333 -39.666 -22 -60.999
c4.66699 3.33301 11.334 5 20.001 5c17.333 0 31.666 -5.5 42.999 -16.5s17 -25.833 17 -44.5zM178 520c0 -16.667 -6.16602 -30.834 -18.499 -42.501s-27.833 -17.5 -46.5 -17.5c-20.667 0 -38 7.33301 -52 22s-21 35.667 -21 63c0 54 13.833 95.833 41.5 125.5
s58.167 46.167 91.5 49.5v-47c-21.333 -4.66699 -39 -16.667 -53 -36s-21.333 -39.666 -22 -60.999c5.33301 3.33301 12 5 20 5c17.333 0 31.666 -5.5 42.999 -16.5s17 -25.833 17 -44.5z" />
    <glyph glyph-name="quotedblright" unicode="&#x201d;" horiz-adv-x="389" 
d="M40 655c0 16.667 6.16602 30.832 18.499 42.499s27.833 17.5 46.5 17.5c20.667 0 38 -7.33301 52 -22s21 -35.667 21 -63c0 -53.333 -13.667 -94.666 -41 -123.999s-58 -46.333 -92 -51v47c21.333 4.66699 39 16.5 53 35.5s21.333 39.5 22 61.5
c-5.33301 -3.33301 -12 -5 -20 -5c-17.333 0 -31.666 5.5 -42.999 16.5s-17 25.833 -17 44.5zM210.999 654.998c0 16.667 6.16699 30.832 18.5 42.499s27.833 17.5 46.5 17.5c20.667 0 38 -7.33301 52 -22s21 -35.667 21 -63c0 -53.333 -13.667 -94.666 -41 -123.999
s-58 -46.333 -92 -51v47c21.333 4.66699 39 16.5 53 35.5s21.333 39.5 22 61.5c-4.66699 -3.33301 -11.334 -5 -20.001 -5c-17.333 0 -31.666 5.5 -42.999 16.5s-17 25.833 -17 44.5z" />
    <glyph glyph-name="quotedblbase" unicode="&#x201e;" horiz-adv-x="389" 
d="M40 58c0 16.667 6.16602 30.832 18.499 42.499s27.833 17.5 46.5 17.5c20.667 0 38 -7.33301 52 -22s21 -35.667 21 -63c0 -53.333 -13.667 -94.666 -41 -123.999s-58 -46.333 -92 -51v47c21.333 4.66699 39 16.5 53 35.5s21.333 39.5 22 61.5
c-5.33301 -3.33301 -12 -5 -20 -5c-17.333 0 -31.666 5.5 -42.999 16.5s-17 25.833 -17 44.5zM210.999 57.998c0 16.667 6.16699 30.832 18.5 42.499s27.833 17.5 46.5 17.5c20.667 0 38 -7.33301 52 -22s21 -35.667 21 -63c0 -53.333 -13.667 -94.666 -41 -123.999
s-58 -46.333 -92 -51v47c21.333 4.66699 39 16.5 53 35.5s21.333 39.5 22 61.5c-4.66699 -3.33301 -11.334 -5 -20.001 -5c-17.333 0 -31.666 5.5 -42.999 16.5s-17 25.833 -17 44.5z" />
    <glyph glyph-name="dagger" unicode="&#x2020;" horiz-adv-x="386" 
d="M234 162h-82v317h-127v81h127v149h82v-149h127v-81h-127v-317z" />
    <glyph glyph-name="daggerdbl" unicode="&#x2021;" horiz-adv-x="426" 
d="M45 230h127v249h-127v81h127v149h82v-149h127v-81h-127v-249h127v-81h-127v-149h-82v149h-127v81z" />
    <glyph glyph-name="bullet" unicode="&#x2022;" horiz-adv-x="554" 
d="M70 289c0 57.333 20.1709 106.333 60.5039 147s89.166 61 146.499 61s106.166 -20.333 146.499 -61s60.5 -89.667 60.5 -147c0 -56.667 -20.333 -105.334 -61 -146.001s-89.334 -61 -146.001 -61s-105.334 20.333 -146.001 61s-61 89.334 -61 146.001z" />
    <glyph glyph-name="ellipsis" unicode="&#x2026;" horiz-adv-x="932" 
d="M842 59c0 -18 -6.16699 -33.167 -18.5 -45.5s-27.5 -18.5 -45.5 -18.5s-33.333 6.16699 -46 18.5s-19 27.5 -19 45.5s6.33301 33.333 19 46s28 19 46 19s33.167 -6.33301 45.5 -19s18.5 -28 18.5 -46zM530 59c0 -18 -6.16699 -33.167 -18.5 -45.5
s-27.5 -18.5 -45.5 -18.5s-33.333 6.16699 -46 18.5s-19 27.5 -19 45.5s6.33301 33.333 19 46s28 19 46 19s33.167 -6.33301 45.5 -19s18.5 -28 18.5 -46zM219 59c0 -18 -6.16699 -33.167 -18.5 -45.5s-27.5 -18.5 -45.5 -18.5s-33.333 6.16699 -46 18.5s-19 27.5 -19 45.5
s6.33301 33.333 19 46s28 19 46 19s33.167 -6.33301 45.5 -19s18.5 -28 18.5 -46z" />
    <glyph glyph-name="perthousand" unicode="&#x2030;" horiz-adv-x="1055" 
d="M138 498c0 -22.667 7.33301 -41.5 22 -56.5s33 -22.5 55 -22.5s40.333 7.5 55 22.5s22 33.833 22 56.5s-7.33301 41.334 -22 56.001s-33 22 -55 22s-40.333 -7.33301 -55 -22s-22 -33.334 -22 -56.001zM55 498c0 43.333 15.833 80.333 47.5 111s69.167 46 112.5 46
s81 -15.333 113 -46s48 -67.667 48 -111c0 -44 -16 -81.333 -48 -112s-69.667 -46 -113 -46s-80.833 15.333 -112.5 46s-47.5 68 -47.5 112zM534 150c0 -22.667 7.33301 -41.5 22 -56.5s33 -22.5 55 -22.5s40.333 7.5 55 22.5s22 33.833 22 56.5s-7.33301 41.334 -22 56.001
s-33 22 -55 22s-40.333 -7.33301 -55 -22s-22 -33.334 -22 -56.001zM227 0h-92l466 648h90zM772 150c0 -22.667 7.33301 -41.5 22 -56.5s33 -22.5 55 -22.5s40.333 7.5 55 22.5s22 33.833 22 56.5s-7.33301 41.334 -22 56.001s-33 22 -55 22s-40.333 -7.33301 -55 -22
s-22 -33.334 -22 -56.001zM451 150c0 43.333 15.833 80.333 47.5 111s69.167 46 112.5 46c50 0 89.667 -20 119 -60c29.333 40 69 60 119 60c43.333 0 81 -15.333 113 -46s48 -67.667 48 -111c0 -44 -16 -81.333 -48 -112s-69.667 -46 -113 -46
c-50 0 -89.667 19.667 -119 59c-29.333 -39.333 -69 -59 -119 -59c-43.333 0 -80.833 15.333 -112.5 46s-47.5 68 -47.5 112z" />
    <glyph glyph-name="guilsinglleft" unicode="&#x2039;" horiz-adv-x="276" 
d="M256 99h-93l-133 191l133 191h93l-131 -191z" />
    <glyph glyph-name="guilsinglright" unicode="&#x203a;" horiz-adv-x="276" 
d="M113 99h-93l131 191l-131 191h93l133 -191z" />
    <glyph glyph-name="uni2042" unicode="&#x2042;" horiz-adv-x="835" 
d="M453 709v-121l111 38l20 -65l-111 -36l74 -95l-55 -41l-75 98l-70 -97l-55 41l71 94l-112 36l21 65l110 -38v121h71zM237 312v-121l111 38l20 -65l-111 -36l74 -95l-55 -41l-75 98l-70 -97l-55 41l71 94l-112 36l21 65l110 -38v121h71zM669 312v-121l111 38l20 -65
l-111 -36l74 -95l-55 -41l-75 98l-70 -97l-55 41l71 94l-112 36l21 65l110 -38v121h71z" />
    <glyph glyph-name="fraction" unicode="&#x2044;" horiz-adv-x="556" 
d="M92 0h-92l466 648h90z" />
    <glyph glyph-name="uni2051" unicode="&#x2051;" horiz-adv-x="423" 
d="M247 709v-121l111 38l20 -65l-111 -36l74 -95l-55 -41l-75 98l-70 -97l-55 41l71 94l-112 36l21 65l110 -38v121h71zM247 312v-121l111 38l20 -65l-111 -36l74 -95l-55 -41l-75 98l-70 -97l-55 41l71 94l-112 36l21 65l110 -38v121h71z" />
    <glyph glyph-name="uni2070" unicode="&#x2070;" horiz-adv-x="426" 
d="M138 526c0 -82 25 -123 75 -123s75 41 75 123c0 82.667 -25 124 -75 124s-75 -41.333 -75 -124zM60 526c0 56 11.667 100 35 132c27.333 38.667 66.666 58 117.999 58s90.666 -19.333 117.999 -58c23.333 -32 35 -76 35 -132c0 -55.333 -11.667 -99 -35 -131
c-27.333 -38.667 -66.666 -58 -117.999 -58s-90.666 19.333 -117.999 58c-23.333 32 -35 75.667 -35 131z" />
    <glyph glyph-name="uni2074" unicode="&#x2074;" horiz-adv-x="446" 
d="M60 416v73l177 220h85v-228h64v-65h-64v-72h-77v72h-185zM245 481v139l-111 -139h111z" />
    <glyph glyph-name="uni2075" unicode="&#x2075;" horiz-adv-x="404" 
d="M60 429l66.002 30c4.66699 -17.333 13.5 -31.166 26.5 -41.499s28.5 -15.5 46.5 -15.5c20 0 36.167 5.33301 48.5 16s18.5 25.667 18.5 45c0 20 -6.16699 35.333 -18.5 46s-28.5 16 -48.5 16c-24.667 0 -46 -9 -64 -27l-64 24l49 187h204v-66h-154l-23 -86
c16.667 18.667 41 28 73 28c37.333 0 67.333 -10.833 90 -32.5s34 -50.5 34 -86.5c0 -36.667 -13 -67.334 -39 -92.001s-61.333 -37 -106 -37c-34.667 0 -64.834 9.16699 -90.501 27.5s-41.834 39.833 -48.501 64.5z" />
    <glyph glyph-name="uni2076" unicode="&#x2076;" horiz-adv-x="418" 
d="M340 698l-18.002 -57.001c-19.333 8.66699 -40 13 -62 13c-32.667 0 -60 -9 -82 -27s-35.667 -44 -41 -78c8.66699 12.667 21.334 23 38.001 31s34.334 12 53.001 12c39.333 0 70.833 -11.167 94.5 -33.5s35.5 -53.166 35.5 -92.499c0 -38 -14 -69 -42 -93
s-63 -36 -105 -36c-40.667 0 -76 14.333 -106 43s-45 70 -45 124c0 64 18.167 115.5 54.5 154.5s82.833 58.5 139.5 58.5c36 0 64.667 -6.33301 86 -19zM142.998 464.999c0 -19.333 6.83301 -34.666 20.5 -45.999s29.834 -17 48.501 -17c18 0 33.833 5.66699 47.5 17
s20.5 26.666 20.5 45.999s-6.83301 34.666 -20.5 45.999s-29.5 17 -47.5 17c-18.667 0 -34.834 -5.66699 -48.501 -17s-20.5 -26.666 -20.5 -45.999z" />
    <glyph glyph-name="uni2077" unicode="&#x2077;" horiz-adv-x="417" 
d="M357 709l-0.000976562 -69c-12.667 -8.66699 -25.167 -19.167 -37.5 -31.5s-27.333 -30.166 -45 -53.499s-33 -53.333 -46 -90s-21.5 -77 -25.5 -121h-82c3.33301 36.667 10.333 72.167 21 106.5s22.334 62.666 35.001 84.999s25 42 37 59s22 29.5 30 37.5l13 11h-197v66
h297z" />
    <glyph glyph-name="uni2078" unicode="&#x2078;" horiz-adv-x="410" 
d="M205 561c17.333 0 31.166 4.33301 41.499 13s15.5 20.334 15.5 35.001c0 13.333 -5.16699 24.166 -15.5 32.499s-24.166 12.5 -41.499 12.5s-31.166 -4.16699 -41.499 -12.5s-15.5 -19.166 -15.5 -32.499c0 -14.667 5.16699 -26.334 15.5 -35.001s24.166 -13 41.499 -13z
M205 401c21.333 0 37.833 4.5 49.5 13.5s17.5 21.167 17.5 36.5c0 14.667 -5.83301 26.667 -17.5 36s-28.167 14 -49.5 14s-37.833 -4.66699 -49.5 -14s-17.5 -21.333 -17.5 -36c0 -15.333 5.83301 -27.5 17.5 -36.5s28.167 -13.5 49.5 -13.5zM205 337
c-45.333 0 -80.833 10.167 -106.5 30.5s-38.5 46.166 -38.5 77.499c0 18 6 34.833 18 50.5s28.667 27.5 50 35.5c-17.333 7.33301 -31 18.333 -41 33s-15 30.334 -15 47.001c0 30.667 12.5 55.834 37.5 75.501s56.833 29.5 95.5 29.5s70.5 -9.83301 95.5 -29.5
s37.5 -44.834 37.5 -75.501c0 -16.667 -5 -32.334 -15 -47.001s-23.667 -25.667 -41 -33c21.333 -8 38 -19.833 50 -35.5s18 -32.5 18 -50.5c0 -31.333 -12.833 -57.166 -38.5 -77.499s-61.167 -30.5 -106.5 -30.5z" />
    <glyph glyph-name="uni2079" unicode="&#x2079;" horiz-adv-x="416" 
d="M78 356l18.001 58.999c19.333 -8.66699 40 -13 62 -13c34 0 62 8.5 84 25.5s35 42.833 39 77.5c-8.66699 -12.667 -21.334 -23 -38.001 -31s-34.334 -12 -53.001 -12c-38 0 -69.167 11.333 -93.5 34s-36.5 53.334 -36.5 92.001c0 37.333 14 68.166 42 92.499
s63 36.5 105 36.5c40.667 0 75.667 -14.333 105 -43s44 -70 44 -124c0 -67.333 -17.667 -119.666 -53 -156.999s-81.666 -56 -138.999 -56c-36 0 -64.667 6.33301 -86 19zM273.001 587.999c0 19.333 -6.66699 34.833 -20 46.5s-29.666 17.5 -48.999 17.5
c-18.667 0 -34.667 -5.66699 -48 -17s-20 -27 -20 -47s6.66699 -35.667 20 -47s29.333 -17 48 -17c19.333 0 35.666 5.83301 48.999 17.5s20 27.167 20 46.5z" />
    <glyph glyph-name="uni2080" unicode="&#x2080;" horiz-adv-x="426" 
d="M138 110c0 -82 25 -123 75 -123s75 41 75 123c0 82.667 -25 124 -75 124s-75 -41.333 -75 -124zM60 110c0 56 11.667 100 35 132c27.333 38.667 66.666 58 117.999 58s90.666 -19.333 117.999 -58c23.333 -32 35 -76 35 -132c0 -55.333 -11.667 -99 -35 -131
c-27.333 -38.667 -66.666 -58 -117.999 -58s-90.666 19.333 -117.999 58c-23.333 32 -35 75.667 -35 131z" />
    <glyph glyph-name="uni2081" unicode="&#x2081;" horiz-adv-x="303" 
d="M213 -72h-77v245h-86v52c24 0.666992 44.5 7.5 61.5 20.5s27.167 28.833 30.5 47.5h71v-365z" />
    <glyph glyph-name="uni2082" unicode="&#x2082;" horiz-adv-x="389" 
d="M141 152l-74 -0.000976562c-2 10 -3 20.333 -3 31c0 32.667 12 60.334 36 83.001s56 34 96 34c39.333 0 71 -11.167 95 -33.5s36 -49.5 36 -81.5c0 -44 -23.333 -80.667 -70 -110l-72 -45c-18 -12 -28.333 -24.333 -31 -37h175v-65h-268v13c0 62 28.333 110.333 85 145
l60 37c28.667 17.333 43 38.333 43 63c0 14 -4.83301 25.833 -14.5 35.5s-22.834 14.5 -39.501 14.5c-17.333 0 -31.166 -5.33301 -41.499 -16s-15.5 -24.667 -15.5 -42c0 -8 1 -16.667 3 -26z" />
    <glyph glyph-name="uni2083" unicode="&#x2083;" horiz-adv-x="412" 
d="M178 94l-29.001 56l95 79h-171v65h271v-63l-100 -80c30.667 -2.66699 56.334 -13.5 77.001 -32.5s31 -44.5 31 -76.5c0 -34 -13.5 -62.667 -40.5 -86s-61.833 -35 -104.5 -35c-40.667 0 -73.667 10 -99 30s-41.333 44.333 -48 73l67 27
c3.33301 -19.333 12.166 -34.833 26.499 -46.5s31.833 -17.5 52.5 -17.5c20 0 36.333 5.16699 49 15.5s19 23.5 19 39.5c0 19.333 -6.66699 33.5 -20 42.5s-29.333 13.5 -48 13.5c-9.33301 0 -18.666 -1.33301 -27.999 -4z" />
    <glyph glyph-name="uni2084" unicode="&#x2084;" horiz-adv-x="446" 
d="M60 0v73l177 220h85v-228h64v-65h-64v-72h-77v72h-185zM245 65v139l-111 -139h111z" />
    <glyph glyph-name="uni2085" unicode="&#x2085;" horiz-adv-x="404" 
d="M60 13l66.002 30c4.66699 -17.333 13.5 -31.166 26.5 -41.499s28.5 -15.5 46.5 -15.5c20 0 36.167 5.33301 48.5 16s18.5 25.667 18.5 45c0 20 -6.16699 35.333 -18.5 46s-28.5 16 -48.5 16c-24.667 0 -46 -9 -64 -27l-64 24l49 187h204v-66h-154l-23 -86
c16.667 18.667 41 28 73 28c37.333 0 67.333 -10.833 90 -32.5s34 -50.5 34 -86.5c0 -36.667 -13 -67.334 -39 -92.001s-61.333 -37 -106 -37c-34.667 0 -64.834 9.16699 -90.501 27.5s-41.834 39.833 -48.501 64.5z" />
    <glyph glyph-name="uni2086" unicode="&#x2086;" horiz-adv-x="418" 
d="M340 282l-18.002 -57.001c-19.333 8.66699 -40 13 -62 13c-32.667 0 -60 -9 -82 -27s-35.667 -44 -41 -78c8.66699 12.667 21.334 23 38.001 31s34.334 12 53.001 12c39.333 0 70.833 -11.167 94.5 -33.5s35.5 -53.166 35.5 -92.499c0 -38 -14 -69 -42 -93
s-63 -36 -105 -36c-40.667 0 -76 14.333 -106 43s-45 70 -45 124c0 64 18.167 115.5 54.5 154.5s82.833 58.5 139.5 58.5c36 0 64.667 -6.33301 86 -19zM142.998 48.999c0 -19.333 6.83301 -34.666 20.5 -45.999s29.834 -17 48.501 -17c18 0 33.833 5.66699 47.5 17
s20.5 26.666 20.5 45.999s-6.83301 34.666 -20.5 45.999s-29.5 17 -47.5 17c-18.667 0 -34.834 -5.66699 -48.501 -17s-20.5 -26.666 -20.5 -45.999z" />
    <glyph glyph-name="uni2087" unicode="&#x2087;" horiz-adv-x="417" 
d="M357 293l-0.000976562 -69c-12.667 -8.66699 -25.167 -19.167 -37.5 -31.5s-27.333 -30.166 -45 -53.499s-33 -53.333 -46 -90s-21.5 -77 -25.5 -121h-82c3.33301 36.667 10.333 72.167 21 106.5s22.334 62.666 35.001 84.999s25 42 37 59s22 29.5 30 37.5l13 11h-197v66
h297z" />
    <glyph glyph-name="uni2088" unicode="&#x2088;" horiz-adv-x="410" 
d="M205 145c17.333 0 31.166 4.33301 41.499 13s15.5 20.334 15.5 35.001c0 13.333 -5.16699 24.166 -15.5 32.499s-24.166 12.5 -41.499 12.5s-31.166 -4.16699 -41.499 -12.5s-15.5 -19.166 -15.5 -32.499c0 -14.667 5.16699 -26.334 15.5 -35.001s24.166 -13 41.499 -13z
M205 -15c21.333 0 37.833 4.5 49.5 13.5s17.5 21.167 17.5 36.5c0 14.667 -5.83301 26.667 -17.5 36s-28.167 14 -49.5 14s-37.833 -4.66699 -49.5 -14s-17.5 -21.333 -17.5 -36c0 -15.333 5.83301 -27.5 17.5 -36.5s28.167 -13.5 49.5 -13.5zM205 -79
c-45.333 0 -80.833 10.167 -106.5 30.5s-38.5 46.166 -38.5 77.499c0 18 6 34.833 18 50.5s28.667 27.5 50 35.5c-17.333 7.33301 -31 18.333 -41 33s-15 30.334 -15 47.001c0 30.667 12.5 55.834 37.5 75.501s56.833 29.5 95.5 29.5s70.5 -9.83301 95.5 -29.5
s37.5 -44.834 37.5 -75.501c0 -16.667 -5 -32.334 -15 -47.001s-23.667 -25.667 -41 -33c21.333 -8 38 -19.833 50 -35.5s18 -32.5 18 -50.5c0 -31.333 -12.833 -57.166 -38.5 -77.499s-61.167 -30.5 -106.5 -30.5z" />
    <glyph glyph-name="uni2089" unicode="&#x2089;" horiz-adv-x="416" 
d="M78 -60l18.001 58.999c19.333 -8.66699 40 -13 62 -13c34 0 62 8.5 84 25.5s35 42.833 39 77.5c-8.66699 -12.667 -21.334 -23 -38.001 -31s-34.334 -12 -53.001 -12c-38 0 -69.167 11.333 -93.5 34s-36.5 53.334 -36.5 92.001c0 37.333 14 68.166 42 92.499
s63 36.5 105 36.5c40.667 0 75.667 -14.333 105 -43s44 -70 44 -124c0 -67.333 -17.667 -119.666 -53 -156.999s-81.666 -56 -138.999 -56c-36 0 -64.667 6.33301 -86 19zM273.001 171.999c0 19.333 -6.66699 34.833 -20 46.5s-29.666 17.5 -48.999 17.5
c-18.667 0 -34.667 -5.66699 -48 -17s-20 -27 -20 -47s6.66699 -35.667 20 -47s29.333 -17 48 -17c19.333 0 35.666 5.83301 48.999 17.5s20 27.167 20 46.5z" />
    <glyph glyph-name="Euro" unicode="&#x20ac;" horiz-adv-x="689" 
d="M65 282h79.001c-1.33301 14.667 -2 29 -2 43c0 12 0.666992 25.333 2 40h-79v78h94c22.667 70 63 124.167 121 162.5s121 57.5 189 57.5c70 0 127 -15.667 171 -47l-40 -77c-34 24.667 -77.667 37 -131 37c-46 0 -87.667 -11.333 -125 -34s-65 -55.667 -83 -99h293
l-39 -78h-273c-2 -12 -3 -25.333 -3 -40c0 -18.667 1 -33 3 -43h237l-39 -80h-177c18 -42.667 45 -75 81 -97s76.667 -33 122 -33c63.333 0 113 18 149 54l49 -70c-55.333 -47.333 -121.333 -71 -198 -71c-66.667 0 -128.334 19 -185.001 57s-96.667 91.333 -120 160h-96v80
z" />
    <glyph glyph-name="uni2113" unicode="&#x2113;" horiz-adv-x="407" 
d="M35 259c20.667 5.33301 43.333 13.666 68 24.999v222c0 48.667 12.167 87.167 36.5 115.5s56.833 42.5 97.5 42.5c42.667 0 75.834 -13.167 99.501 -39.5s35.5 -63.166 35.5 -110.499c0 -52.667 -15.5 -104.5 -46.5 -155.5s-73.833 -93.5 -128.5 -127.5v-71
c0 -50.667 22.333 -76.667 67 -78c37.333 0 67.333 9.66699 90 29v-85c-4.66699 -6.66699 -15 -13.5 -31 -20.5s-37 -10.5 -63 -10.5c-52 0 -91.167 14.667 -117.5 44s-39.5 68 -39.5 116v33c-24.667 -8 -47.334 -13.667 -68.001 -17v88zM277.999 514
c0 42.667 -13 64 -39 64c-28 0 -42 -23.667 -42 -71v-164c54 49.333 81 106.333 81 171z" />
    <glyph glyph-name="trademark" unicode="&#x2122;" horiz-adv-x="859" 
d="M330 641h-112v-297h-76v297h-112v68h300v-68zM799 344h-72v233l-101 -233h-59l-98 230v-230h-76v365h99l107 -254l107 254h93v-365z" />
    <glyph glyph-name="Omega" unicode="&#x2126;" horiz-adv-x="796" 
d="M398 636c-66.667 0 -125.498 -22.167 -176.498 -66.5s-76.5 -104.833 -76.5 -181.5c0 -67.333 21.167 -123.833 63.5 -169.5s91.166 -74.5 146.499 -86.5v-132h-305v88h202c-56 20.667 -104.5 57.667 -145.5 111s-61.5 116 -61.5 188c0 102 34.667 183.667 104 245
s152.333 92 249 92s179.667 -30.667 249 -92s104 -143 104 -245c0 -72 -20.5 -134.833 -61.5 -188.5s-89.833 -90.5 -146.5 -110.5h203v-88h-305v132c55.333 12 104.166 40.833 146.499 86.5s63.5 102.167 63.5 169.5c0 76.667 -25.5 137.167 -76.5 181.5
s-109.833 66.5 -176.5 66.5z" />
    <glyph glyph-name="uni2160" unicode="&#x2160;" horiz-adv-x="506" 
d="M451 648v-88h-150v-472h150v-88h-396v88h150v472h-150v88h396z" />
    <glyph glyph-name="uni2161" unicode="&#x2161;" horiz-adv-x="770" 
d="M715 88v-88h-660v88h140v472h-140v88h660v-88h-140v-472h140zM479 88v472h-188v-472h188z" />
    <glyph glyph-name="uni2162" unicode="&#x2162;" horiz-adv-x="1044" 
d="M989 88v-88h-934v88h140v472h-140v88h934v-88h-140v-472h140zM753 88v472h-183v-472h183zM291 560v-472h183v472h-183z" />
    <glyph glyph-name="uni2163" unicode="&#x2163;" horiz-adv-x="1006" 
d="M951 88v-88h-896v88h130v472h-130v88h895v-88h-115l-163 -472h279zM281 560v-472h240l-160 472h-80zM599 141l137 419h-273z" />
    <glyph glyph-name="uni2164" unicode="&#x2164;" horiz-adv-x="803" 
d="M748 648v-88h-110l-163 -472h269v-88h-684v88h264l-160 472h-109v88h693zM402 141l137 419h-273z" />
    <glyph glyph-name="uni2165" unicode="&#x2165;" horiz-adv-x="1006" 
d="M951 88v-88h-896v88h274l-160 472h-114v88h895v-88h-129v-472h130zM643 560l-163 -472h245v472h-82zM407 141l137 419h-273z" />
    <glyph glyph-name="uni2166" unicode="&#x2166;" horiz-adv-x="1293" 
d="M1238 88v-88h-1183v88h273l-159 472h-114v88h1183v-88h-140v-472h140zM1002 88v472h-182v-472h182zM642 560l-163 -472h245v472h-82zM406 141l137 419h-272z" />
    <glyph glyph-name="uni2167" unicode="&#x2167;" horiz-adv-x="1542" 
d="M1487 88v-88h-1432v88h270l-156 472h-114v88h1432v-88h-135v-472h135zM814 560v-472h173v472h-173zM1083 560v-472h173v472h-173zM634 560l-160 -472h244v472h-84zM402 141l132 419h-263z" />
    <glyph glyph-name="uni2168" unicode="&#x2168;" horiz-adv-x="976" 
d="M921 88v-88h-866v88h130v472h-130v88h865v-88h-105l-170 -243l161 -229h115zM538 317l-171 243h-86v-472h92zM477 560l114 -168l115 168h-229zM590 243l-109 -155h215z" />
    <glyph glyph-name="uni2169" unicode="&#x2169;" horiz-adv-x="767" 
d="M711 648v-88h-105l-170 -243l161 -229h115v-88h-657v88h109l165 229l-171 243h-103v88h656zM268 560l114 -168l115 168h-229zM381 243l-109 -155h215z" />
    <glyph glyph-name="uni216C" unicode="&#x216c;" horiz-adv-x="654" 
d="M599 281v-281h-544v88h130v472h-130v88h366v-88h-140v-472h222v193h96z" />
    <glyph glyph-name="uni216D" unicode="&#x216d;" horiz-adv-x="722" 
d="M667 231l-0.000976562 -230.998h-96v67c-43.333 -54 -107.333 -81 -192 -81c-86.667 0 -162.334 30.667 -227.001 92s-97 143.666 -97 246.999s32.333 185.666 97 246.999s140.334 92 227.001 92c84 0 147.333 -25.667 190 -77v63h96v-226h-96
c-5.33301 46.667 -24.333 83.667 -57 111s-77 41 -133 41c-65.333 0 -119.5 -21.5 -162.5 -64.5s-64.5 -105.167 -64.5 -186.5s21.5 -143.5 64.5 -186.5s97.167 -64.5 162.5 -64.5c60 0 106.333 15.833 139 47.5s50.334 68.167 53.001 109.5h96z" />
    <glyph glyph-name="uni216E" unicode="&#x216e;" horiz-adv-x="735" 
d="M55 648h321c84.667 0 156.5 -28.667 215.5 -86s88.5 -137 88.5 -239c0 -101.333 -29.833 -180.5 -89.5 -237.5s-133.167 -85.5 -220.5 -85.5h-315v88h135v472h-135v88zM286 88l86 0.000976562c58 0 107.5 20.167 148.5 60.5s61.5 98.5 61.5 174.5
c0 75.333 -20 133.666 -60 174.999s-90.667 62 -152 62h-84v-472z" />
    <glyph glyph-name="uni216F" unicode="&#x216f;" horiz-adv-x="1069" 
d="M321 648l210 -515l212 515h271v-88h-132v-472h132v-88h-325v88h99v428l-219 -516h-76l-217 516v-428h104v-88h-325v88h127v472h-127v88h266z" />
    <glyph glyph-name="arrowleft" unicode="&#x2190;" horiz-adv-x="1026" 
d="M221 102l-221 185l221 186v-144h735v-83h-735v-144z" />
    <glyph glyph-name="arrowup" unicode="&#x2191;" horiz-adv-x="449" 
d="M240 800l199 -245h-158v-703h-83v703h-158z" />
    <glyph glyph-name="arrowright" unicode="&#x2192;" horiz-adv-x="1026" 
d="M982 287l-252 -211v169h-696v83h696v171z" />
    <glyph glyph-name="arrowdown" unicode="&#x2193;" horiz-adv-x="449" 
d="M422 90l-212 -252l-211 252h169v696h83v-696h171z" />
    <glyph glyph-name="uni2196" unicode="&#x2196;" horiz-adv-x="874" 
d="M55 709h292l-116 -117l543 -542l-59 -58l-543 541l-117 -118v294z" />
    <glyph glyph-name="uni2197" unicode="&#x2197;" horiz-adv-x="773" 
d="M381 709h292v-294l-118 118l-542 -541l-59 58l543 542z" />
    <glyph glyph-name="uni2198" unicode="&#x2198;" horiz-adv-x="874" 
d="M774 0h-292l116 117l-543 542l59 58l542 -542l118 119v-294z" />
    <glyph glyph-name="uni2199" unicode="&#x2199;" horiz-adv-x="764" 
d="M337 0h-292v294l117 -119l543 542l59 -58l-543 -542z" />
    <glyph glyph-name="uni21A9" unicode="&#x21a9;" horiz-adv-x="833" 
d="M398 581l0.000976562 82.998h192c60 0 111.167 -20.167 153.5 -60.5s63.5 -89.833 63.5 -148.5c0 -60.667 -21.833 -110.667 -65.5 -150s-95.5 -59 -155.5 -59h-367v-144l-221 185l221 186v-144h362c39.333 0 73.166 11.333 101.499 34s42.5 53.334 42.5 92.001
s-14 69.334 -42 92.001s-63 34 -105 34h-180z" />
    <glyph glyph-name="uni21B0" unicode="&#x21b0;" horiz-adv-x="775" 
d="M271 353l-221 185l221 186v-144h414v-580h-83v497h-331v-144z" />
    <glyph glyph-name="uni21B1" unicode="&#x21b1;" horiz-adv-x="720" 
d="M118 0h-83v580h464v144l221 -186l-221 -185v144h-381v-497z" />
    <glyph glyph-name="uni21B2" unicode="&#x21b2;" horiz-adv-x="760" 
d="M592 709h83v-580h-464v-144l-221 186l221 185v-144h381v497z" />
    <glyph glyph-name="uni21B3" unicode="&#x21b3;" horiz-adv-x="840" 
d="M549 356l221 -185l-221 -186v144h-464v580h83v-497h381v144z" />
    <glyph glyph-name="uni21B4" unicode="&#x21b4;" horiz-adv-x="814" 
d="M55 626v83h580v-504h144l-186 -221l-185 221h144v421h-497z" />
    <glyph glyph-name="uni21C6" unicode="&#x21c6;" horiz-adv-x="1106" 
d="M276 355l-221 185l221 186v-144h755v-83h-755v-144zM1051 170l-221 -185v144h-755v83h755v144z" />
    <glyph glyph-name="partialdiff" unicode="&#x2202;" horiz-adv-x="611" 
d="M247 638c-50.667 0 -97.335 -10.333 -140.002 -31l-32 74c49.333 28.667 109.333 43 180 43c26.667 0 52.834 -3 78.501 -9s52.667 -17.5 81 -34.5s53 -38.833 74 -65.5s38.5 -63 52.5 -109s21 -98.667 21 -158c0 -113.333 -23.667 -202.166 -71 -266.499
s-115.333 -96.5 -204 -96.5c-66 0 -122.667 20.667 -170 62s-71 99.333 -71 174c0 69.333 23.833 125.166 71.5 167.499s105.834 63.5 174.501 63.5c77.333 0 134.333 -19 171 -57c-13.333 162 -85.333 243 -216 243zM305.999 369c-52 0 -92.334 -14.667 -121.001 -44
s-43 -66 -43 -110s14.833 -78.833 44.5 -104.5s64.834 -38.5 105.501 -38.5c57.333 0 100.333 22.333 129 67s43 97 43 157c-17.333 23.333 -40 41.333 -68 54s-58 19 -90 19z" />
    <glyph glyph-name="Delta" unicode="&#x2206;" horiz-adv-x="662" 
d="M0 0l278 709h105l279 -709h-662zM329 597l-190 -507h383z" />
    <glyph glyph-name="product" unicode="&#x220f;" horiz-adv-x="687" 
d="M597 0h-95v622h-314v-622h-98v709h507v-709z" />
    <glyph glyph-name="summation" unicode="&#x2211;" horiz-adv-x="567" 
d="M45 0v86l273 271l-273 266v86h497v-90h-365l269 -262l-278 -267h374v-90h-497z" />
    <glyph glyph-name="minus" unicode="&#x2212;" horiz-adv-x="533" 
d="M478 248h-423v79h423v-79z" />
    <glyph glyph-name="uni2215" unicode="&#x2215;" horiz-adv-x="404" 
d="M404 648l-313 -648h-91l313 648h91z" />
    <glyph glyph-name="uni2219" unicode="&#x2219;" horiz-adv-x="279" 
d="M70 284c0 19.333 6.66699 35.833 20 49.5s29.666 20.5 48.999 20.5s35.833 -6.83301 49.5 -20.5s20.5 -30.167 20.5 -49.5s-6.83301 -35.666 -20.5 -48.999s-30.167 -20 -49.5 -20s-35.666 6.66699 -48.999 20s-20 29.666 -20 48.999z" />
    <glyph glyph-name="radical" unicode="&#x221a;" horiz-adv-x="665" 
d="M700 780h-119l-266 -780h-91l-189 529h108l127 -374l235 713h195v-88z" />
    <glyph glyph-name="infinity" unicode="&#x221e;" horiz-adv-x="801" 
d="M399 228c-32 -36 -62.168 -62.667 -90.501 -80s-58.166 -26 -89.499 -26c-50 0 -91.5 16 -124.5 48s-49.5 72 -49.5 120s16.5 88.167 49.5 120.5s74.5 48.5 124.5 48.5c64.667 0 125.667 -35.667 183 -107c60 71.333 120 107 180 107c50 0 91.5 -16.167 124.5 -48.5
s49.5 -72.5 49.5 -120.5s-16.5 -88 -49.5 -120s-74.5 -48 -124.5 -48c-66 0 -127 35.333 -183 106zM220.999 379c-28 0 -50.499 -8.5 -67.499 -25.5s-25.5 -38.5 -25.5 -64.5s8.5 -47.333 25.5 -64s39.5 -25 67.5 -25c38.667 0 81.667 29 129 87
c-17.333 21.333 -31.333 37.5 -42 48.5s-23.834 21 -39.501 30s-31.5 13.5 -47.5 13.5zM580 200c28 0 50.5 8.33203 67.5 24.999s25.5 38 25.5 64s-8.5 47.5 -25.5 64.5s-39.5 25.5 -67.5 25.5c-16 0 -31.833 -4.33301 -47.5 -13s-28.667 -18.167 -39 -28.5
s-24.5 -26.166 -42.5 -47.499c24.667 -30 46.667 -52.5 66 -67.5s40.333 -22.5 63 -22.5z" />
    <glyph glyph-name="integral" unicode="&#x222b;" horiz-adv-x="310" 
d="M109 -33l0.00195312 583.999c0 49.333 14.167 88 42.5 116s67.166 42 116.499 42h37v-86h-30c-22.667 0 -40.334 -6.66699 -53.001 -20s-19 -33 -19 -59v-585c0 -49.333 -13.667 -88.166 -41 -116.499s-65.333 -42.5 -114 -42.5h-43v86h31c22 0 39.667 7 53 21
s20 34 20 60z" />
    <glyph glyph-name="approxequal" unicode="&#x2248;" horiz-adv-x="569" 
d="M483 429l51.001 -45c-38.667 -55.333 -87.334 -83 -146.001 -83c-32 0 -65.333 10 -100 30l-47 26c-21.333 11.333 -42 17 -62 17c-34.667 0 -65 -15 -91 -45l-53 47c39.333 56.667 87 85 143 85c30.667 0 65 -10.333 103 -31l46 -25
c23.333 -13.333 46.666 -20 69.999 -20c32.667 0 61.334 14.667 86.001 44zM483.001 235l51.001 -45c-38.667 -55.333 -87.334 -83 -146.001 -83c-32 0 -65.333 10 -100 30l-47 26c-21.333 11.333 -42 17 -62 17c-34.667 0 -65 -15 -91 -45l-53 47
c39.333 56.667 87 85 143 85c30.667 0 65 -10.333 103 -31l46 -25c23.333 -13.333 46.666 -20 69.999 -20c32.667 0 61.334 14.667 86.001 44z" />
    <glyph glyph-name="notequal" unicode="&#x2260;" horiz-adv-x="593" 
d="M528 151h-282l-74 -100h-96l74 100h-85v79h143l85 116h-228v77h285l73 99h96l-73 -99h82v-77h-139l-85 -116h224v-79z" />
    <glyph glyph-name="lessequal" unicode="&#x2264;" horiz-adv-x="542" 
d="M65 130h412v-79h-412v79zM65 304v85l412 146v-84l-307 -104l307 -104v-84z" />
    <glyph glyph-name="greaterequal" unicode="&#x2265;" horiz-adv-x="542" 
d="M65 130h412v-79h-412v79zM477 389v-85l-412 -145v84l307 104l-307 104v84z" />
    <glyph glyph-name="dotmath" unicode="&#x22c5;" horiz-adv-x="279" 
d="M70 284c0 19.333 6.66699 35.833 20 49.5s29.666 20.5 48.999 20.5s35.833 -6.83301 49.5 -20.5s20.5 -30.167 20.5 -49.5s-6.83301 -35.666 -20.5 -48.999s-30.167 -20 -49.5 -20s-35.666 6.66699 -48.999 20s-20 29.666 -20 48.999z" />
    <glyph glyph-name="uni24C5" unicode="&#x24c5;" horiz-adv-x="821" 
d="M123 355c0 -84 27.667 -154.5 83 -211.5s123 -85.5 203 -85.5s147.667 28.5 203 85.5s83 127.5 83 211.5s-27.667 154.333 -83 211s-123 85 -203 85s-147.667 -28.333 -203 -85s-83 -127 -83 -211zM45 355c0 102 35.5 188.999 106.5 260.999s156.833 108 257.5 108
c101.333 0 187.833 -36.167 259.5 -108.5s107.5 -159.166 107.5 -260.499c0 -102 -35.833 -189.167 -107.5 -261.5s-158.167 -108.5 -259.5 -108.5c-100.667 0 -186.5 36.167 -257.5 108.5s-106.5 159.5 -106.5 261.5zM363 366.999h70.001c22 0 39.5 5.66699 52.5 17
s19.5 26.333 19.5 45c0 19.333 -6.33301 34.833 -19 46.5s-30.334 17.5 -53.001 17.5h-70v-126zM446.001 300.999h-83v-144h-76v402h159c38.667 0 71 -12.5 97 -37.5s39 -55.5 39 -91.5s-13 -66.5 -39 -91.5s-58.333 -37.5 -97 -37.5z" />
    <glyph glyph-name="filledbox" unicode="&#x25a0;" horiz-adv-x="921" 
d="M110 0v709h701v-709h-701z" />
    <glyph glyph-name="H22073" unicode="&#x25a1;" horiz-adv-x="921" 
d="M811 0h-701v709h701v-709zM192 633v-558h537v558h-537z" />
    <glyph glyph-name="triagup" unicode="&#x25b2;" horiz-adv-x="837" 
d="M420 724l417 -724h-837z" />
    <glyph glyph-name="uni25B3" unicode="&#x25b3;" horiz-adv-x="837" 
d="M420 724l417 -724h-837zM696 75l-277 486l-279 -486h556z" />
    <glyph glyph-name="lozenge" unicode="&#x25ca;" horiz-adv-x="556" 
d="M137 354l141 -242l140 242l-140 243zM35 354l202 355h82l202 -355l-202 -354h-82z" />
    <glyph glyph-name="circle" unicode="&#x25cb;" horiz-adv-x="831" 
d="M45 354c0 102.667 36 190.167 108 262.5s159.333 108.5 262 108.5s190.167 -36.167 262.5 -108.5s108.5 -159.833 108.5 -262.5s-36.167 -190 -108.5 -262s-159.833 -108 -262.5 -108s-190 36 -262 108s-108 159.333 -108 262zM129 354
c0 -81.333 27.667 -150.166 83 -206.499s123 -84.5 203 -84.5s147.667 28.167 203 84.5s83 125.166 83 206.499s-27.667 150.166 -83 206.499s-123 84.5 -203 84.5s-147.667 -28.167 -203 -84.5s-83 -125.166 -83 -206.499z" />
    <glyph glyph-name="H18533" unicode="&#x25cf;" horiz-adv-x="831" 
d="M45 354c0 102.667 36 190.167 108 262.5s159.333 108.5 262 108.5s190.167 -36.167 262.5 -108.5s108.5 -159.833 108.5 -262.5s-36.167 -190 -108.5 -262s-159.833 -108 -262.5 -108s-190 36 -262 108s-108 159.333 -108 262z" />
    <glyph glyph-name="uni262E" unicode="&#x262e;" horiz-adv-x="821" 
d="M776 355c0 -102 -35.833 -189.168 -107.5 -261.501s-158.167 -108.5 -259.5 -108.5c-100.667 0 -186.5 36.167 -257.5 108.5s-106.5 159.5 -106.5 261.5s35.5 189 106.5 261s156.833 108 257.5 108c101.333 0 187.833 -36.167 259.5 -108.5
s107.5 -159.166 107.5 -260.499zM695 354.999c0 76 -23.332 141.333 -69.999 196s-105.334 87 -176.001 97v-240l206 -207c26.667 48 40 99.333 40 154zM123.001 354.999c0 -55.333 13 -106 39 -152l205 205v240c-70.667 -10 -129 -42.333 -175 -97s-69 -120 -69 -196z
M449.001 60.999c59.333 8 111 33 155 75l-155 156v-231zM212.001 136.999c42.667 -42.667 94.333 -68 155 -76v231z" />
    <glyph glyph-name="uni2713" unicode="&#x2713;" horiz-adv-x="970" 
d="M945 670l-638 -687l-282 315l60 57l226 -247l574 621z" />
    <glyph glyph-name="uni2715" unicode="&#x2715;" horiz-adv-x="756" 
d="M672 -5l-294 300l-294 -300l-59 59l294 301l-293 300l60 59l292 -299l292 299l60 -59l-294 -300l295 -301z" />
    <glyph glyph-name="uni2780" unicode="&#x2780;" horiz-adv-x="821" 
d="M123 355c0 -84 27.667 -154.5 83 -211.5s123 -85.5 203 -85.5s147.667 28.5 203 85.5s83 127.5 83 211.5s-27.667 154.333 -83 211s-123 85 -203 85s-147.667 -28.333 -203 -85s-83 -127 -83 -211zM45 355c0 102 35.5 188.999 106.5 260.999s156.833 108 257.5 108
c101.333 0 187.833 -36.167 259.5 -108.5s107.5 -159.166 107.5 -260.499c0 -102 -35.833 -189.167 -107.5 -261.5s-158.167 -108.5 -259.5 -108.5c-100.667 0 -186.5 36.167 -257.5 108.5s-106.5 159.5 -106.5 261.5zM462 172.999h-77v245h-86v52
c24 0.666992 44.5 7.5 61.5 20.5s27.167 28.833 30.5 47.5h71v-365z" />
    <glyph glyph-name="uni2781" unicode="&#x2781;" horiz-adv-x="821" 
d="M123 355c0 -84 27.667 -154.5 83 -211.5s123 -85.5 203 -85.5s147.667 28.5 203 85.5s83 127.5 83 211.5s-27.667 154.333 -83 211s-123 85 -203 85s-147.667 -28.333 -203 -85s-83 -127 -83 -211zM45 355c0 102 35.5 188.999 106.5 260.999s156.833 108 257.5 108
c101.333 0 187.833 -36.167 259.5 -108.5s107.5 -159.166 107.5 -260.499c0 -102 -35.833 -189.167 -107.5 -261.5s-158.167 -108.5 -259.5 -108.5c-100.667 0 -186.5 36.167 -257.5 108.5s-106.5 159.5 -106.5 261.5zM350 401.999l-74 -0.000976562c-2 10 -3 20.333 -3 31
c0 32.667 12 60.334 36 83.001s56 34 96 34c39.333 0 71 -11.167 95 -33.5s36 -49.5 36 -81.5c0 -44 -23.333 -80.667 -70 -110l-72 -45c-18 -12 -28.333 -24.333 -31 -37h175v-65h-268v13c0 62 28.333 110.333 85 145l60 37c28.667 17.333 43 38.333 43 63
c0 14 -4.83301 25.833 -14.5 35.5s-22.834 14.5 -39.501 14.5c-17.333 0 -31.166 -5.33301 -41.499 -16s-15.5 -24.667 -15.5 -42c0 -8 1 -16.667 3 -26z" />
    <glyph glyph-name="uni2782" unicode="&#x2782;" horiz-adv-x="821" 
d="M45 355c0 102 35.5 188.999 106.5 260.999s156.833 108 257.5 108c101.333 0 187.833 -36.167 259.5 -108.5s107.5 -159.166 107.5 -260.499c0 -102 -35.833 -189.167 -107.5 -261.5s-158.167 -108.5 -259.5 -108.5c-100.667 0 -186.5 36.167 -257.5 108.5
s-106.5 159.5 -106.5 261.5zM123 354.999c0 -84 27.667 -154.5 83 -211.5s123 -85.5 203 -85.5s147.667 28.5 203 85.5s83 127.5 83 211.5s-27.667 154.333 -83 211s-123 85 -203 85s-147.667 -28.333 -203 -85s-83 -127 -83 -211zM374 336.999l-29.001 56l95 79h-171v65
h271v-63l-100 -80c30.667 -2.66699 56.334 -13.5 77.001 -32.5s31 -44.5 31 -76.5c0 -34 -13.5 -62.667 -40.5 -86s-61.833 -35 -104.5 -35c-40.667 0 -73.667 10 -99 30s-41.333 44.333 -48 73l67 27c3.33301 -19.333 12.166 -34.833 26.499 -46.5s31.833 -17.5 52.5 -17.5
c20 0 36.333 5.16699 49 15.5s19 23.5 19 39.5c0 19.333 -6.66699 33.5 -20 42.5s-29.333 13.5 -48 13.5c-9.33301 0 -18.666 -1.33301 -27.999 -4z" />
    <glyph glyph-name="uni2783" unicode="&#x2783;" horiz-adv-x="821" 
d="M123 355c0 -84 27.667 -154.5 83 -211.5s123 -85.5 203 -85.5s147.667 28.5 203 85.5s83 127.5 83 211.5s-27.667 154.333 -83 211s-123 85 -203 85s-147.667 -28.333 -203 -85s-83 -127 -83 -211zM45 355c0 102 35.5 188.999 106.5 260.999s156.833 108 257.5 108
c101.333 0 187.833 -36.167 259.5 -108.5s107.5 -159.166 107.5 -260.499c0 -102 -35.833 -189.167 -107.5 -261.5s-158.167 -108.5 -259.5 -108.5c-100.667 0 -186.5 36.167 -257.5 108.5s-106.5 159.5 -106.5 261.5zM235 249.999v73l177 220h85v-228h64v-65h-64v-72h-77
v72h-185zM420 314.999v139l-111 -139h111z" />
    <glyph glyph-name="uni2784" unicode="&#x2784;" horiz-adv-x="821" 
d="M123 355c0 -84 27.667 -154.5 83 -211.5s123 -85.5 203 -85.5s147.667 28.5 203 85.5s83 127.5 83 211.5s-27.667 154.333 -83 211s-123 85 -203 85s-147.667 -28.333 -203 -85s-83 -127 -83 -211zM45 355c0 102 35.5 188.999 106.5 260.999s156.833 108 257.5 108
c101.333 0 187.833 -36.167 259.5 -108.5s107.5 -159.166 107.5 -260.499c0 -102 -35.833 -189.167 -107.5 -261.5s-158.167 -108.5 -259.5 -108.5c-100.667 0 -186.5 36.167 -257.5 108.5s-106.5 159.5 -106.5 261.5zM257 254.999l66.002 30
c4.66699 -17.333 13.5 -31.166 26.5 -41.499s28.5 -15.5 46.5 -15.5c20 0 36.167 5.33301 48.5 16s18.5 25.667 18.5 45c0 20 -6.16699 35.333 -18.5 46s-28.5 16 -48.5 16c-24.667 0 -46 -9 -64 -27l-64 24l49 187h204v-66h-154l-23 -86c16.667 18.667 41 28 73 28
c37.333 0 67.333 -10.833 90 -32.5s34 -50.5 34 -86.5c0 -36.667 -13 -67.334 -39 -92.001s-61.333 -37 -106 -37c-34.667 0 -64.834 9.16699 -90.501 27.5s-41.834 39.833 -48.501 64.5z" />
    <glyph glyph-name="uni2785" unicode="&#x2785;" horiz-adv-x="821" 
d="M123 355c0 -84 27.667 -154.5 83 -211.5s123 -85.5 203 -85.5s147.667 28.5 203 85.5s83 127.5 83 211.5s-27.667 154.333 -83 211s-123 85 -203 85s-147.667 -28.333 -203 -85s-83 -127 -83 -211zM45 355c0 102 35.5 188.999 106.5 260.999s156.833 108 257.5 108
c101.333 0 187.833 -36.167 259.5 -108.5s107.5 -159.166 107.5 -260.499c0 -102 -35.833 -189.167 -107.5 -261.5s-158.167 -108.5 -259.5 -108.5c-100.667 0 -186.5 36.167 -257.5 108.5s-106.5 159.5 -106.5 261.5zM528 526.999l-18.002 -57.001
c-19.333 8.66699 -40 13 -62 13c-32.667 0 -60 -9 -82 -27s-35.667 -44 -41 -78c8.66699 12.667 21.334 23 38.001 31s34.334 12 53.001 12c39.333 0 70.833 -11.167 94.5 -33.5s35.5 -53.166 35.5 -92.499c0 -38 -14 -69 -42 -93s-63 -36 -105 -36
c-40.667 0 -76 14.333 -106 43s-45 70 -45 124c0 64 18.167 115.5 54.5 154.5s82.833 58.5 139.5 58.5c36 0 64.667 -6.33301 86 -19zM330.998 293.998c0 -19.333 6.83301 -34.666 20.5 -45.999s29.834 -17 48.501 -17c18 0 33.833 5.66699 47.5 17s20.5 26.666 20.5 45.999
s-6.83301 34.666 -20.5 45.999s-29.5 17 -47.5 17c-18.667 0 -34.834 -5.66699 -48.501 -17s-20.5 -26.666 -20.5 -45.999z" />
    <glyph glyph-name="uni2786" unicode="&#x2786;" horiz-adv-x="821" 
d="M123 355c0 -84 27.667 -154.5 83 -211.5s123 -85.5 203 -85.5s147.667 28.5 203 85.5s83 127.5 83 211.5s-27.667 154.333 -83 211s-123 85 -203 85s-147.667 -28.333 -203 -85s-83 -127 -83 -211zM45 355c0 102 35.5 188.999 106.5 260.999s156.833 108 257.5 108
c101.333 0 187.833 -36.167 259.5 -108.5s107.5 -159.166 107.5 -260.499c0 -102 -35.833 -189.167 -107.5 -261.5s-158.167 -108.5 -259.5 -108.5c-100.667 0 -186.5 36.167 -257.5 108.5s-106.5 159.5 -106.5 261.5zM559 532.999l-0.000976562 -69
c-12.667 -8.66699 -25.167 -19.167 -37.5 -31.5s-27.333 -30.166 -45 -53.499s-33 -53.333 -46 -90s-21.5 -77 -25.5 -121h-82c3.33301 36.667 10.333 72.167 21 106.5s22.334 62.666 35.001 84.999s25 42 37 59s22 29.5 30 37.5l13 11h-197v66h297z" />
    <glyph glyph-name="uni2787" unicode="&#x2787;" horiz-adv-x="821" 
d="M123 355c0 -84 27.667 -154.5 83 -211.5s123 -85.5 203 -85.5s147.667 28.5 203 85.5s83 127.5 83 211.5s-27.667 154.333 -83 211s-123 85 -203 85s-147.667 -28.333 -203 -85s-83 -127 -83 -211zM45 355c0 102 35.5 188.999 106.5 260.999s156.833 108 257.5 108
c101.333 0 187.833 -36.167 259.5 -108.5s107.5 -159.166 107.5 -260.499c0 -102 -35.833 -189.167 -107.5 -261.5s-158.167 -108.5 -259.5 -108.5c-100.667 0 -186.5 36.167 -257.5 108.5s-106.5 159.5 -106.5 261.5zM408 389.999c17.333 0 31.166 4.33301 41.499 13
s15.5 20.334 15.5 35.001c0 13.333 -5.16699 24.166 -15.5 32.499s-24.166 12.5 -41.499 12.5s-31.166 -4.16699 -41.499 -12.5s-15.5 -19.166 -15.5 -32.499c0 -14.667 5.16699 -26.334 15.5 -35.001s24.166 -13 41.499 -13zM408 229.999c21.333 0 37.833 4.5 49.5 13.5
s17.5 21.167 17.5 36.5c0 14.667 -5.83301 26.667 -17.5 36s-28.167 14 -49.5 14s-37.833 -4.66699 -49.5 -14s-17.5 -21.333 -17.5 -36c0 -15.333 5.83301 -27.5 17.5 -36.5s28.167 -13.5 49.5 -13.5zM408 165.999c-45.333 0 -80.833 10.167 -106.5 30.5
s-38.5 46.166 -38.5 77.499c0 18 6 34.833 18 50.5s28.667 27.5 50 35.5c-17.333 7.33301 -31 18.333 -41 33s-15 30.334 -15 47.001c0 30.667 12.5 55.834 37.5 75.501s56.833 29.5 95.5 29.5s70.5 -9.83301 95.5 -29.5s37.5 -44.834 37.5 -75.501
c0 -16.667 -5 -32.334 -15 -47.001s-23.667 -25.667 -41 -33c21.333 -8 38 -19.833 50 -35.5s18 -32.5 18 -50.5c0 -31.333 -12.833 -57.166 -38.5 -77.499s-61.167 -30.5 -106.5 -30.5z" />
    <glyph glyph-name="uni2788" unicode="&#x2788;" horiz-adv-x="821" 
d="M123 355c0 -84 27.667 -154.5 83 -211.5s123 -85.5 203 -85.5s147.667 28.5 203 85.5s83 127.5 83 211.5s-27.667 154.333 -83 211s-123 85 -203 85s-147.667 -28.333 -203 -85s-83 -127 -83 -211zM45 355c0 102 35.5 188.999 106.5 260.999s156.833 108 257.5 108
c101.333 0 187.833 -36.167 259.5 -108.5s107.5 -159.166 107.5 -260.499c0 -102 -35.833 -189.167 -107.5 -261.5s-158.167 -108.5 -259.5 -108.5c-100.667 0 -186.5 36.167 -257.5 108.5s-106.5 159.5 -106.5 261.5zM281 182.999l18.001 58.999
c19.333 -8.66699 40 -13 62 -13c34 0 62 8.5 84 25.5s35 42.833 39 77.5c-8.66699 -12.667 -21.334 -23 -38.001 -31s-34.334 -12 -53.001 -12c-38 0 -69.167 11.333 -93.5 34s-36.5 53.334 -36.5 92.001c0 37.333 14 68.166 42 92.499s63 36.5 105 36.5
c40.667 0 75.667 -14.333 105 -43s44 -70 44 -124c0 -67.333 -17.667 -119.666 -53 -156.999s-81.666 -56 -138.999 -56c-36 0 -64.667 6.33301 -86 19zM476.001 414.998c0 19.333 -6.66699 34.833 -20 46.5s-29.666 17.5 -48.999 17.5c-18.667 0 -34.667 -5.66699 -48 -17
s-20 -27 -20 -47s6.66699 -35.667 20 -47s29.333 -17 48 -17c19.333 0 35.666 5.83301 48.999 17.5s20 27.167 20 46.5z" />
    <glyph glyph-name="uniE000" unicode="&#xe000;" horiz-adv-x="814" 
d="M221 -16l-186 221h144v504h580v-83h-497v-421h144z" />
    <glyph glyph-name="uni21B5" unicode="&#xe001;" horiz-adv-x="1080" 
d="M224 145l-179.001 210h131c0.666992 102 37 189 109 261s158.667 108 260 108c64.667 0 125.334 -15.667 182.001 -47l-37 -74c-45.333 25.333 -93.333 38 -144 38c-80 0 -147.667 -27.833 -203 -83.5s-83 -123.167 -83 -202.5h143zM913.999 354
c-0.666992 -102.667 -36.999 -189.833 -108.999 -261.5s-158.667 -107.5 -260 -107.5c-64.667 0 -125.334 15.667 -182.001 47l37 74c45.333 -25.333 93.333 -38 144 -38c80 0 147.667 27.833 203 83.5s83 123.167 83 202.5h-138l179 210l179 -210h-136z" />
    <glyph glyph-name="uniE002" unicode="&#xe002;" horiz-adv-x="949" 
d="M561 354l178.999 210l179 -210h-130c0 -102 -36 -189 -108 -261s-159.333 -108 -262 -108c-102 0 -189 36 -261 108s-108 159 -108 261c0 102.667 36 190 108 262s159 108 261 108c64.667 0 125.334 -15.667 182.001 -47l-37 -74c-45.333 25.333 -93.333 38 -144 38
c-80 0 -147.667 -27.833 -203 -83.5s-83 -123.5 -83 -203.5s27.667 -148 83 -204s123 -84 203 -84s147.5 28 202.5 84s82.5 124 82.5 204h-144z" />
    <glyph glyph-name="uniFB00" unicode="&#xfb00;" horiz-adv-x="659" 
d="M598 639c-20.667 0 -38.502 -6.16504 -53.502 -18.498s-22.5 -33.5 -22.5 -63.5v-76h116v-85h-116v-396h-97v396h-219v-396h-97v396h-89v85h89v81c0 51.333 15 91.666 45 120.999s67.667 44 113 44c28.667 0 47.334 -3.33301 56.001 -10v-84c-10 4 -23.667 6 -41 6
c-20.667 0 -38.5 -6.16699 -53.5 -18.5s-22.5 -33.5 -22.5 -63.5v-76h219v81c0 51.333 15 91.666 45 120.999s67.667 44 113 44c28.667 0 47.334 -3.33301 56.001 -10v-84c-10 4 -23.667 6 -41 6z" />
    <glyph glyph-name="fi" unicode="&#xfb01;" horiz-adv-x="604" 
d="M267 727c28.667 0 47.333 -3.33203 56 -9.99902v-84c-10 4 -23.667 6 -41 6c-20.667 0 -38.5 -6 -53.5 -18s-22.5 -33 -22.5 -63v-77h318v-481h-93v396h-225v-396h-97v396h-89v85h89v81c0 51.333 15 91.666 45 120.999s67.667 44 113 44zM409.999 665.001
c0 18.667 6.5 34.667 19.5 48s28.833 20 47.5 20c19.333 0 35.5 -6.5 48.5 -19.5s19.5 -29.167 19.5 -48.5c0 -18.667 -6.66699 -34.5 -20 -47.5s-29.333 -19.5 -48 -19.5s-34.5 6.5 -47.5 19.5s-19.5 28.833 -19.5 47.5z" />
    <glyph glyph-name="fl" unicode="&#xfb02;" horiz-adv-x="602" 
d="M282 639c-20.667 0 -38.501 -6.16602 -53.501 -18.499s-22.5 -33.5 -22.5 -63.5v-76h222v243h94v-724h-94v396h-222v-396h-97v396h-89v85h89v81c0 51.333 15 91.666 45 120.999s67.667 44 113 44c28.667 0 47.334 -3.33301 56.001 -10v-84c-10 4 -23.667 6 -41 6z" />
    <glyph glyph-name="uniFB03" unicode="&#xfb03;" horiz-adv-x="920" 
d="M109 481l-0.00195312 81.002c0 51.333 15 91.666 45 120.999s67.667 44 113 44c28.667 0 47.334 -3.33301 56.001 -10v-84c-10 4 -23.667 6 -41 6c-20.667 0 -38.5 -6.16699 -53.5 -18.5s-22.5 -33.5 -22.5 -63.5v-76h219v81c0 51.333 15 91.666 45 120.999
s67.667 44 113 44c28.667 0 47.334 -3.33301 56.001 -10v-84c-10 4 -23.667 6 -41 6c-20.667 0 -38.5 -6.16699 -53.5 -18.5s-22.5 -33.5 -22.5 -63.5v-76h318v-481h-93v396h-225v-396h-97v396h-219v-396h-97v396h-89v85h89zM725.998 665.002c0 18.667 6.5 34.667 19.5 48
s28.833 20 47.5 20c19.333 0 35.5 -6.5 48.5 -19.5s19.5 -29.167 19.5 -48.5c0 -18.667 -6.66699 -34.5 -20 -47.5s-29.333 -19.5 -48 -19.5s-34.5 6.5 -47.5 19.5s-19.5 28.833 -19.5 47.5z" />
    <glyph glyph-name="uniFB04" unicode="&#xfb04;" horiz-adv-x="920" 
d="M109 481l-0.00195312 81.002c0 51.333 15 91.666 45 120.999s67.667 44 113 44c28.667 0 47.334 -3.33301 56.001 -10v-84c-10 4 -23.667 6 -41 6c-20.667 0 -38.5 -6.16699 -53.5 -18.5s-22.5 -33.5 -22.5 -63.5v-76h219v81c0 51.333 15 91.666 45 120.999
s67.667 44 113 44c28.667 0 47.334 -3.33301 56.001 -10v-84c-10 4 -23.667 6 -41 6c-20.667 0 -38.5 -6.16699 -53.5 -18.5s-22.5 -33.5 -22.5 -63.5v-76h225v243h93v-724h-93v396h-225v-396h-97v396h-219v-396h-97v396h-89v85h89z" />
    <glyph glyph-name="uniFEFF" unicode="&#xfeff;" horiz-adv-x="0" 
 />
    <glyph glyph-name="zero.numr" horiz-adv-x="426" 
d="M138 465c0 -82 25 -123 75 -123s75 41 75 123c0 82.667 -25 124 -75 124s-75 -41.333 -75 -124zM60 465c0 56 11.667 100 35 132c27.333 38.667 66.666 58 117.999 58s90.666 -19.333 117.999 -58c23.333 -32 35 -76 35 -132c0 -55.333 -11.667 -99 -35 -131
c-27.333 -38.667 -66.666 -58 -117.999 -58s-90.666 19.333 -117.999 58c-23.333 32 -35 75.667 -35 131z" />
    <glyph glyph-name="one.numr" horiz-adv-x="303" 
d="M213 283h-77v245h-86v52c24 0.666992 44.5 7.5 61.5 20.5s27.167 28.833 30.5 47.5h71v-365z" />
    <glyph glyph-name="two.numr" horiz-adv-x="389" 
d="M141 507h-74c-2 10 -3 20.333 -3 31c0 32.667 12 60.334 36 83.001s56 34 96 34c39.333 0 71 -11.167 95 -33.5s36 -49.5 36 -81.5c0 -44 -23.333 -80.667 -70 -110l-72 -45c-18 -12 -28.333 -24.333 -31 -37h175v-65h-268v13c0 62 28.333 110.333 85 145l60 37
c28.667 17.333 43 38.333 43 63c0 14 -4.83301 25.833 -14.5 35.5s-22.834 14.5 -39.501 14.5c-17.333 0 -31.166 -5.33301 -41.499 -16s-15.5 -24.667 -15.5 -42c0 -8.66699 1 -17.334 3 -26.001z" />
    <glyph glyph-name="three.numr" horiz-adv-x="412" 
d="M178 448l-29.001 56l95 79h-171v65h271v-63l-100 -80c30.667 -2.66699 56.334 -13.5 77.001 -32.5s31 -44.5 31 -76.5c0 -34 -13.5 -62.667 -40.5 -86s-61.833 -35 -104.5 -35c-40.667 0 -73.667 10 -99 30s-41.333 44.333 -48 73l67 27
c3.33301 -19.333 12.166 -34.833 26.499 -46.5s31.833 -17.5 52.5 -17.5c20 0 36.333 5.16699 49 15.5s19 23.5 19 39.5c0 19.333 -6.66699 33.5 -20 42.5s-29.333 13.5 -48 13.5c-9.33301 0 -18.666 -1.33301 -27.999 -4z" />
    <glyph glyph-name="four.numr" horiz-adv-x="446" 
d="M60 355v73l177 220h85v-228h64v-65h-64v-72h-77v72h-185zM245 420v139l-111 -139h111z" />
    <glyph glyph-name="five.numr" horiz-adv-x="379" 
d="M60 368l66.002 30c4.66699 -17.333 13.5 -31.166 26.5 -41.499s28.5 -15.5 46.5 -15.5c20 0 36.167 5.33301 48.5 16s18.5 25.667 18.5 45c0 20 -6.16699 35.333 -18.5 46s-28.5 16 -48.5 16c-24.667 0 -46 -9 -64 -27l-64 24l49 187h204v-66h-154l-23 -86
c16.667 18.667 41 28 73 28c37.333 0 67.333 -10.833 90 -32.5s34 -50.5 34 -86.5c0 -36.667 -13 -67.334 -39 -92.001s-61.333 -37 -106 -37c-34.667 0 -64.834 9.16699 -90.501 27.5s-41.834 39.833 -48.501 64.5z" />
    <glyph glyph-name="six.numr" horiz-adv-x="418" 
d="M340 637l-18.002 -57.001c-19.333 8.66699 -40 13 -62 13c-32.667 0 -60 -9 -82 -27s-35.667 -44 -41 -78c8.66699 12.667 21.334 23 38.001 31s34.334 12 53.001 12c39.333 0 70.833 -11.167 94.5 -33.5s35.5 -53.166 35.5 -92.499c0 -38 -14 -69 -42 -93
s-63 -36 -105 -36c-40.667 0 -76 14.333 -106 43s-45 70 -45 124c0 64 18.167 115.5 54.5 154.5s82.833 58.5 139.5 58.5c36 0 64.667 -6.33301 86 -19zM142.998 403.999c0 -19.333 6.83301 -34.666 20.5 -45.999s29.834 -17 48.501 -17c18 0 33.833 5.66699 47.5 17
s20.5 26.666 20.5 45.999s-6.83301 34.666 -20.5 45.999s-29.5 17 -47.5 17c-18.667 0 -34.834 -5.66699 -48.501 -17s-20.5 -26.666 -20.5 -45.999z" />
    <glyph glyph-name="seven.numr" horiz-adv-x="417" 
d="M357 648l-0.000976562 -69c-12.667 -8.66699 -25.167 -19.167 -37.5 -31.5s-27.333 -30.166 -45 -53.499s-33 -53.333 -46 -90s-21.5 -77 -25.5 -121h-82c3.33301 36.667 10.333 72.167 21 106.5s22.334 62.666 35.001 84.999s25 42 37 59s22 29.167 30 36.5l13 12h-197
v66h297z" />
    <glyph glyph-name="eight.numr" horiz-adv-x="410" 
d="M205 500c17.333 0 31.166 4.33301 41.499 13s15.5 20.334 15.5 35.001c0 13.333 -5.16699 24.166 -15.5 32.499s-24.166 12.5 -41.499 12.5s-31.166 -4.16699 -41.499 -12.5s-15.5 -19.166 -15.5 -32.499c0 -14.667 5.16699 -26.334 15.5 -35.001s24.166 -13 41.499 -13z
M205 340c21.333 0 37.833 4.5 49.5 13.5s17.5 21.167 17.5 36.5c0 14.667 -5.83301 26.667 -17.5 36s-28.167 14 -49.5 14s-37.833 -4.66699 -49.5 -14s-17.5 -21.333 -17.5 -36c0 -15.333 5.83301 -27.5 17.5 -36.5s28.167 -13.5 49.5 -13.5zM205 276
c-45.333 0 -80.833 10.167 -106.5 30.5s-38.5 46.166 -38.5 77.499c0 18 6 34.833 18 50.5s28.667 27.5 50 35.5c-17.333 7.33301 -31 18.333 -41 33s-15 30.334 -15 47.001c0 30.667 12.5 55.834 37.5 75.501s56.833 29.5 95.5 29.5s70.5 -9.83301 95.5 -29.5
s37.5 -44.834 37.5 -75.501c0 -16.667 -5 -32.334 -15 -47.001s-23.667 -25.667 -41 -33c21.333 -8 38 -19.833 50 -35.5s18 -32.5 18 -50.5c0 -31.333 -12.833 -57.166 -38.5 -77.499s-61.167 -30.5 -106.5 -30.5z" />
    <glyph glyph-name="nine.numr" horiz-adv-x="416" 
d="M78 293l18.001 58.999c19.333 -8.66699 40 -13 62 -13c34 0 62 8.5 84 25.5s35 42.833 39 77.5c-8.66699 -12.667 -21.334 -23 -38.001 -31s-34.334 -12 -53.001 -12c-38 0 -69.167 11.333 -93.5 34s-36.5 53.334 -36.5 92.001c0 37.333 14 68.166 42 92.499
s63 36.5 105 36.5c40.667 0 75.667 -14.333 105 -43s44 -70 44 -124c0 -67.333 -17.667 -119.666 -53 -156.999s-81.666 -56 -138.999 -56c-36 0 -64.667 6.33301 -86 19zM273.001 524.999c0 19.333 -6.66699 34.833 -20 46.5s-29.666 17.5 -48.999 17.5
c-18.667 0 -34.667 -5.66699 -48 -17s-20 -27 -20 -47s6.66699 -35.667 20 -47s29.333 -17 48 -17c19.333 0 35.666 5.83301 48.999 17.5s20 27.167 20 46.5z" />
    <glyph glyph-name="zero.dnom" horiz-adv-x="426" 
d="M138 182c0 -82 25 -123 75 -123s75 41 75 123c0 82.667 -25 124 -75 124s-75 -41.333 -75 -124zM60 182c0 56 11.667 100 35 132c27.333 38.667 66.666 58 117.999 58s90.666 -19.333 117.999 -58c23.333 -32 35 -76 35 -132c0 -55.333 -11.667 -99 -35 -131
c-27.333 -38.667 -66.666 -58 -117.999 -58s-90.666 19.333 -117.999 58c-23.333 32 -35 75.667 -35 131z" />
    <glyph glyph-name="one.dnom" horiz-adv-x="303" 
d="M213 0h-77v245h-86v52c24 0.666992 44.5 7.5 61.5 20.5s27.167 28.833 30.5 47.5h71v-365z" />
    <glyph glyph-name="two.dnom" horiz-adv-x="389" 
d="M141 224l-74 -0.000976562c-2 10 -3 20.333 -3 31c0 32.667 12 60.334 36 83.001s56 34 96 34c39.333 0 71 -11.167 95 -33.5s36 -49.5 36 -81.5c0 -44 -23.333 -80.667 -70 -110l-72 -45c-18 -12 -28.333 -24.333 -31 -37h175v-65h-268v13c0 62 28.333 110.333 85 145
l60 37c28.667 17.333 43 38.333 43 63c0 14 -4.83301 25.833 -14.5 35.5s-22.834 14.5 -39.501 14.5c-17.333 0 -31.166 -5.33301 -41.499 -16s-15.5 -24.667 -15.5 -42c0 -8 1 -16.667 3 -26z" />
    <glyph glyph-name="three.dnom" horiz-adv-x="412" 
d="M178 166l-29.001 56l95 79h-171v65h271v-63l-100 -80c30.667 -2.66699 56.334 -13.5 77.001 -32.5s31 -44.5 31 -76.5c0 -34 -13.5 -62.667 -40.5 -86s-61.833 -35 -104.5 -35c-40.667 0 -73.667 10 -99 30s-41.333 44.333 -48 73l67 27
c3.33301 -19.333 12.166 -34.833 26.499 -46.5s31.833 -17.5 52.5 -17.5c20 0 36.333 5.16699 49 15.5s19 23.5 19 39.5c0 19.333 -6.66699 33.5 -20 42.5s-29.333 13.5 -48 13.5c-9.33301 0 -18.666 -1.33301 -27.999 -4z" />
    <glyph glyph-name="four.dnom" horiz-adv-x="446" 
d="M60 72v73l177 220h85v-228h64v-65h-64v-72h-77v72h-185zM245 137v139l-111 -139h111z" />
    <glyph glyph-name="five.dnom" horiz-adv-x="404" 
d="M60 85l66.002 30c4.66699 -17.333 13.5 -31.166 26.5 -41.499s28.5 -15.5 46.5 -15.5c20 0 36.167 5.33301 48.5 16s18.5 25.667 18.5 45c0 20 -6.16699 35.333 -18.5 46s-28.5 16 -48.5 16c-24.667 0 -46 -9 -64 -27l-64 24l49 187h204v-66h-154l-23 -86
c16.667 18.667 41 28 73 28c37.333 0 67.333 -10.833 90 -32.5s34 -50.5 34 -86.5c0 -36.667 -13 -67.334 -39 -92.001s-61.333 -37 -106 -37c-34.667 0 -64.834 9.16699 -90.501 27.5s-41.834 39.833 -48.501 64.5z" />
    <glyph glyph-name="six.dnom" horiz-adv-x="418" 
d="M340 354l-18.002 -57.001c-19.333 8.66699 -40 13 -62 13c-32.667 0 -60 -9 -82 -27s-35.667 -44 -41 -78c8.66699 12.667 21.334 23 38.001 31s34.334 12 53.001 12c39.333 0 70.833 -11.167 94.5 -33.5s35.5 -53.166 35.5 -92.499c0 -38 -14 -69 -42 -93
s-63 -36 -105 -36c-40.667 0 -76 14.333 -106 43s-45 70 -45 124c0 64 18.167 115.5 54.5 154.5s82.833 58.5 139.5 58.5c36 0 64.667 -6.33301 86 -19zM142.998 120.999c0 -19.333 6.83301 -34.666 20.5 -45.999s29.834 -17 48.501 -17c18 0 33.833 5.66699 47.5 17
s20.5 26.666 20.5 45.999s-6.83301 34.666 -20.5 45.999s-29.5 17 -47.5 17c-18.667 0 -34.834 -5.66699 -48.501 -17s-20.5 -26.666 -20.5 -45.999z" />
    <glyph glyph-name="seven.dnom" horiz-adv-x="417" 
d="M357 365l-0.000976562 -69c-12.667 -8.66699 -25.167 -19.167 -37.5 -31.5s-27.333 -30.166 -45 -53.499s-33 -53.333 -46 -90s-21.5 -77 -25.5 -121h-82c3.33301 36.667 10.333 72.167 21 106.5s22.334 62.666 35.001 84.999s25 42 37 59s22 29.5 30 37.5l13 11h-197v66
h297z" />
    <glyph glyph-name="eight.dnom" horiz-adv-x="410" 
d="M205 217c17.333 0 31.166 4.33301 41.499 13s15.5 20.334 15.5 35.001c0 13.333 -5.16699 24.166 -15.5 32.499s-24.166 12.5 -41.499 12.5s-31.166 -4.16699 -41.499 -12.5s-15.5 -19.166 -15.5 -32.499c0 -14.667 5.16699 -26.334 15.5 -35.001s24.166 -13 41.499 -13z
M205 57c21.333 0 37.833 4.5 49.5 13.5s17.5 21.167 17.5 36.5c0 14.667 -5.83301 26.667 -17.5 36s-28.167 14 -49.5 14s-37.833 -4.66699 -49.5 -14s-17.5 -21.333 -17.5 -36c0 -15.333 5.83301 -27.5 17.5 -36.5s28.167 -13.5 49.5 -13.5zM205 -7
c-45.333 0 -80.833 10.167 -106.5 30.5s-38.5 46.166 -38.5 77.499c0 18 6 34.833 18 50.5s28.667 27.5 50 35.5c-17.333 7.33301 -31 18.333 -41 33s-15 30.334 -15 47.001c0 30.667 12.5 55.834 37.5 75.501s56.833 29.5 95.5 29.5s70.5 -9.83301 95.5 -29.5
s37.5 -44.834 37.5 -75.501c0 -16.667 -5 -32.334 -15 -47.001s-23.667 -25.667 -41 -33c21.333 -8 38 -19.833 50 -35.5s18 -32.5 18 -50.5c0 -31.333 -12.833 -57.166 -38.5 -77.499s-61.167 -30.5 -106.5 -30.5z" />
    <glyph glyph-name="nine.dnom" horiz-adv-x="416" 
d="M78 12l18.001 58.999c19.333 -8.66699 40 -13 62 -13c34 0 62 8.5 84 25.5s35 42.833 39 77.5c-8.66699 -12.667 -21.334 -23 -38.001 -31s-34.334 -12 -53.001 -12c-38 0 -69.167 11.333 -93.5 34s-36.5 53.334 -36.5 92.001c0 37.333 14 68.166 42 92.499
s63 36.5 105 36.5c40.667 0 75.667 -14.333 105 -43s44 -70 44 -124c0 -67.333 -17.667 -119.666 -53 -156.999s-81.666 -56 -138.999 -56c-36 0 -64.667 6.33301 -86 19zM273.001 243.999c0 19.333 -6.66699 34.833 -20 46.5s-29.666 17.5 -48.999 17.5
c-18.667 0 -34.667 -5.66699 -48 -17s-20 -27 -20 -47s6.66699 -35.667 20 -47s29.333 -17 48 -17c19.333 0 35.666 5.83301 48.999 17.5s20 27.167 20 46.5z" />
    <glyph glyph-name="space.frac" horiz-adv-x="50" 
 />
    <glyph glyph-name="a.ordn" horiz-adv-x="428" 
d="M66 401c0 28.667 9.66699 52.001 29 70.001s44 29 74 33l88 12c17.333 2.66699 26 11 26 25c0 16 -5.66699 29.333 -17 40s-28.333 16 -51 16c-21.333 0 -38.333 -6 -51 -18s-20 -27.667 -22 -47l-69 16c3.33301 31.333 17.833 57.666 43.5 78.999s58.167 32 97.5 32
c48.667 0 84.667 -11.833 108 -35.5s35 -53.834 35 -90.501v-169c0 -26 1.33301 -44.333 4 -55h-71c-2.66699 10.667 -4 25.334 -4 44.001c-21.333 -36 -56.333 -54 -105 -54c-34.667 0 -62.5 10 -83.5 30s-31.5 44 -31.5 72zM193 359.001c60 0 90 31.001 90 93.001v15
l-95 -15c-31.333 -4.66699 -47 -20.334 -47 -47.001c0 -12.667 4.66699 -23.5 14 -32.5s22 -13.5 38 -13.5z" />
    <glyph glyph-name="b.ordn" horiz-adv-x="494" 
d="M161 309l-72.998 0.000976562v507h74v-212c8 15.333 21.833 28.166 41.5 38.499s42.167 15.5 67.5 15.5c49.333 0 87.666 -16.667 114.999 -50s41 -76 41 -128s-14.333 -95 -43 -129s-67.334 -51 -116.001 -51c-48 0 -83.667 18.667 -107 56v-47zM351.002 480.001
c0 34.667 -8.5 61.833 -25.5 81.5s-39.833 29.5 -68.5 29.5c-28 0 -51 -10 -69 -30s-27 -47 -27 -81c0 -34.667 9 -62.167 27 -82.5s41 -30.5 69 -30.5s50.667 10.167 68 30.5s26 47.833 26 82.5z" />
    <glyph glyph-name="c.ordn" horiz-adv-x="462" 
d="M239 590c-26.667 0 -49.4971 -9.99805 -68.4971 -29.998s-28.5 -47 -28.5 -81c0 -34.667 9.5 -61.834 28.5 -81.501s42.167 -29.5 69.5 -29.5c25.333 0 45.166 6.5 59.499 19.5s24.166 28.167 29.499 45.5l67 -26c-10 -29.333 -28.333 -54.666 -55 -75.999
s-60.334 -32 -101.001 -32c-49.333 0 -90.5 17.167 -123.5 51.5s-49.5 77.166 -49.5 128.499c0 52 16.333 95 49 129s73.667 51 123 51c42 0 76.167 -10.833 102.5 -32.5s43.5 -47.834 51.5 -78.501l-67 -26c-12.667 45.333 -41.667 68 -87 68z" />
    <glyph glyph-name="d.ordn" horiz-adv-x="495" 
d="M143 480c0 -34 8.5 -61.499 25.5 -82.499s39.833 -31.5 68.5 -31.5c28 0 50.5 10.667 67.5 32s25.5 48.666 25.5 81.999c0 34 -8.5 60.833 -25.5 80.5s-39.5 29.5 -67.5 29.5s-50.667 -10.167 -68 -30.5s-26 -46.833 -26 -79.5zM403 816.001l0.000976562 -444.998
c0 -27.333 1 -48 3 -62h-72c-2.66699 21.333 -4 36.666 -4 45.999c-8 -15.333 -21 -28.333 -39 -39s-38.667 -16 -62 -16c-48.667 0 -87.834 17 -117.501 51s-44.5 77 -44.5 129c0 49.333 15 91.166 45 125.499s68.667 51.5 116 51.5c53.333 0 87 -17.333 101 -52v211h74z
" />
    <glyph glyph-name="e.ordn" horiz-adv-x="461" 
d="M144 515h174c-0.666992 22.667 -8.66699 41.667 -24 57s-36.333 23 -63 23c-25.333 0 -45.833 -8 -61.5 -24s-24.167 -34.667 -25.5 -56zM327 427l64.001 -21c-9.33301 -31.333 -27.5 -57 -54.5 -77s-59.833 -30 -98.5 -30c-47.333 0 -87.833 16.5 -121.5 49.5
s-50.5 76.833 -50.5 131.5c0 52 16.333 94.833 49 128.5s71 50.5 115 50.5c51.333 0 91.666 -16 120.999 -48s44 -75 44 -129c0 -4 -0.166992 -7.83301 -0.5 -11.5s-0.5 -6.5 -0.5 -8.5l-1 -4h-251c0.666992 -27.333 10.167 -49.833 28.5 -67.5s40.833 -26.5 67.5 -26.5
c45.333 0 75 21 89 63z" />
    <glyph glyph-name="f.ordn" horiz-adv-x="350" 
d="M283 582l-80 0.000976562v-274h-76v274h-61v67h61v50c0 37.333 10.667 66.666 32 87.999s49.333 32 84 32c21.333 0 35 -2.33301 41 -7v-65c-8 2.66699 -17.667 4 -29 4c-14 0 -26.167 -4.16699 -36.5 -12.5s-15.5 -22.5 -15.5 -42.5v-47h80v-67z" />
    <glyph glyph-name="g.ordn" horiz-adv-x="465" 
d="M67 291l70.998 16.999c2.66699 -22.667 12 -41.167 28 -55.5s36 -21.5 60 -21.5c66 0 99 35 99 105v40c-18 -34 -51.667 -51 -101 -51c-45.333 0 -82.666 15.5 -111.999 46.5s-44 70.5 -44 118.5c0 46.667 14.5 85.834 43.5 117.501s66.5 47.5 112.5 47.5
c50.667 0 84.667 -17 102 -51v44h73v-310c0 -49.333 -13.833 -90.333 -41.5 -123s-71.167 -49 -130.5 -49c-43.333 0 -79.666 11.833 -108.999 35.5s-46.333 53.5 -51 89.5zM235.998 387.999c27.333 0 49.333 9.33105 66 27.998s25 43.334 25 74.001
c0 30 -8.5 54.167 -25.5 72.5s-38.833 27.5 -65.5 27.5c-27.333 0 -49.5 -9.16699 -66.5 -27.5s-25.5 -42.5 -25.5 -72.5c0 -31.333 8.33301 -56.166 25 -74.499s39 -27.5 67 -27.5z" />
    <glyph glyph-name="h.ordn" horiz-adv-x="473" 
d="M163 508v-199h-75v507h75v-203c22.667 30 55.667 45 99 45c40 0 70.5 -12.5 91.5 -37.5s31.5 -57.167 31.5 -96.5v-215h-75v202c0 52.667 -24.667 79 -74 79c-22 0 -39.5 -7.66699 -52.5 -23s-19.833 -35 -20.5 -59z" />
    <glyph glyph-name="i.ordn" horiz-adv-x="278" 
d="M176 309h-74v339h74v-339zM89 771c0 14 4.83301 26 14.5 36s21.5 15 35.5 15s25.833 -5 35.5 -15s14.5 -22 14.5 -36s-4.83301 -25.833 -14.5 -35.5s-21.5 -14.5 -35.5 -14.5s-25.833 4.83301 -35.5 14.5s-14.5 21.5 -14.5 35.5z" />
    <glyph glyph-name="j.ordn" horiz-adv-x="297" 
d="M137 278v370h75v-375c0 -32 -8.83301 -57.833 -26.5 -77.5s-41.5 -29.5 -71.5 -29.5c-19.333 0 -34 1.66699 -44 5v62c8 -1.33301 15.667 -2 23 -2c29.333 0 44 15.667 44 47zM124 772c0 14 4.83301 26 14.5 36s21.5 15 35.5 15s25.833 -5 35.5 -15s14.5 -22 14.5 -36
s-4.83301 -25.833 -14.5 -35.5s-21.5 -14.5 -35.5 -14.5s-25.833 4.83301 -35.5 14.5s-14.5 21.5 -14.5 35.5z" />
    <glyph glyph-name="k.ordn" horiz-adv-x="430" 
d="M400 648l-141 -143l144 -196h-93l-104 143l-44 -45v-98h-74v507h74v-310l137 142h101z" />
    <glyph glyph-name="l.ordn" horiz-adv-x="251" 
d="M163 309h-75v507h75v-507z" />
    <glyph glyph-name="m.ordn" horiz-adv-x="681" 
d="M162 309l-74.002 0.000976562v339h71v-44c10 17.333 24.333 30.666 43 39.999s38.334 14 59.001 14c50.667 0 84.334 -20.333 101.001 -61c24.667 40.667 62 61 112 61c32.667 0 60.667 -11 84 -33s35 -54 35 -96v-220h-73v209c0 22 -5.66699 39.667 -17 53
s-28.333 20 -51 20c-22 0 -39.833 -7.5 -53.5 -22.5s-20.5 -33.833 -20.5 -56.5v-203h-74v209c0 48.667 -22.667 73 -68 73c-22 0 -39.833 -7.5 -53.5 -22.5s-20.5 -34.167 -20.5 -57.5v-202z" />
    <glyph glyph-name="n.ordn" horiz-adv-x="473" 
d="M163 505v-196h-75v339h73v-46c22 37.333 56 56 102 56c39.333 0 69.5 -12.5 90.5 -37.5s31.5 -57.167 31.5 -96.5v-215h-75v202c0 52.667 -24.667 79 -74 79c-22.667 0 -40.5 -8 -53.5 -24s-19.5 -36.333 -19.5 -61z" />
    <glyph glyph-name="o.ordn" horiz-adv-x="484" 
d="M242 366c27.333 0 50.667 10 70 30s29 47.667 29 83s-9.5 62.833 -28.5 82.5s-42.5 29.5 -70.5 29.5s-51.667 -9.83301 -71 -29.5s-29 -47.167 -29 -82.5s9.66699 -63 29 -83s43 -30 71 -30zM242.001 659c50.667 0 92.5 -17 125.5 -51s49.5 -77 49.5 -129
s-16.5 -95 -49.5 -129s-74.833 -51 -125.5 -51s-92.5 17 -125.5 51s-49.5 77 -49.5 129s16.5 95 49.5 129s74.833 51 125.5 51z" />
    <glyph glyph-name="p.ordn" horiz-adv-x="494" 
d="M162 176l-74.001 -0.00195312v472h73v-49c8.66699 16.667 22.667 30.334 42 41.001s42 16 68 16c48.667 0 86.834 -16.667 114.501 -50s41.5 -75.666 41.5 -126.999s-14.5 -94 -43.5 -128s-67.5 -51 -115.5 -51c-48.667 0 -84 16.667 -106 50v-174zM351.999 478.998
c0 32.667 -8.66699 59.334 -26 80.001s-40.333 31 -69 31c-28 0 -51 -10.333 -69 -31s-27 -47.334 -27 -80.001s9 -59.5 27 -80.5s41 -31.5 69 -31.5s50.833 10.333 68.5 31s26.5 47.667 26.5 81z" />
    <glyph glyph-name="q.ordn" horiz-adv-x="477" 
d="M405 176l-74 -0.000976562v176c-19.333 -34.667 -53.333 -52 -102 -52c-48 0 -87 17.333 -117 52s-45 77.334 -45 128.001c0 49.333 14.667 91.166 44 125.499s68 51.5 116 51.5c27.333 0 50 -5.66699 68 -17s30.667 -24.666 38 -39.999v48h72v-472zM143 479.999
c0 -33.333 8.66699 -60.666 26 -81.999s40 -32 68 -32s50.833 10.667 68.5 32s26.5 48.666 26.5 81.999c0 32.667 -8.83301 59.167 -26.5 79.5s-40.5 30.5 -68.5 30.5s-50.667 -10.167 -68 -30.5s-26 -46.833 -26 -79.5z" />
    <glyph glyph-name="r.ordn" horiz-adv-x="288" 
d="M266 651v-78c-10 2 -19.667 3 -29 3c-60 0 -90 -34 -90 -102v-165h-75v339h73v-56c18 40.667 50.667 61 98 61c6 0 13.667 -0.666992 23 -2z" />
    <glyph glyph-name="s.ordn" horiz-adv-x="401" 
d="M67 400l66.999 20.001c1.33301 -17.333 8.33301 -31.833 21 -43.5s29.667 -17.5 51 -17.5c16.667 0 29.834 4.16699 39.501 12.5s14.5 18.166 14.5 29.499c0 20.667 -13.667 34 -41 40l-54 12c-27.333 6 -48.833 17.833 -64.5 35.5s-23.5 38.167 -23.5 61.5
c0 30 12 55.667 36 77s53 32 87 32c41.333 0 72.333 -10 93 -30s33 -41.333 37 -64l-64 -20c-2 13.333 -8.16699 25.5 -18.5 36.5s-26.166 16.5 -47.499 16.5c-15.333 0 -27.833 -4.16699 -37.5 -12.5s-14.5 -17.833 -14.5 -28.5c0 -20 12 -32.667 36 -38l53 -11
c31.333 -6.66699 55.166 -19 71.499 -37s24.5 -39.667 24.5 -65c0 -28 -11.167 -52.833 -33.5 -74.5s-53.5 -32.5 -93.5 -32.5c-43.333 0 -76.5 10.667 -99.5 32s-36.167 44.333 -39.5 69z" />
    <glyph glyph-name="t.ordn" horiz-adv-x="324" 
d="M193 753v-105.001h72v-67h-72v-165c0 -29.333 15 -44 45 -44c9.33301 0 18.333 1 27 3v-63c-11.333 -4.66699 -27.333 -7 -48 -7c-30 0 -54 8.83301 -72 26.5s-27 41.834 -27 72.501v177h-63v67h18c17.333 0 30.333 4.83301 39 14.5s13 22.5 13 38.5v52h68z" />
    <glyph glyph-name="u.ordn" horiz-adv-x="440" 
d="M293 349c-8.66699 -16 -22 -28.334 -40 -37.001s-37.333 -13 -58 -13c-38.667 0 -69.667 12.833 -93 38.5s-35 57.834 -35 96.501v214h75v-201c0 -24 6 -43.5 18 -58.5s30 -22.5 54 -22.5s42.5 7.33301 55.5 22s19.5 34 19.5 58v202h75v-277c0 -28 1.33301 -48.667 4 -62
h-72c-2 8 -3 21.333 -3 40z" />
    <glyph glyph-name="v.ordn" horiz-adv-x="404" 
d="M374 648l-134 -339h-75l-138 339h83l93 -250l91 250h80z" />
    <glyph glyph-name="w.ordn" horiz-adv-x="603" 
d="M263 648h77l84 -242l70 242h77l-109 -339h-76l-86 249l-85 -249h-78l-110 339h80l72 -242z" />
    <glyph glyph-name="x.ordn" horiz-adv-x="413" 
d="M37 309l124.001 171.999l-122 167h90l78 -113l77 113h87l-120 -166l124 -173h-89l-82 118c-2 -3.33301 -15.333 -23.166 -40 -59.499s-38.334 -55.833 -41.001 -58.5h-86z" />
    <glyph glyph-name="y.ordn" horiz-adv-x="418" 
d="M171 170h-81l83 178l-146 300h86l100 -222l96 222h79z" />
    <glyph glyph-name="z.ordn" horiz-adv-x="409" 
d="M342 309h-275v66l178 207h-174v66h268v-64l-179 -209h182v-66z" />
    <glyph glyph-name="space.tf" 
 />
    <glyph glyph-name="numbersign.tf" 
d="M491 648l-36 -167h97v-81h-114l-32 -150h97v-81h-115l-36 -169h-88l36 169h-116l-36 -169h-88l36 169h-88v81h106l32 150h-89v81h106l36 167h88l-36 -167h116l36 167h88zM234 400l-32 -150h116l32 150h-116z" />
    <glyph glyph-name="dollar.tf" 
d="M327 -104l-76.001 -0.000976562v100c-62.667 6.66699 -112.167 28.5 -148.5 65.5s-57.166 79.167 -62.499 126.5l92 30c2.66699 -34 14 -63.667 34 -89s48.333 -41 85 -47v202l-24 5c-50.667 10.667 -90.167 31.167 -118.5 61.5s-42.5 68.833 -42.5 115.5
s17.333 87.334 52 122.001s79 55.334 133 62.001v102h76v-103c54 -6.66699 95.167 -25 123.5 -55s47.5 -64.333 57.5 -103l-87 -32c-3.33301 21.333 -13 42 -29 62s-37.667 34 -65 42v-199l14 -3c53.333 -10.667 95.5 -32.334 126.5 -65.001s46.5 -71 46.5 -115
c0 -46 -16.5 -86.5 -49.5 -121.5s-78.833 -56.167 -137.5 -63.5v-100zM418.999 175.999c0 21.333 -7.66699 40.333 -23 57s-38.333 28.667 -69 36v-187c30.667 5.33301 53.667 16.5 69 33.5s23 37.167 23 60.5zM161.999 469.999c0 -47.333 29.667 -77.001 89 -89.001v185
c-28 -5.33301 -49.833 -16.666 -65.5 -33.999s-23.5 -38 -23.5 -62z" />
    <glyph glyph-name="percent.tf" 
d="M526 540v-92l-482 -327v90zM94 520c0 -18 5.83301 -32.833 17.5 -44.5s25.834 -17.5 42.501 -17.5c17.333 0 31.833 5.83301 43.5 17.5s17.5 26.5 17.5 44.5c0 17.333 -5.83301 31.666 -17.5 42.999s-26.167 17 -43.5 17c-16.667 0 -30.834 -5.66699 -42.501 -17
s-17.5 -25.666 -17.5 -42.999zM18 520c0 36.667 13.5 68 40.5 94s58.833 39 95.5 39s68.667 -13 96 -39s41 -57.333 41 -94c0 -37.333 -13.667 -69.166 -41 -95.499s-59.333 -39.5 -96 -39.5s-68.5 13.167 -95.5 39.5s-40.5 58.166 -40.5 95.499zM345 127
c0 -18 5.83301 -32.833 17.5 -44.5s25.834 -17.5 42.501 -17.5c17.333 0 31.833 5.83301 43.5 17.5s17.5 26.5 17.5 44.5c0 17.333 -5.83301 31.666 -17.5 42.999s-26.167 17 -43.5 17c-16.667 0 -30.834 -5.66699 -42.501 -17s-17.5 -25.666 -17.5 -42.999zM269 127
c0 36.667 13.5 68 40.5 94s58.833 39 95.5 39s68.667 -13 96 -39s41 -57.333 41 -94c0 -37.333 -13.667 -69.166 -41 -95.499s-59.333 -39.5 -96 -39.5s-68.5 13.167 -95.5 39.5s-40.5 58.166 -40.5 95.499z" />
    <glyph glyph-name="plus.tf" 
d="M52 327h187v195h82v-195h188v-79h-188v-197h-82v197h-187v79z" />
    <glyph glyph-name="comma.tf" 
d="M191 74c0 20.667 8.16602 38.668 24.499 54.001s36.166 23 59.499 23c26.667 0 49 -9.66699 67 -29s27 -46.333 27 -81c0 -68.667 -17.667 -121.834 -53 -159.501s-74.666 -59.167 -117.999 -64.5v60c28 6 50.833 21 68.5 45s26.834 50.333 27.501 79
c-8 -4 -16.333 -6 -25 -6c-22 0 -40.5 7.16699 -55.5 21.5s-22.5 33.5 -22.5 57.5z" />
    <glyph glyph-name="period.tf" 
d="M200 74c0 22 7.66699 40.833 23 56.5s34.333 23.5 57 23.5s41.667 -7.83301 57 -23.5s23 -34.5 23 -56.5c0 -22.667 -7.66699 -41.667 -23 -57s-34.333 -23 -57 -23s-41.667 7.66699 -57 23s-23 34.333 -23 57z" />
    <glyph glyph-name="zero.tf" 
d="M131 324c0 -24.667 0.666992 -46.5 2 -65.5s5 -40.833 11 -65.5s14 -45.167 24 -61.5s24.5 -30.333 43.5 -42s41.833 -17.5 68.5 -17.5s49.5 5.83301 68.5 17.5s33.5 25.667 43.5 42s18 36.833 24 61.5s9.66699 46.5 11 65.5s2 40.833 2 65.5s-0.666992 46.5 -2 65.5
s-5 40.833 -11 65.5s-14 45.167 -24 61.5s-24.5 30.333 -43.5 42s-41.833 17.5 -68.5 17.5s-49.5 -5.83301 -68.5 -17.5s-33.5 -25.667 -43.5 -42s-18 -36.833 -24 -61.5s-9.66699 -46.5 -11 -65.5s-2 -40.833 -2 -65.5zM34 324c0 105.333 17.333 184.666 52 237.999
c44.667 67.333 109.334 101 194.001 101s149.334 -33.667 194.001 -101c34.667 -53.333 52 -132.666 52 -237.999s-17.333 -184.666 -52 -237.999c-44.667 -67.333 -109.334 -101 -194.001 -101s-149.334 33.667 -194.001 101c-34.667 53.333 -52 132.666 -52 237.999z" />
    <glyph glyph-name="one.tf" 
d="M105 88h163v369h-157v69c44 0.666992 81 12.167 111 34.5s48.667 51.5 56 87.5h86v-560h156v-88h-415v88z" />
    <glyph glyph-name="two.tf" 
d="M159 415l-97.999 11.999c-0.666992 6 -1 14.667 -1 26c0 58 20.333 107.5 61 148.5s95 61.5 163 61.5c67.333 0 120.666 -19.167 159.999 -57.5s59 -85.5 59 -141.5c0 -82 -40.667 -148.667 -122 -200l-128 -82c-46 -29.333 -72.333 -59.666 -79 -90.999h333v-91h-454
c1.33301 54.667 13.833 102.667 37.5 144s62.5 79.333 116.5 114l108 70c59.333 38 89 83 89 135c0 32 -10.667 59 -32 81s-51.333 33 -90 33c-40.667 0 -71.667 -12.333 -93 -37s-32 -56.667 -32 -96c0 -6 0.666992 -15.667 2 -29z" />
    <glyph glyph-name="three.tf" 
d="M218 301l-48 80.999l191 176h-310v90h440v-88l-185 -171c52.667 0 99.167 -17.333 139.5 -52s60.5 -83 60.5 -145c0 -57.333 -21 -106.333 -63 -147s-99.333 -61 -172 -61c-71.333 0 -128.5 19.833 -171.5 59.5s-66.167 87.834 -69.5 144.501l96 22
c2 -42 16.5 -75.833 43.5 -101.5s60.5 -38.5 100.5 -38.5c42.667 0 76.167 11.5 100.5 34.5s36.5 51.5 36.5 85.5c0 39.333 -13 69.333 -39 90s-57 31 -93 31c-19.333 0 -38.333 -3.33301 -57 -10z" />
    <glyph glyph-name="four.tf" 
d="M37 146v113l278 389h135v-411h101v-91h-101v-146h-95v146h-318zM355 237v317l-228 -317h228z" />
    <glyph glyph-name="five.tf" 
d="M40 176l93.999 28.001c2.66699 -40 17.5 -72.333 44.5 -97s60.833 -37 101.5 -37c39.333 0 72.333 12 99 36s40 55.667 40 95c0 42.667 -13.333 75.667 -40 99s-60 35 -100 35c-48.667 0 -88 -15.667 -118 -47c-9.33301 3.33301 -24.666 9.33301 -45.999 18l-50 20
l84 322h342v-90h-277l-48 -186c29.333 32 73.333 48 132 48c64.667 0 117.5 -19.333 158.5 -58s61.5 -91 61.5 -157c0 -62.667 -22 -115.167 -66 -157.5s-101.333 -63.5 -172 -63.5c-66.667 0 -122.167 18.667 -166.5 56s-68.833 82.666 -73.5 135.999z" />
    <glyph glyph-name="six.tf" 
d="M512 627l-30.001 -79.998c-32 18.667 -70.667 28 -116 28c-66 0 -119.5 -21.5 -160.5 -64.5s-63.5 -98.5 -67.5 -166.5c14.667 24 36.834 43.833 66.501 59.5s64.5 23.5 104.5 23.5c65.333 0 118.833 -19.833 160.5 -59.5s62.5 -93.5 62.5 -161.5
c0 -66 -23.667 -119.333 -71 -160s-104 -61 -170 -61c-69.333 0 -128.833 25.167 -178.5 75.5s-74.5 125.166 -74.5 224.499c0 117.333 31.333 209.666 94 276.999s142.667 101 240 101c59.333 0 106 -12 140 -36zM151.999 206.002c0 -40.667 14 -73.5 42 -98.5
s60.667 -37.5 98 -37.5c39.333 0 72.666 12.333 99.999 37s41 57.667 41 99c0 42 -13.667 75.333 -41 100s-60.666 37 -99.999 37s-72.5 -12.333 -99.5 -37s-40.5 -58 -40.5 -100z" />
    <glyph glyph-name="seven.tf" 
d="M526 648l0.00292969 -93.998c-168 -134.667 -262.667 -319.334 -284 -554.001h-101c4 51.333 12.167 101.166 24.5 149.499s26.666 90.5 42.999 126.5s34.166 69.833 53.499 101.5s38.166 58.334 56.499 80.001s35 40.167 50 55.5s26.833 26.666 35.5 33.999l14 11h-385
v90h493z" />
    <glyph glyph-name="eight.tf" 
d="M280 372c34.667 0.666992 63.332 10.667 85.999 30s34 44.666 34 75.999c0 29.333 -11 54 -33 74s-51 30 -87 30s-65 -10 -87 -30s-33 -44.667 -33 -74c0 -31.333 11.333 -56.666 34 -75.999s51.334 -29.333 86.001 -30zM279.998 70c42 0 75.167 10.333 99.5 31
s36.5 46.667 36.5 78c0 32 -12.167 58.5 -36.5 79.5s-57.5 31.5 -99.5 31.5s-75.167 -10.5 -99.5 -31.5s-36.5 -47.5 -36.5 -79.5c0 -31.333 12.167 -57.333 36.5 -78s57.5 -31 99.5 -31zM279.998 -15c-72.667 0 -130 17.499 -172 52.499s-63 79.5 -63 133.5
c0 38 11.5 71.167 34.5 99.5s52.5 48.5 88.5 60.5c-30.667 11.333 -56 30.833 -76 58.5s-30 58.834 -30 93.501c0 52.667 20.667 95.834 62 129.501s93.333 50.5 156 50.5s114.667 -16.833 156 -50.5s62 -76.834 62 -129.501c0 -34 -10 -65 -30 -93s-45.333 -47.667 -76 -59
c36 -11.333 65.5 -31.333 88.5 -60s34.5 -62 34.5 -100c0 -54 -21 -98.5 -63 -133.5s-99.333 -52.5 -172 -52.5z" />
    <glyph glyph-name="nine.tf" 
d="M44 23l31.999 81c34 -20.667 73.333 -31 118 -31c74 0 129.5 21 166.5 63s56.5 97.333 58.5 166c-12.667 -23.333 -33.5 -42.833 -62.5 -58.5s-64.167 -23.5 -105.5 -23.5c-60 0 -112.333 19.5 -157 58.5s-67 92.5 -67 160.5c0 65.333 23.5 119 70.5 161
s103.167 63 168.5 63c69.333 0 128.666 -25.333 177.999 -76s74 -124.667 74 -222c0 -121.333 -27.167 -215 -81.5 -281s-135.166 -99 -242.499 -99c-25.333 0 -52.666 3.66699 -81.999 11s-52 16.333 -68 27zM405.999 441c0 40 -14 72.667 -42 98s-60.667 38 -98 38
c-38 0 -70.833 -12.5 -98.5 -37.5s-41.5 -57.833 -41.5 -98.5c0 -42 13.667 -75.333 41 -100s60.333 -37 99 -37c38 0 70.833 12.5 98.5 37.5s41.5 58.167 41.5 99.5z" />
    <glyph glyph-name="colon.tf" 
d="M203 412c0 21.333 7.33301 39.5 22 54.5s32.667 22.5 54 22.5s39.5 -7.5 54.5 -22.5s22.5 -33.167 22.5 -54.5s-7.5 -39.333 -22.5 -54s-33.167 -22 -54.5 -22s-39.333 7.33301 -54 22s-22 32.667 -22 54zM203 65c0 21.333 7.33301 39.5 22 54.5s32.667 22.5 54 22.5
s39.5 -7.5 54.5 -22.5s22.5 -33.167 22.5 -54.5s-7.5 -39.333 -22.5 -54s-33.167 -22 -54.5 -22s-39.333 7.33301 -54 22s-22 32.667 -22 54z" />
    <glyph glyph-name="semicolon.tf" 
d="M204 412c0 21.333 7.33301 39.5 22 54.5s32.667 22.5 54 22.5s39.5 -7.5 54.5 -22.5s22.5 -33.167 22.5 -54.5s-7.5 -39.333 -22.5 -54s-33.167 -22 -54.5 -22s-39.333 7.33301 -54 22s-22 32.667 -22 54zM202 70c0 19.333 7.5 36 22.5 50s33.5 21 55.5 21
c24 0 44.167 -8.83301 60.5 -26.5s24.5 -42.5 24.5 -74.5c0 -63.333 -16.167 -112.333 -48.5 -147s-68.166 -54.667 -107.499 -60v56c24.667 5.33301 45.167 19 61.5 41s25.166 46.333 26.499 73c-6.66699 -3.33301 -14.667 -5 -24 -5c-20 0 -36.833 6.5 -50.5 19.5
s-20.5 30.5 -20.5 52.5z" />
    <glyph glyph-name="less.tf" 
d="M74 244v85l412 206v-95l-310 -153l310 -153v-95z" />
    <glyph glyph-name="equal.tf" 
d="M512 346h-463v77h463v-77zM512 151h-463v79h463v-79z" />
    <glyph glyph-name="greater.tf" 
d="M486 329v-85l-412 -205v95l312 153l-312 153v95z" />
    <glyph glyph-name="cent.tf" 
d="M328 0h-76.001v94c-56 10 -101.5 36.667 -136.5 80s-52.5 94.666 -52.5 153.999c0 60 17.5 111.333 52.5 154s80.5 69 136.5 79v88h76v-86c47.333 -5.33301 85.5 -21.166 114.5 -47.499s48.5 -57.166 58.5 -92.499l-81 -33c-6 21.333 -16.5 40.5 -31.5 57.5
s-35.167 28.167 -60.5 33.5v-307c50 10 82.333 39.667 97 89l80 -33c-11.333 -34 -32.166 -64.333 -62.499 -91s-68.5 -42.334 -114.5 -47.001v-92zM155.999 328c0 -38.667 8.83301 -70.999 26.5 -96.999s40.834 -43.667 69.501 -53v299
c-28.667 -9.33301 -51.834 -26.833 -69.501 -52.5s-26.5 -57.834 -26.5 -96.501z" />
    <glyph glyph-name="sterling.tf" 
d="M60 359l69.999 -0.000976562c-20 44 -30 83.333 -30 118c0 53.333 18.5 97.666 55.5 132.999s83.5 53 139.5 53c36.667 0 68.5 -5.33301 95.5 -16s47.833 -25.167 62.5 -43.5s25.5 -37.166 32.5 -56.499s11.167 -40 12.5 -62l-98 -17
c-0.666992 36 -10.167 63.167 -28.5 81.5s-43.166 27.5 -74.499 27.5c-28 0 -51.5 -8.83301 -70.5 -26.5s-28.5 -42.167 -28.5 -73.5c0 -30 11 -69.333 33 -118h184v-86h-158c1.33301 -12 2 -21 2 -27c0 -34.667 -8.33301 -66 -25 -94s-40 -49.667 -70 -65h171
c32 0 56 10.167 72 30.5s24 45.5 24 75.5l94 -14c0 -52.667 -14.833 -95.667 -44.5 -129s-70.167 -50 -121.5 -50h-305v95c33.333 14 60 33.833 80 59.5s30 52.5 30 80.5c0 14.667 -1.33301 27.334 -4 38.001h-100v86z" />
    <glyph glyph-name="currency.tf" 
d="M71 239c0 44 12.334 84.333 37.001 121l-75 77l60 59l75 -78c36 23.333 74.667 35 116 35c40 0 77 -10.333 111 -31l72 74l60 -59l-70 -73c27.333 -38 41 -79.667 41 -125c0 -46.667 -13.333 -87.667 -40 -123l69 -71l-59 -59l-70 72c-34.667 -22 -72.667 -33 -114 -33
c-42.667 0 -82.334 12.333 -119.001 37l-73 -76l-59 59l73 76c-23.333 36 -35 75.333 -35 118zM154.001 239c0 -38.667 12.5 -70.334 37.5 -95.001s55.833 -37 92.5 -37s67.167 12.333 91.5 37s36.5 56.334 36.5 95.001c0 38 -12.167 69.333 -36.5 94s-54.833 37 -91.5 37
s-67.5 -12.333 -92.5 -37s-37.5 -56 -37.5 -94z" />
    <glyph glyph-name="yen.tf" 
d="M502 155h-168v-155h-97v155h-169v72h169v80h-169v71h117l-171 270h114l157 -261l149 261h112l-163 -270h119v-71h-168v-80h168v-72z" />
    <glyph glyph-name="section.tf" horiz-adv-x="558" 
d="M474 244c0 -28 -8.66992 -53.332 -26.0029 -75.999s-36.333 -38.334 -57 -47.001c27.333 -17.333 48.666 -38.833 63.999 -64.5s23 -52.167 23 -79.5c0 -53.333 -19.833 -96.833 -59.5 -130.5s-87.5 -50.5 -143.5 -50.5c-61.333 0 -108.666 16.667 -141.999 50
s-50.666 77.666 -51.999 132.999l88 18c0 -37.333 9.16699 -67.166 27.5 -89.499s45.166 -33.5 80.499 -33.5c32 0 57.5 8.16699 76.5 24.5s28.5 39.166 28.5 68.499c0 37.333 -19.333 66 -58 86l-103 54c-44 22 -77.833 45.5 -101.5 70.5s-35.5 57.833 -35.5 98.5
c0 28.667 8.83301 54.334 26.5 77.001s36.834 37.667 57.501 45c-28 17.333 -49.667 38.833 -65 64.5s-23 52.5 -23 80.5c0 53.333 19.833 96.833 59.5 130.5s87.167 50.5 142.5 50.5c61.333 0 109.166 -17.333 143.499 -52s51.5 -78.334 51.5 -131.001l-89 -18
c0 38 -9.16699 67.833 -27.5 89.5s-45.166 32.5 -80.499 32.5c-31.333 0 -56.666 -8.5 -75.999 -25.5s-29 -39.5 -29 -67.5c0 -37.333 19.667 -65.666 59 -84.999l102 -54c44.667 -23.333 78.834 -47.333 102.501 -72s35.5 -57 35.5 -97zM319.997 316.001l-99 54
c-12 -5.33301 -22.833 -15.5 -32.5 -30.5s-14.5 -31.167 -14.5 -48.5c0 -36.667 21 -65.667 63 -87l99 -54c12 5.33301 22.833 15.5 32.5 30.5s14.5 31.167 14.5 48.5c0 36.667 -21 65.667 -63 87z" />
    <glyph glyph-name="logicalnot.tf" 
d="M491 149h-84v195h-379v82h463v-277z" />
    <glyph glyph-name="plusminus.tf" 
d="M62 386h177v136h82v-136h178v-77h-178v-134h-82v134h-177v77zM62 130h437v-79h-437v79z" />
    <glyph glyph-name="multiply.tf" 
d="M449 55l-170 175l-168 -174l-56 56l169 176l-168 174l57 57l167 -174l167 174l57 -56l-169 -175l170 -176z" />
    <glyph glyph-name="divide.tf" 
d="M214 465c0 17.333 6.5 32.333 19.5 45s28.167 19 45.5 19s32.333 -6.33301 45 -19s19 -27.667 19 -45s-6.33301 -32.5 -19 -45.5s-27.667 -19.5 -45 -19.5s-32.5 6.5 -45.5 19.5s-19.5 28.167 -19.5 45.5zM51 246v83h457v-83h-457zM214 110c0 17.333 6.5 32.333 19.5 45
s28.167 19 45.5 19s32.333 -6.33301 45 -19s19 -27.667 19 -45s-6.33301 -32.5 -19 -45.5s-27.667 -19.5 -45 -19.5s-32.5 6.5 -45.5 19.5s-19.5 28.167 -19.5 45.5z" />
    <glyph glyph-name="florin.tf" 
d="M179 20l75 378h-110v83h127l23 113c9.33301 48 29.333 84.167 60 108.5s65.667 36.5 105 36.5c28 0 52.667 -3.33301 74 -10v-83c-16.667 4.66699 -34.334 7 -53.001 7c-22.667 0 -42.5 -6 -59.5 -18s-29.167 -36.667 -36.5 -74l-16 -80h129v-83h-146l-82 -411
c-9.33301 -48 -29.333 -84.167 -60 -108.5s-65.667 -36.5 -105 -36.5c-30 0 -55.667 3.33301 -77 10v83c16.667 -4.66699 35.334 -7 56.001 -7c52 0 84 30.667 96 92z" />
    <glyph glyph-name="uni2007.tf" 
 />
    <glyph glyph-name="uni2008.tf" 
 />
    <glyph glyph-name="perthousand.tf" 
d="M528 632v-92l-482 -376v90zM82 536c0 -16 5.33301 -29.167 16 -39.5s23.667 -15.5 39 -15.5s28 5.16699 38 15.5s15 23.5 15 39.5s-5 29.167 -15 39.5s-22.667 15.5 -38 15.5s-28.333 -5.16699 -39 -15.5s-16 -23.5 -16 -39.5zM17 536c0 32.667 11.833 60.5 35.5 83.5
s51.834 34.5 84.501 34.5s60.834 -11.5 84.501 -34.5s35.5 -50.833 35.5 -83.5s-11.833 -60.5 -35.5 -83.5s-51.834 -34.5 -84.501 -34.5s-60.834 11.5 -84.501 34.5s-35.5 50.833 -35.5 83.5zM132 107c0 32.667 11.834 60.5 35.501 83.5s51.834 34.5 84.501 34.5
c33.333 0 61.666 -12.667 84.999 -38c23.333 25.333 52 38 86 38c32.667 0 60.834 -11.5 84.501 -34.5s35.5 -50.833 35.5 -83.5s-11.833 -60.5 -35.5 -83.5s-51.834 -34.5 -84.501 -34.5c-35.333 0 -64 12.667 -86 38c-22 -25.333 -50.333 -38 -85 -38
c-32.667 0 -60.834 11.5 -84.501 34.5s-35.5 50.833 -35.5 83.5zM252.001 162c-15.333 0 -28.333 -5.16699 -39 -15.5s-16 -23.5 -16 -39.5s5.33301 -29.167 16 -39.5s23.667 -15.5 39 -15.5s28 5.16699 38 15.5s15 23.5 15 39.5s-5 29.167 -15 39.5s-22.667 15.5 -38 15.5z
M423.001 162c-15.333 0 -28.333 -5.16699 -39 -15.5s-16 -23.5 -16 -39.5s5.33301 -29.167 16 -39.5s23.667 -15.5 39 -15.5s28 5.16699 38 15.5s15 23.5 15 39.5s-5 29.167 -15 39.5s-22.667 15.5 -38 15.5z" />
    <glyph glyph-name="Euro.tf" 
d="M115 325c0 20 0.666016 33.332 1.99902 39.999h-74v78h89c22.667 70 62.834 124.167 120.501 162.5s120.834 57.5 189.501 57.5c38 0 74 -5.66699 108 -17l-23 -82c-28 8 -56.333 12 -85 12c-46.667 0 -88.5 -11.333 -125.5 -34s-64.5 -55.667 -82.5 -99h257l-24 -78
h-252c-2 -10.667 -3 -24 -3 -40c0 -19.333 1 -33.666 3 -42.999h235l-24 -80h-190c18.667 -42 46.167 -73.833 82.5 -95.5s77.5 -32.5 123.5 -32.5c30.667 0 59 4 85 12l23 -82c-34 -11.333 -70 -17 -108 -17c-67.333 0 -129.833 18.667 -187.5 56
s-97.834 90.333 -120.501 159h-91v80h74c-1.33301 8 -2 22.333 -2 43z" />
    <glyph glyph-name="minus.tf" 
d="M491 248h-423v79h423v-79z" />
    <glyph glyph-name="approxequal.tf" 
d="M478 429l51 -45c-38.667 -55.333 -87.334 -83 -146.001 -83c-31.333 0 -64.666 10 -99.999 30l-47 26c-21.333 11.333 -42 17 -62 17c-34.667 0 -65 -15 -91 -45l-53 47c39.333 56.667 87 85 143 85c30.667 0 65 -10.333 103 -31l46 -25
c23.333 -13.333 46.666 -20 69.999 -20c32.667 0 61.334 14.667 86.001 44zM478 235l51 -45c-38.667 -55.333 -87.334 -83 -146.001 -83c-31.333 0 -64.666 10 -99.999 30l-47 26c-21.333 11.333 -42 17 -62 17c-34.667 0 -65 -15 -91 -45l-53 47
c39.333 56.667 87 85 143 85c30.667 0 65 -10.333 103 -31l46 -25c23.333 -13.333 46.666 -20 69.999 -20c32.667 0 61.334 14.667 86.001 44z" />
    <glyph glyph-name="notequal.tf" 
d="M511 151h-272l-74 -100h-96l74 100h-95v79h153l85 116h-238v77h295l73 99h96l-73 -99h72v-77h-129l-85 -116h214v-79z" />
    <glyph glyph-name="lessequal.tf" 
d="M74 130h412v-79h-412v79zM74 304v85l412 146v-84l-307 -104l307 -104v-84z" />
    <glyph glyph-name="greaterequal.tf" 
d="M74 130h412v-79h-412v79zM486 389v-85l-412 -145v84l307 104l-307 104v84z" />
    <glyph glyph-name="parenleft.case" horiz-adv-x="297" 
d="M55 352c0 170 62.333 317.333 187 442l55 -49c-53.333 -58.667 -93.5 -119.167 -120.5 -181.5s-40.5 -132.833 -40.5 -211.5s13.5 -149.167 40.5 -211.5s67.167 -122.833 120.5 -181.5l-55 -49c-124.667 124.667 -187 272 -187 442z" />
    <glyph glyph-name="parenright.case" horiz-adv-x="297" 
d="M242 352c0 -170 -62.333 -317.333 -187 -442l-55 49c53.333 58.667 93.5 119.167 120.5 181.5s40.5 132.833 40.5 211.5s-13.5 149.167 -40.5 211.5s-67.167 122.833 -120.5 181.5l55 49c124.667 -124.667 187 -272 187 -442z" />
    <glyph glyph-name="hyphen.case" horiz-adv-x="361" 
d="M316 296h-271v82h271v-82z" />
    <glyph glyph-name="bracketleft.case" horiz-adv-x="288" 
d="M283 -90h-193v890h193v-76h-111v-739h111v-75z" />
    <glyph glyph-name="bracketright.case" horiz-adv-x="288" 
d="M198 -90h-193v75h111v739h-111v76h193v-890z" />
    <glyph glyph-name="braceleft.case" horiz-adv-x="353" 
d="M45 311v85.9961c32 0 58.333 8.16699 79 24.5s31 41.833 31 76.5v116c0 124 60 186 180 186h13v-75h-13c-36 0 -61.333 -8.16699 -76 -24.5s-22 -43.166 -22 -80.499v-143c0 -33.333 -9.16699 -60.666 -27.5 -81.999s-43.833 -35 -76.5 -41
c32.667 -6 58.167 -19.667 76.5 -41s27.5 -48.666 27.5 -81.999v-141c0 -37.333 7.33301 -64.166 22 -80.499s40 -24.5 76 -24.5h13v-75h-13c-120 0 -180 62 -180 186v114c0 34.667 -10.333 60.167 -31 76.5s-47 24.5 -79 24.5z" />
    <glyph glyph-name="braceright.case" horiz-adv-x="353" 
d="M308 397v-85.9961c-32 0 -58.333 -8.16699 -79 -24.5s-31 -41.833 -31 -76.5v-114c0 -124 -60 -186 -180 -186h-13v75h13c36 0 61.333 8.16699 76 24.5s22 43.166 22 80.499v141c0 33.333 9.16699 60.666 27.5 81.999s43.833 35 76.5 41
c-32.667 6 -58.167 19.667 -76.5 41s-27.5 48.666 -27.5 81.999v143c0 37.333 -7.33301 64.166 -22 80.499s-40 24.5 -76 24.5h-13v75h13c120 0 180 -62 180 -186v-116c0 -34.667 10.333 -60.167 31 -76.5s47 -24.5 79 -24.5z" />
    <glyph glyph-name="exclamdown.case" horiz-adv-x="311" 
d="M189 505l25 -505h-118l26 505h67zM90 647c0 18 6.33301 33.5 19 46.5s28 19.5 46 19.5s33.5 -6.5 46.5 -19.5s19.5 -28.5 19.5 -46.5s-6.5 -33.333 -19.5 -46s-28.5 -19 -46.5 -19s-33.333 6.33301 -46 19s-19 28 -19 46z" />
    <glyph glyph-name="guillemotleft.case" horiz-adv-x="471" 
d="M256 149h-93l-133 191l133 191h93l-131 -191zM451 149h-93l-133 191l133 191h93l-131 -191z" />
    <glyph glyph-name="uni00AD.case" horiz-adv-x="361" 
d="M316 313h-271v82h271v-82z" />
    <glyph glyph-name="guillemotright.case" horiz-adv-x="471" 
d="M308 149h-93l131 191l-131 191h93l133 -191zM113 149h-93l131 191l-131 191h93l133 -191z" />
    <glyph glyph-name="questiondown.case" horiz-adv-x="510" 
d="M226 508h88.0029c0.666992 -8 1 -19.667 1 -35c0 -66.667 -27.667 -118.667 -83 -156l-44 -30c-35.333 -24 -53 -56.667 -53 -98c0 -32 10.333 -59 31 -81s50 -33 88 -33c40.667 0 71.667 12.667 93 38s32 55.333 32 90c0 20 -2.33301 36.333 -7 49l97 -12
c4 -14 6 -30 6 -48c0 -32.667 -7.33301 -64 -22 -94s-39.334 -56 -74.001 -78s-76.334 -33 -125.001 -33c-66.667 0 -119.834 20 -159.501 60s-59.5 87 -59.5 141c0 70 34 128 102 174l46 31c29.333 20 44 52 44 96c0 8 -0.333008 14.333 -1 19zM335.003 650
c0 -18 -6.33301 -33.5 -19 -46.5s-28 -19.5 -46 -19.5s-33.5 6.5 -46.5 19.5s-19.5 28.5 -19.5 46.5s6.5 33.333 19.5 46s28.5 19 46.5 19s33.333 -6.33301 46 -19s19 -28 19 -46z" />
    <glyph glyph-name="endash.case" horiz-adv-x="622" 
d="M567 296h-512v82h512v-82z" />
    <glyph glyph-name="emdash.case" horiz-adv-x="1083" 
d="M1018 296h-953v82h953v-82z" />
    <glyph glyph-name="guilsinglleft.case" horiz-adv-x="276" 
d="M256 149h-93l-133 191l133 191h93l-131 -191z" />
    <glyph glyph-name="guilsinglright.case" horiz-adv-x="276" 
d="M113 149h-93l131 191l-131 191h93l133 -191z" />
    <glyph glyph-name="G.ss01" horiz-adv-x="767" 
d="M401 -15c-60.667 0 -117.666 14 -170.999 42s-97.5 70.667 -132.5 128s-52.5 124 -52.5 200c0 57.333 10.167 109.666 30.5 156.999s47.333 86.166 81 116.499s71.5 53.833 113.5 70.5s85.667 25 131 25c78.667 0 146.334 -20.333 203.001 -61s94 -95.334 112 -164.001
l-91 -31c-14.667 54 -41.334 95.167 -80.001 123.5s-86.667 42.5 -144 42.5c-71.333 0 -131.833 -24.167 -181.5 -72.5s-74.5 -117.166 -74.5 -206.499s25 -158.5 75 -207.5s110.333 -73.5 181 -73.5c63.333 0 115.166 16.833 155.499 50.5s63.833 75.834 70.5 126.501h-286
v88h385c0.666992 -5.33301 1 -13.666 1 -24.999c0 -94.667 -28.5 -173.167 -85.5 -235.5s-137.167 -93.5 -240.5 -93.5z" />
    <glyph glyph-name="a.ss02" horiz-adv-x="583" 
d="M136 244c0 -50.667 12.501 -92.334 37.501 -125.001s59.5 -49 103.5 -49c42 0 75.667 16.333 101 49s38 74.334 38 125.001c0 50 -12.333 90.333 -37 121s-58.334 46 -101.001 46s-77 -15.333 -103 -46s-39 -71 -39 -121zM417.001 65l0.000976562 8
c-12.667 -24.667 -31.834 -45.167 -57.501 -61.5s-56.167 -24.5 -91.5 -24.5c-68.667 0 -123.834 24.5 -165.501 73.5s-62.5 110.167 -62.5 183.5c0 69.333 21.333 128.333 64 177s97.334 73 164.001 73c39.333 0 71.333 -7.83301 96 -23.5s41.667 -34.834 51 -57.501v68h93
v-392c0 -29.333 1.66699 -59 5 -89h-91c-3.33301 18.667 -5 40.334 -5 65.001z" />
    <glyph glyph-name="agrave.ss02" horiz-adv-x="583" 
d="M136 244c0 -50.667 12.501 -92.334 37.501 -125.001s59.5 -49 103.5 -49c42 0 75.667 16.333 101 49s38 74.334 38 125.001c0 50 -12.333 90.333 -37 121s-58.334 46 -101.001 46s-77 -15.333 -103 -46s-39 -71 -39 -121zM417.001 65l0.000976562 8
c-12.667 -24.667 -31.834 -45.167 -57.501 -61.5s-56.167 -24.5 -91.5 -24.5c-68.667 0 -123.834 24.5 -165.501 73.5s-62.5 110.167 -62.5 183.5c0 69.333 21.333 128.333 64 177s97.334 73 164.001 73c39.333 0 71.333 -7.83301 96 -23.5s41.667 -34.834 51 -57.501v68h93
v-392c0 -29.333 1.66699 -59 5 -89h-91c-3.33301 18.667 -5 40.334 -5 65.001zM238.002 543l-126 146h118l86 -146h-78z" />
    <glyph glyph-name="aacute.ss02" horiz-adv-x="583" 
d="M136 244c0 -50.667 12.501 -92.334 37.501 -125.001s59.5 -49 103.5 -49c42 0 75.667 16.333 101 49s38 74.334 38 125.001c0 50 -12.333 90.333 -37 121s-58.334 46 -101.001 46s-77 -15.333 -103 -46s-39 -71 -39 -121zM417.001 65l0.000976562 8
c-12.667 -24.667 -31.834 -45.167 -57.501 -61.5s-56.167 -24.5 -91.5 -24.5c-68.667 0 -123.834 24.5 -165.501 73.5s-62.5 110.167 -62.5 183.5c0 69.333 21.333 128.333 64 177s97.334 73 164.001 73c39.333 0 71.333 -7.83301 96 -23.5s41.667 -34.834 51 -57.501v68h93
v-392c0 -29.333 1.66699 -59 5 -89h-91c-3.33301 18.667 -5 40.334 -5 65.001zM418.002 689l-126 -146h-79l87 146h118z" />
    <glyph glyph-name="acircumflex.ss02" horiz-adv-x="583" 
d="M136 244c0 -50.667 12.501 -92.334 37.501 -125.001s59.5 -49 103.5 -49c42 0 75.667 16.333 101 49s38 74.334 38 125.001c0 50 -12.333 90.333 -37 121s-58.334 46 -101.001 46s-77 -15.333 -103 -46s-39 -71 -39 -121zM417.001 65l0.000976562 8
c-12.667 -24.667 -31.834 -45.167 -57.501 -61.5s-56.167 -24.5 -91.5 -24.5c-68.667 0 -123.834 24.5 -165.501 73.5s-62.5 110.167 -62.5 183.5c0 69.333 21.333 128.333 64 177s97.334 73 164.001 73c39.333 0 71.333 -7.83301 96 -23.5s41.667 -34.834 51 -57.501v68h93
v-392c0 -29.333 1.66699 -59 5 -89h-91c-3.33301 18.667 -5 40.334 -5 65.001zM214.002 545h-87l104 139h107l104 -139h-88l-70 81z" />
    <glyph glyph-name="atilde.ss02" horiz-adv-x="583" 
d="M136 244c0 -50.667 12.501 -92.334 37.501 -125.001s59.5 -49 103.5 -49c42 0 75.667 16.333 101 49s38 74.334 38 125.001c0 50 -12.333 90.333 -37 121s-58.334 46 -101.001 46s-77 -15.333 -103 -46s-39 -71 -39 -121zM417.001 65l0.000976562 8
c-12.667 -24.667 -31.834 -45.167 -57.501 -61.5s-56.167 -24.5 -91.5 -24.5c-68.667 0 -123.834 24.5 -165.501 73.5s-62.5 110.167 -62.5 183.5c0 69.333 21.333 128.333 64 177s97.334 73 164.001 73c39.333 0 71.333 -7.83301 96 -23.5s41.667 -34.834 51 -57.501v68h93
v-392c0 -29.333 1.66699 -59 5 -89h-91c-3.33301 18.667 -5 40.334 -5 65.001zM436.002 677v-15c0 -35.333 -9 -62.333 -27 -81s-41.333 -28 -70 -28c-20.667 0 -42.667 7.33301 -66 22l-14 9c-15.333 9.33301 -27.666 14 -36.999 14c-19.333 0 -29 -14.333 -29 -43h-72v15
c0 35.333 9.16699 62.333 27.5 81s41.833 28 70.5 28c21.333 0 43.666 -7.33301 66.999 -22l14 -9c15.333 -9.33301 27.333 -14 36 -14c19.333 0 29 14.333 29 43h71z" />
    <glyph glyph-name="adieresis.ss02" horiz-adv-x="583" 
d="M136 244c0 -50.667 12.501 -92.334 37.501 -125.001s59.5 -49 103.5 -49c42 0 75.667 16.333 101 49s38 74.334 38 125.001c0 50 -12.333 90.333 -37 121s-58.334 46 -101.001 46s-77 -15.333 -103 -46s-39 -71 -39 -121zM417.001 65l0.000976562 8
c-12.667 -24.667 -31.834 -45.167 -57.501 -61.5s-56.167 -24.5 -91.5 -24.5c-68.667 0 -123.834 24.5 -165.501 73.5s-62.5 110.167 -62.5 183.5c0 69.333 21.333 128.333 64 177s97.334 73 164.001 73c39.333 0 71.333 -7.83301 96 -23.5s41.667 -34.834 51 -57.501v68h93
v-392c0 -29.333 1.66699 -59 5 -89h-91c-3.33301 18.667 -5 40.334 -5 65.001zM130.002 621c0 16 5.5 29.667 16.5 41s24.5 17 40.5 17c16.667 0 30.667 -5.66699 42 -17s17 -25 17 -41c0 -16.667 -5.66699 -30.5 -17 -41.5s-25.333 -16.5 -42 -16.5
c-16 0 -29.5 5.5 -40.5 16.5s-16.5 24.833 -16.5 41.5zM317.002 621c0 16 5.5 29.667 16.5 41s24.833 17 41.5 17c16 0 29.667 -5.66699 41 -17s17 -25 17 -41c0 -16.667 -5.66699 -30.5 -17 -41.5s-25 -16.5 -41 -16.5c-16.667 0 -30.5 5.5 -41.5 16.5
s-16.5 24.833 -16.5 41.5z" />
    <glyph glyph-name="aring.ss02" horiz-adv-x="583" 
d="M136 244c0 -50.667 12.501 -92.334 37.501 -125.001s59.5 -49 103.5 -49c42 0 75.667 16.333 101 49s38 74.334 38 125.001c0 50 -12.333 90.333 -37 121s-58.334 46 -101.001 46s-77 -15.333 -103 -46s-39 -71 -39 -121zM417.001 65l0.000976562 8
c-12.667 -24.667 -31.834 -45.167 -57.501 -61.5s-56.167 -24.5 -91.5 -24.5c-68.667 0 -123.834 24.5 -165.501 73.5s-62.5 110.167 -62.5 183.5c0 69.333 21.333 128.333 64 177s97.334 73 164.001 73c39.333 0 71.333 -7.83301 96 -23.5s41.667 -34.834 51 -57.501v68h93
v-392c0 -29.333 1.66699 -59 5 -89h-91c-3.33301 18.667 -5 40.334 -5 65.001zM386.002 641c0 -30 -11 -55.667 -33 -77s-48.333 -32 -79 -32c-30 0 -56 10.667 -78 32s-33 47 -33 77c0 30.667 11 56.667 33 78s48 32 78 32c30.667 0 57 -10.667 79 -32s33 -47.333 33 -78z
M322.002 641c0 13.333 -4.66699 24.833 -14 34.5s-21 14.5 -35 14.5c-13.333 0 -24.5 -4.83301 -33.5 -14.5s-13.5 -21.167 -13.5 -34.5s4.5 -24.666 13.5 -33.999s20.167 -14 33.5 -14c14 0 25.667 4.66699 35 14s14 20.666 14 33.999z" />
    <glyph glyph-name="r.ss03" horiz-adv-x="330" 
d="M174 481v-481h-94v481h94zM175 415c0 20 6.83301 36.833 20.5 50.5s30.5 20.5 50.5 20.5c19.333 0 35.833 -6.83301 49.5 -20.5s20.5 -30.5 20.5 -50.5c0 -19.333 -6.83301 -35.833 -20.5 -49.5s-30.167 -20.5 -49.5 -20.5c-20 0 -36.833 6.83301 -50.5 20.5
s-20.5 30.167 -20.5 49.5z" />
    <glyph glyph-name="ampersand.ss04" horiz-adv-x="677" 
d="M387 243l-0.00195312 89.001h275v-89h-86v-10c0 -70.667 -22.667 -129.667 -68 -177s-107.666 -71 -186.999 -71c-76.667 0 -138.5 19.5 -185.5 58.5s-70.5 89.167 -70.5 150.5c0 48.667 14.167 89.834 42.5 123.501s62.833 56.5 103.5 68.5
c-33.333 12 -60.166 31.167 -80.499 57.5s-30.5 58.833 -30.5 97.5c0 51.333 19.833 94.666 59.5 129.999s89.167 53 148.5 53c70.667 0 124 -18.5 160 -55.5s56 -82.833 60 -137.5l-96 -17c-2.66699 38.667 -14.334 68.667 -35.001 90s-50 32 -88 32
c-30 0 -55.667 -9.5 -77 -28.5s-32 -42.833 -32 -71.5c0 -32 11.333 -57.167 34 -75.5s47.334 -27.5 74.001 -27.5h13v-90c-40 0 -76 -11.333 -108 -34s-48 -58.334 -48 -107.001c0 -34.667 13.833 -64.5 41.5 -89.5s66.167 -37.5 115.5 -37.5
c48 0 85.833 14.167 113.5 42.5s41.5 66.833 41.5 115.5v10h-90z" />
    <glyph glyph-name="one.ss05" horiz-adv-x="465" 
d="M45 88h163v369h-157v69c44 0.666992 81 12.167 111 34.5s48.667 51.5 56 87.5h86v-560h156v-88h-415v88z" />
    <glyph glyph-name="registered.ss06" horiz-adv-x="429" 
d="M25 526c0 52 18.5 96.5 55.5 133.5s81.5 55.5 133.5 55.5s96.667 -18.5 134 -55.5s56 -81.5 56 -133.5s-18.667 -96.5 -56 -133.5s-82 -55.5 -134 -55.5s-96.5 18.5 -133.5 55.5s-55.5 81.5 -55.5 133.5zM74 526c0 -40 13.5 -73.833 40.5 -101.5s60.167 -41.5 99.5 -41.5
s72.666 13.833 99.999 41.5s41 61.5 41 101.5s-13.667 73.833 -41 101.5s-60.666 41.5 -99.999 41.5s-72.5 -13.833 -99.5 -41.5s-40.5 -61.5 -40.5 -101.5zM197 537h20c17.333 0 26 8 26 24c0 14.667 -8.66699 22 -26 22h-20v-46zM242 430l-30 65.001h-15v-65h-52v196h83
c18.667 0 34.667 -6.5 48 -19.5s20 -28.167 20 -45.5c0 -24.667 -12 -43.334 -36 -56.001l36 -75h-54z" />
    <glyph glyph-name="caron.alt" horiz-adv-x="203" 
d="M168 709l-64 -179h-69l28 179h105z" />
    <glyph glyph-name="commaaccent" horiz-adv-x="194" 
d="M35 659c0 15.333 5.83203 27.832 17.499 37.499s25.5 14.5 41.5 14.5c17.333 0 32.5 -6 45.5 -18s19.5 -30.333 19.5 -55c0 -36 -11.5 -63.667 -34.5 -83s-49.5 -29 -79.5 -29v40c16.667 0 31.334 5 44.001 15s19.667 21 21 33c-4 -4 -11 -6 -21 -6
c-16 0 -29 4.33301 -39 13s-15 21.334 -15 38.001z" />
    <glyph glyph-name="commaturn" horiz-adv-x="172" 
d="M149 586c0 -15.333 -5.66504 -27.833 -16.998 -37.5s-25.333 -14.5 -42 -14.5s-31.667 6.16699 -45 18.5s-20 30.5 -20 54.5c0 34 11.667 61.167 35 81.5s49.666 30.5 78.999 30.5v-40c-16.667 0 -31.334 -5 -44.001 -15s-19.667 -21 -21 -33c4 4 11 6 21 6
c16 0 29 -4.5 39 -13.5s15 -21.5 15 -37.5z" />
    <glyph glyph-name="dieresis.narrow" horiz-adv-x="294" 
d="M23 621c0 15.333 5.16504 28.166 15.498 38.499s22.833 15.5 37.5 15.5s27.334 -5.16699 38.001 -15.5s16 -23.166 16 -38.499c0 -14.667 -5.16699 -27.167 -15.5 -37.5s-23.166 -15.5 -38.499 -15.5c-14.667 0 -27.167 5 -37.5 15s-15.5 22.667 -15.5 38zM163.998 621
c0 15.333 5.16699 28.166 15.5 38.499s22.833 15.5 37.5 15.5c15.333 0 28.166 -5.16699 38.499 -15.5s15.5 -23.166 15.5 -38.499c0 -14.667 -5.16699 -27.167 -15.5 -37.5s-23.166 -15.5 -38.499 -15.5s-28 5 -38 15s-15 22.667 -15 38z" />
    <glyph glyph-name="dieresis.uc.narrow" horiz-adv-x="310" 
d="M25 819c0 15.333 5.16895 28 15.502 38s22.833 15 37.5 15c15.333 0 28.166 -5.16699 38.499 -15.5s15.5 -22.833 15.5 -37.5c0 -15.333 -5.33301 -28.166 -16 -38.499s-23.334 -15.5 -38.001 -15.5s-27.167 5.16699 -37.5 15.5s-15.5 23.166 -15.5 38.499zM178.002 819
c0 14.667 5.16895 27.167 15.502 37.5s23.166 15.5 38.499 15.5c14.667 0 27.167 -5 37.5 -15s15.5 -22.667 15.5 -38s-5.16699 -28.166 -15.5 -38.499s-22.833 -15.5 -37.5 -15.5s-27.334 5.16699 -38.001 15.5s-16 23.166 -16 38.499z" />
    <glyph glyph-name="grave.uc" horiz-adv-x="273" 
d="M156 759l-138 119h129l102 -119h-93z" />
    <glyph glyph-name="dieresis.uc" horiz-adv-x="407" 
d="M29 819c0 16.667 5.66699 30.667 17 42s25.333 17 42 17s30.667 -5.66699 42 -17s17 -25.333 17 -42s-5.66699 -30.667 -17 -42s-25.333 -17 -42 -17s-30.667 5.66699 -42 17s-17 25.333 -17 42zM260 819c0 16.667 5.66699 30.667 17 42s25.333 17 42 17
s30.667 -5.66699 42 -17s17 -25.333 17 -42s-5.66699 -30.667 -17 -42s-25.333 -17 -42 -17s-30.667 5.66699 -42 17s-17 25.333 -17 42z" />
    <glyph glyph-name="macron.uc" horiz-adv-x="343" 
d="M318 779h-293v83h293v-83z" />
    <glyph glyph-name="acute.uc" horiz-adv-x="273" 
d="M255 878l-137 -119h-94l101 119h130z" />
    <glyph glyph-name="circumflex.uc" horiz-adv-x="403" 
d="M120 759h-91l112 119h120l117 -119h-92l-85 64z" />
    <glyph glyph-name="caron.uc" horiz-adv-x="403" 
d="M29 878h91l81 -64l85 64h92l-117 -119h-120z" />
    <glyph glyph-name="breve.uc" horiz-adv-x="371" 
d="M186 754c-47.333 0 -84.833 12.8311 -112.5 38.498s-42.5 55.834 -44.5 90.501h81c1.33301 -14 8.16602 -26.833 20.499 -38.5s30.833 -17.5 55.5 -17.5s43 5.83301 55 17.5s18.667 24.5 20 38.5h81c-2 -35.333 -16.667 -65.666 -44 -90.999s-64.666 -38 -111.999 -38z
" />
    <glyph glyph-name="dotaccent.uc" horiz-adv-x="177" 
d="M25 818c0 17.333 6.16699 32.333 18.5 45s27.166 19 44.499 19s32.333 -6.33301 45 -19s19 -27.667 19 -45s-6.33301 -32.166 -19 -44.499s-27.667 -18.5 -45 -18.5s-32.166 6.16699 -44.499 18.5s-18.5 27.166 -18.5 44.499z" />
    <glyph glyph-name="ring.uc" horiz-adv-x="273" 
d="M248 848c0 -30 -11 -55.667 -33 -77s-48.333 -32 -79 -32c-30 0 -56 10.667 -78 32s-33 47 -33 77c0 30.667 11 56.667 33 78s48 32 78 32c30.667 0 57 -10.667 79 -32s33 -47.333 33 -78zM183 848c0 13.333 -4.66699 24.5 -14 33.5s-20.666 13.5 -33.999 13.5
c-12.667 0 -23.5 -4.5 -32.5 -13.5s-13.5 -20.167 -13.5 -33.5s4.5 -24.333 13.5 -33s19.833 -13 32.5 -13c13.333 0 24.666 4.5 33.999 13.5s14 19.833 14 32.5z" />
    <glyph glyph-name="tilde.uc" horiz-adv-x="373" 
d="M349 881v-16c0 -36 -8.83301 -63.5 -26.5 -82.5s-40.834 -28.5 -69.501 -28.5c-25.333 0 -49 7.66699 -71 23l-15 10c-15.333 9.33301 -27.666 14 -36.999 14c-23.333 0 -35 -14.667 -35 -44h-68v16c0 36 9 63.5 27 82.5s41.333 28.5 70 28.5
c23.333 0 47.666 -7.66699 72.999 -23l15 -9c16.667 -9.33301 29.334 -14 38.001 -14c21.333 0 32 11.667 32 35v8h67z" />
    <glyph glyph-name="hungarumlaut.uc" horiz-adv-x="367" 
d="M191 878l-96 -119h-70l61 119h105zM342 878l-106 -119h-70l71 119h105z" />
    <glyph glyph-name="caron.alt.uc" horiz-adv-x="203" 
d="M176 709l-68 -190h-73l30 190h111z" />
    <glyph glyph-name="undercommaaccent" horiz-adv-x="174" 
d="M25 -88c0 14.667 5.83203 26.999 17.499 36.999s25.5 15 41.5 15c17.333 0 32.5 -6 45.5 -18s19.5 -30.333 19.5 -55c0 -36 -11.5 -63.667 -34.5 -83s-49.5 -29 -79.5 -29v40c16.667 0 31.334 5 44.001 15s19.667 21 21 33c-6 -4 -13 -6 -21 -6c-16 0 -29 4.33301 -39 13
s-15 21.334 -15 38.001z" />
    </font>
</defs>
</svg>
